<svg xmlns="http://www.w3.org/2000/svg" xmlns:xlink="http://www.w3.org/1999/xlink" version="1.1" id="Capa_1" x="0px" y="0px" viewBox="0 0 500 293.8" xml:space="preserve" enable-background="new 0 0 500 293.8"><style type="text/css">
	.st0{fill-rule:evenodd;clip-rule:evenodd;fill:#626262;}
</style><path class="st0" d="M417.5 148.6c46.5 2.6 85.9 140.4 62 140.4h-116C296 289 242 237.7 233.3 171.2c-8.7 66.5-64.5 117.8-132 117.8H9.5c0 0-7.7-60.2 62.3-60.2 0 0-25.6-0.2 41.9-0.5 34.1 0 65.2-50.8 53.4-50.8 -6.8 0-106.1 0-150.5 0 -3.9 0-5.8-2-5.8-5.7 0-11.5 0-33.9 0-45.8 0-5 2-5 6-5 45.4 0 140.8 0 149.8 0 11.8 0-18.4-53.3-53.5-53.3 -57.4-0.5-41.3-0.4-41.3-0.4C-2 50.7 9.5 8.2 9.5 8.2h91.9c67.5 0 123.2 51.3 132 117.8C242 59.5 296 8.2 363.5 8.2h116C511.2 8.2 459.4 148.5 417.5 148.6zM397.3 67.1h-48.5c-36.6 0-55.2 50.5-55.2 50.5s-3.3 2.1 25.2 2.1h43c24.4 0 47.3-42 47.3-42C408.9 65.7 409.1 67.1 397.3 67.1zM363.1 177.6h-43.6c-25 0-26.5 0.8-26.5 0.8s15.6 51.4 56.6 51.4h49.2c11.9 0 11.7 1.4 11.7-10.6C410.4 219.3 387.5 177.6 363.1 177.6z"/></svg>