<?xml version="1.0" standalone="no"?>
<!DOCTYPE svg PUBLIC "-//W3C//DTD SVG 1.1//EN" "http://www.w3.org/Graphics/SVG/1.1/DTD/svg11.dtd" >
<svg xmlns="http://www.w3.org/2000/svg">
<metadata>Generated by IcoMoon</metadata>
<defs>
<font id="icomoon" horiz-adv-x="1024">
<font-face units-per-em="1024" ascent="960" descent="-64" />
<missing-glyph horiz-adv-x="1024" />
<glyph unicode="&#x20;" horiz-adv-x="512" d="" />
<glyph unicode="&#xe800;" glyph-name="1" d="M805.407 348.201l-166.526 145.036v121.921h16.084c6.318 0 12.124 3.639 14.599 9.472 2.365 5.707 1.191 12.223-3.256 16.667l-127.935 128.348v26.139h19.418c16.667 0 30.201 13.513 30.201 30.28 0 16.667-13.534 30.201-30.201 30.201h-19.418v26.037c0 16.869-13.715 30.481-30.478 30.481-16.876 0-30.484-13.612-30.484-30.481v-26.037h-19.347c-16.667 0-30.283-13.534-30.283-30.201 0-16.674 13.612-30.28 30.283-30.28h19.347v-26.136l-127.966-128.242c-4.448-4.448-5.608-10.964-3.157-16.773 2.376-5.833 8.277-9.472 14.496-9.472h16.087v-121.921l-166.526-145.036c-16.067-14.083-21.695-35.202-14.189-55.231 7.598-20.012 26.918-30.58 48.227-30.58h10.957v-266.94c0-8.585 8.288-15.609 16.869-15.609h163.345v162.403c0 40.035 32.171 72.602 72.332 72.602 40.045 0 72.199-32.567 72.199-72.602v-162.403h163.567c8.489 0 16.667 7.028 16.667 15.609v266.94h11.028c21.425 0 40.769 10.568 48.241 30.58 7.509 20.026 1.905 41.144-14.179 55.228v0zM549.4 496.77c0-6.308-4.826-11.032-11.138-11.032h-59.771c-6.321 0-11.851 4.724-11.851 11.032v70.059c0 22.777 18.545 41.213 41.421 41.213 22.798 0 41.335-18.435 41.335-41.213v-70.059z" />
<glyph unicode="&#xe801;" glyph-name="2" d="M954.511 489.841h-3.342v29.187c0 27.836-22.654 50.483-50.48 50.483h-14.599v40.598c0 27.829-22.644 50.48-50.48 50.48h-84.5c-27.819 0-50.316-22.651-50.316-50.48v-120.265h-377.402v120.265c0 27.829-22.661 50.48-50.48 50.48h-84.541c-27.778 0-50.275-22.651-50.275-50.48v-40.598h-14.759c-27.836 0-50.323-22.647-50.323-50.483v-29.187h-6.694c-28.887 0-52.316-23.276-52.316-52.156s23.429-51.992 52.316-51.992h6.694v-29.208c0-27.829 22.487-50.487 50.323-50.487h14.759v-40.581c0-27.832 22.501-50.487 50.275-50.487h84.545c27.819 0 50.48 22.654 50.48 50.487v120.272h377.395v-120.272c0-27.832 22.497-50.487 50.316-50.487h84.5c27.836 0 50.48 22.654 50.48 50.487v40.581h14.599c27.825 0 50.48 22.658 50.48 50.487v29.208h3.342c28.887 0 52.316 23.112 52.316 51.992s-23.429 52.156-52.313 52.156v0z" />
<glyph unicode="&#xe802;" glyph-name="3" d="M505.433 753.401l367.927-210.391 80.988-0.29-178.838 290.601-81.77-0.294v71.161h-94.467v-71.161l-88.808-0.857-260.332-0.294-178.756-295.892 94.976 0.567 339.081 216.849zM886.477 479.956l-377.658 209.893-360.393-212.985v-399.831h-55.723v-100.355h845.066v100.355h-51.292v402.924zM322.468 209.824h-110.128v185.781h110.128v-185.781zM585.851 71.438h-152.146v317.204h152.146v-317.204zM821.497 209.824h-110.121v185.781h110.121v-185.781z" />
<glyph unicode="&#xe803;" glyph-name="4" d="M920.924 618.848c-23.948 54.566-55.514 101.349-94.983 140.817-39.438 39.421-86.828 70.325-141.78 93.512-54.651 23.101-111.52 35.086-171.448 35.086h-5.335c-60.419 0-117.866-12.694-172.462-36.557-54.548-23.897-101.687-56.108-141.227-96.457-39.366-40.028-70.072-87.723-93.058-142.729-22.828-54.603-34.082-111.541-34.082-171.452v-2.441c0-59.931 12.063-117.422 36.014-171.926 23.801-54.122 55.924-100.956 95.495-140.291 39.84-39.591 87.235-70.526 141.732-93.512 55.088-23.286 112.022-35.12 171.957-35.12h4.878c60.419 0 117.866 12.677 172.923 36.54 55.057 23.9 101.69 56.173 141.274 96.44 39.298 40.096 70.38 87.586 93.054 142.746 22.108 53.992 33.58 110.118 33.58 169.015v4.878c-0.007 59.914-12.735 117.357-36.533 171.452v0zM885.856 325.618l-49.22 16.080c-3.4 1.488-6.799 1.942-10.185 1.942-8.291 0-15.131-3.922-20.442-11.677l-92.105-133.963c-7.311-8.274-7.311-21.443 0-29.74l28.262-41.854c-66.717-49.22-141.261-74.028-224.58-75.046v57.023c-1.44 14.114-7.97 22.238-19.937 25.795l-154.918 45.817c-3.417 0.997-6.362 1.471-9.243 1.471-8.322 0-14.363-3.652-19.476-10.257l-34.106-43.834c-19.985 16.077-34.492 28.805-43.837 38.011-42.79 41.96-74.080 91.587-93.563 148.569l48.712 19.941c11.001 4.499 17.026 12.172 17.026 24.863v162.669c0 11.237-8.008 21.528-18.958 24.863l-49.695 15.077c24.375 78.957 69.663 143.258 136.397 193.423l36.038-43.837c5.786-7.008 11.715-10.762 20.006-10.762 2.881 0 5.823 0.577 8.769 1.471l154.863 49.217c12.793 4.079 19.224 13.152 19.019 25.846l-0.963 57.952c80.312 0 154.866-23.866 223.061-71.154l-33.584-51.62c-3.249-4.943-4.871-9.735-4.871-14.606 0-5.366 1.959-10.189 5.82-15.575l94.546-131.526c5.461-7.718 11.674-11.711 19.934-11.711 3.386 0 6.738 0.707 10.257 1.963l56.969 19.937c11.68-35.509 17.568-73.523 17.568-113.937 0.010-43.343-5.881-83.319-17.562-120.829v0zM576.532 588.162c-5.482 7.264-12.182 10.749-19.971 10.749-3.42 0-6.823-0.509-10.206-1.969l-151.532-49.671c-12.274-4.011-18.162-12.694-18.005-25.842l1.929-159.741c0.15-11.715 6.833-22.405 18.074-24.842l149.535-47.749c3.383-1.471 6.786-1.942 10.206-1.942 7.786 0 14.606 3.413 19.971 10.711l96.478 130.563c3.383 5.844 5.311 11.677 5.311 17.046 0 4.874-1.925 10.202-5.311 16.097l-96.478 126.59z" />
<glyph unicode="&#xe804;" glyph-name="5" d="M303.531 294.663c18.289 0 33.109 14.821 33.109 33.106v78.561h220.259v-74.035c0-18.299 14.824-33.103 33.106-33.103 18.285 0 33.109 14.804 33.109 33.103v359.823c0 62.126 51.405 76.23 57.245 77.626l-0.328-0.068v0.020c14.599 3.454 25.47 16.531 25.47 32.191 0 18.292-14.834 33.116-33.106 33.116-2.205 0-4.345-0.225-6.438-0.631v0.007c-0.027-0.007-0.044-0.007-0.061-0.020-0.348-0.061-0.672-0.157-1.024-0.232-37.984-8.735-107.981-49.121-107.981-142.008v-69.263h-220.252v64.748c0 58.767 45.978 74.561 55.907 77.278 15.449 2.802 27.177 16.295 27.177 32.56 0 18.285-14.841 33.116-33.113 33.116-2.434 0-4.813-0.28-7.107-0.775l-0.010 0.082c-37.711-8.212-109.070-48.517-109.070-142.261v-359.83c0-18.289 14.821-33.109 33.106-33.109v0zM336.64 556.619h220.259v-84.094h-220.259v84.094zM89.962 206.602c42.912 27.187 99.338 56.286 114.893 56.286 7.902 0 26.924-14.527 39.509-24.132 23.207-17.729 47.223-36.048 73.943-36.048 25.061 0 49.674 16.333 75.762 33.621 18.497 12.264 41.51 27.518 54.176 27.518 12.933 0 35.901-15.892 54.327-28.692 24.375-16.872 47.374-32.826 70.461-32.826 23.125 0 44.558 15.804 67.226 32.519 18.801 13.868 40.1 29.59 54.975 29.59 14.776 0 36.079-15.486 54.88-29.146 23.19-16.862 45.111-32.782 68.878-32.782 38.205 0 112.951 49.633 134.96 64.85 11.438 7.888 14.305 23.572 6.403 35.004-7.902 11.424-23.576 14.278-35.007 6.39-39.059-27.017-91.112-55.927-106.356-55.927-7.421 0-26.621 13.943-39.311 23.183-24.986 18.152-53.323 38.748-84.446 38.748-31.44 0-59.808-20.944-84.852-39.407-11.469-8.475-30.689-22.634-37.349-22.712-7.366 0.017-28.901 14.957-41.793 23.873-26.706 18.521-54.323 37.656-82.992 37.656-27.849 0-55.364-18.237-81.995-35.898-16.053-10.667-38.055-25.252-47.944-25.252-9.708 0-29.201 14.872-43.401 25.726-22.2 16.947-45.148 34.461-70.052 34.461-37.741 0-118.105-49.060-141.834-64.075-11.738-7.448-15.22-22.999-7.789-34.72 7.431-11.766 22.975-15.241 34.727-7.806v0zM964.151 190.74c-7.916 11.411-23.59 14.288-35.021 6.383-39.042-27.010-91.126-55.9-106.363-55.9-7.417 0-26.6 13.923-39.294 23.146-24.999 18.166-53.32 38.758-84.456 38.758-31.433 0-59.815-20.931-84.842-39.407-11.486-8.472-30.696-22.647-37.352-22.709-7.359 0.020-28.911 14.957-41.789 23.887-26.703 18.507-54.32 37.646-82.988 37.646-27.849 0-55.378-18.261-81.992-35.912-16.073-10.636-38.079-25.242-47.944-25.242-9.731 0-29.204 14.868-43.428 25.737-22.18 16.94-45.121 34.464-70.031 34.464-37.751 0-118.101-49.063-141.841-64.106-11.749-7.438-15.217-22.972-7.779-34.724 7.431-11.721 22.972-15.217 34.71-7.782 42.919 27.174 99.342 56.282 114.91 56.282 7.875 0 26.904-14.524 39.513-24.143 23.211-17.719 47.206-36.055 73.943-36.055 25.044 0 49.678 16.35 75.759 33.638 18.48 12.25 41.499 27.529 54.176 27.529 12.916 0 35.864-15.92 54.316-28.703 24.388-16.893 47.384-32.843 70.448-32.843 23.149 0 44.568 15.804 67.246 32.55 18.787 13.851 40.1 29.566 54.968 29.566 14.776 0 36.072-15.476 54.876-29.143 23.197-16.845 45.111-32.785 68.874-32.785 38.209 0 112.971 49.633 134.98 64.853 11.418 7.909 14.295 23.583 6.4 35.014v0z" />
<glyph unicode="&#xe805;" glyph-name="6" d="M579.065 220.699c59.672 16.476 102.874 48.521 131.724 88.675l0.123-0.102-0.034 0.201c29.024 39.902 45.882 91.184 42.865 152.791-15.858 314.453-363.895 133.762-482.908 338.029-76.216-57.167-133.297-137.090-162.522-227.86 229.151-50.773 168.076-434.958 470.753-351.734v0zM450.147 878.787c-49.62-8.086-95.693-24.098-137.458-46.711 31.703-57.085 94.99-73.025 193.649-93.31 122.088-24.989 289.335-59.32 300.465-278.272 3.485-69.274-14.643-133.612-52.63-186.143-37.912-52.422-93.31-89.754-160.188-108.175-211.398-58.276-296.369 89.839-358.414 198.161-49.466 86.166-84.139 140.868-146.691 154.17-7.526-45.1-7.943-92.201-0.314-139.776 38.141-237.995 262.134-399.776 500.029-361.554 237.885 38.233 399.722 262.042 361.568 500.053-38.219 237.879-262.202 399.66-500.016 361.557v0z" />
<glyph unicode="&#xe806;" glyph-name="7" d="M526.145 713.011c11.732 29.621 45.271 44.162 75.015 32.389 29.624-11.735 44.162-45.274 32.43-74.912-11.769-29.754-45.326-44.25-74.95-32.522-29.744 11.762-44.254 45.285-32.495 75.046v0zM481.57 536.32c-9.090-21.832-21.606-42.315-37.97-59.972-3.236-4.881-25.296-39.926-17.080-58.996 18.084-41.646 48.333-85.62 56.999-105.892 8.748-20.135-5.448-39.417-33.406-51.521-27.965-12.111-51.569-9.895-60.6 10.81-8.98 20.931-20.152 72.434-38.182 114.050-7.881 18.21-44.206 26.126-53.296 27.87-24.48 0-48.51 4.884-71.137 13.394l254.672 110.257zM208.858 817.073c-123.894-53.562-138.889-182.443-95.075-283.843 16.22-37.451 42.633-67.403 74.431-88.081l306.036 132.492c6.67 37.332 2.912 77.080-13.408 114.582-43.858 101.304-148.159 178.473-271.985 124.849v0zM925.348 326.902c-9.076-21.856-21.596-42.325-37.973-60.003-3.222-4.867-25.265-39.895-17.077-58.982 18.097-41.643 48.346-85.62 57.033-105.875 8.742-20.145-5.458-39.427-33.43-51.535-27.962-12.111-51.552-9.899-60.617 10.824-8.96 20.893-20.132 72.421-38.161 114.036-7.881 18.21-44.203 26.132-53.316 27.887-24.463 0-48.486 4.867-71.117 13.373l254.659 110.275zM652.65 607.659c-123.901-53.593-138.878-182.456-95.075-283.856 16.217-37.465 42.633-67.42 74.428-88.084l306.022 132.482c6.704 37.342 2.912 77.111-13.394 114.586-43.872 101.325-148.169 178.493-271.981 124.873v0z" />
<glyph unicode="&#xe807;" glyph-name="8" d="M723.074 774.301c13.469 0 23.917 11.455 23.917 24.914v55.323c0 13.455-10.448 24.388-23.917 24.388h-250.583c-2.171 0-4.168-1.096-5.352-2.905-1.191-1.819-1.461-4.205-0.659-6.209l31.969-79.951c3.628-9.209 12.643-15.561 22.63-15.561h201.994zM620.991 575.3c69.97 0 126.672 56.136 126.672 126.102 0 4.103-0.195 7.745-0.567 11.65-1.161 12.465-11.738 21.572-24.296 21.572l-223.823 0.437-31.645-37.376c-1.652-1.911-2.014-4.28-0.918-6.55 1.004-2.277 3.352-3.386 5.816-3.386h22.931c7.26-63.136 60.856-112.449 125.829-112.449v0zM421.178 45.725c-0.72-6.888 1.56-13.804 6.209-18.988 4.717-5.199 11.353-8.178 18.272-8.178h293.799c6.912 0 13.551 2.98 18.282 8.178 4.656 5.188 6.912 12.104 6.192 18.988 15.647 0.195 30.655 6.581 41.585 17.753 10.916 11.305 16.93 26.395 16.643 42.141l-6.53 360.871c-0.655 34.29-28.768 61.669-63.068 61.324l-12.203-0.092c-0.809-2.017-243.668-349.491-243.668-349.491-2.062-3.096-2.348-6.912-0.621-10.267 1.717-3.29 5.188-5.11 8.916-5.11h183.866c15.404 0 27.87-12.554 27.87-27.921 0-15.408-12.465-27.959-27.87-27.959h-261.294l-6.38-61.249zM243.296 410.525c-13.817-1.092-26.566-7.649-35.478-18.217-8.929-10.554-13.278-24.204-12.117-37.946 1.096-13.725 7.663-26.46 18.22-35.376l60.959-51.681c14.179-12.107 31.84-18.016 49.388-18.016 19.924 0 39.769 7.745 54.705 22.828l73.697 75.36-14.746-141.227c-0.195-2.103 1.007-4.099 3.004-4.826 1.911-0.72 4.171-0.099 5.352 1.628l226.86 324.198h-160.143c-16.568 0-32.41-6.55-44.151-18.19l-146.295-145.766-41.325 35.031c-10.547 9.015-24.201 13.363-37.929 12.199v0z" />
<glyph unicode="&#xe808;" glyph-name="9" d="M900.536 329.318l36.673 289.457-263.363 99.925-83.408-39.834c-2.563-12.711-6.496-25.098-11.592-37.052l63.164 30.194-26.078-280.607 1.464-15.022-192.362-29-15.821-31.13 210.985 31.782 24.269-248.883 28.31 2.799-24.45 250.31 2.475 0.375 220.495-27.935 0.546 4.297 33.365-279.846-229.704 53.012-298.882-56.955-2.475 0.505 26.866 255.218-0.164 1.587-1.116 9.537-36.837 72.697 5.195-45.954-6.554-1.010-213.036 33.024 1.229 10.438-32.649 257.423 149.081-62.945-12.425 24.556c-4.024 5.202-7.673 10.653-11.158 16.22l-159.908 67.564 38.427-302.927-0.761-5.994-0.522 0.106-4.352-28.095 1.556-0.256-32.812-275.801 292.475-54.839 298.305 56.825 263.24-60.744-37.693 316.972zM650.479 381.375l-4.929-0.761-1.079 10.673 27.409 294.984 3.246 1.55 231.025-87.648-31.345-247.241-224.328 28.443zM346.109 50.913l-230.533 43.25 29.611 248.409 216.306-33.587 9.807 1.512 1.14-9.677-26.33-249.907zM403.422 304.817l-3.683 7.24-0.27 2.673 9.745 1.516-5.792-11.428zM275.814 624.555l125.641-247.89 124.269 245.217c24.392 28.46 39.257 65.365 39.257 105.728 0 89.74-73.039 162.778-162.785 162.778-89.76 0-162.768-73.039-162.768-162.778 0-39.076 13.885-74.957 36.895-103.052h-0.509zM402.193 827.645c55.166 0 100.038-44.875 100.038-100.038 0-55.166-44.872-100.055-100.038-100.055-55.163 0-100.055 44.885-100.055 100.055 0.003 55.159 44.892 100.038 100.055 100.038v0z" />
<glyph unicode="&#xe809;" d="M639.010 458.725c17.080 82.364-7.888 177.36-74.479 251.481-103.642 115.275-268.452 135.916-368.207 46.213-99.707-89.672-96.553-255.863 7.089-371.016 65.615-72.963 155.767-107.848 238.363-100.987 60.802-11.82 133.403-31.717 169.748-60.931 1.048-11.192 5.403-22.095 13.414-31.055l22.255-24.76c14.032 15.309 39.421 50.459 48.213 110.319-3.669 2.161-7.605 3.721-11.602 4.905-26.525 37.574-39.24 112.705-44.797 175.831v0zM644.13 279.494c-4.154-2.072-8.12-4.526-11.756-7.823l-3.359-3.041c-2.901-2.512-5.4-5.359-7.554-8.356-28.324 18.596-66.362 32.782-104.554 43.5 19.644 8.81 38.144 20.439 54.794 35.366 16.063 14.49 29.239 31.164 39.939 49.043 6.646-39.267 16.845-78.551 32.488-108.687v0z" />
<glyph unicode="&#xe80a;" d="M808.076 157.112c-11.087-59.614-37.1-94.587-52.091-110.387l35.946-39.847c0.027-0.126 0.154-0.236 0.229-0.283 14.35 15.725 40.376 51.951 48.671 114.009l-32.754 36.509z" />
<glyph unicode="&#xe80b;" d="M711.424 264.414c-11.087-59.494-37.096-94.464-52.023-110.203l36.134-40.189c14.363 15.613 40.438 51.903 48.647 113.995l-32.758 36.396z" />
<glyph unicode="&#xe80c;" d="M759.733 210.763c-11.022-59.546-37.018-94.525-51.988-110.326l36.161-40.131c14.298 15.681 40.315 51.872 48.681 114.012l-32.853 36.444z" />
<glyph unicode="&#xe80d;" d="M868.157 2.789l3.342 3.058c22.204 19.903 23.955 54.054 4.014 76.274l-19.098 21.214c-10.554-56.552-34.536-90.931-49.773-107.732 19.48-10.52 44.117-8.397 61.515 7.185v0z" />
<glyph unicode="&#xe80e;" d="M310.712 601.576c14.691-18.425 11.677-45.251-6.711-59.928-18.425-14.691-45.254-11.677-59.931 6.714-14.691 18.429-11.68 45.251 6.714 59.924 18.425 14.698 45.251 11.684 59.928-6.711z" />
<glyph unicode="&#xe80f;" d="M419.024 687.998c14.694-18.408 11.667-45.23-6.728-59.911-18.412-14.691-45.23-11.677-59.924 6.717-14.677 18.412-11.68 45.251 6.745 59.924 18.394 14.694 45.22 11.677 59.907-6.731z" />
<glyph unicode="&#xe810;" d="M393.824 497.428c14.698-18.412 11.684-45.244-6.731-59.924-18.391-14.677-45.213-11.68-59.921 6.731-14.681 18.412-11.667 45.233 6.745 59.911 18.394 14.708 45.216 11.677 59.907-6.717z" />
<glyph unicode="&#xe811;" d="M502.132 583.871c14.684-18.422 11.684-45.251-6.728-59.928-18.412-14.694-45.233-11.677-59.924 6.735-14.691 18.408-11.663 45.23 6.731 59.907 18.408 14.691 45.237 11.677 59.921-6.714z" />
<glyph unicode="&#xe812;" d="M840.834 750.186c0-53.367-43.264-96.645-96.652-96.645-53.385 0-96.662 43.281-96.662 96.645 0 53.402 43.281 96.669 96.662 96.669 53.388 0.003 96.652-43.267 96.652-96.669z" />
<glyph unicode="&#xe813;" glyph-name="11" d="M303.589 99.529c9.639 0 18.49 2.758 26.354 7.066v-54.852h17.712v58.559c9.185-6.752 20.425-10.772 32.655-10.772 26.221 0 48.265 18.531 53.565 43.274 9.97 1.444 19.159 5.809 26.532 11.899v23.805c-12.527-3.71-25.255-5.431-38.257-5.431-38.311 0-73.841 15.104-100.895 42.783-52.593 21.364-87.794 72.513-88.296 129.3-9.342-8.363-15.776-19.934-17.377-33.28-1.761-13.21 1.601-25.569 8.192-35.86-11.411-10.175-18.654-24.791-18.654-41.059 0-19.603 10.127-36.482 25.402-46.316-2.266-6.1-3.707-12.694-3.707-19.62 0-23.627 15.152-43.759 36.202-51.466 10.138-10.964 24.474-18.029 40.571-18.029v0zM807.557 250.119c0 20.593-11.414 38.414-28.167 47.756-15.449-12.216-33.437-21.405-53.412-26.395-18.476-57.723-73.175-98.403-134.618-98.403-10.953 0-21.579 1.427-31.997 3.987-0.492-2.717-0.823-5.311-0.823-7.868 0-23.801 15.111-43.933 36.202-51.64 10.127-10.96 24.463-18.026 40.506-18.026 9.694 0 18.668 2.758 26.569 7.066v-54.852h17.712v58.559c9.144-6.591 20.265-10.772 32.495-10.772 26.344 0 48.21 18.531 53.688 43.274 26.238 4.195 46.333 26.723 46.333 54.234 0 11.25-3.376 21.869-9.312 30.549 3.048 6.926 4.823 14.455 4.823 22.531v0zM519.622 227.929c20.094-14.998 44.728-23.985 71.735-23.985 58.242 0 106.489 40.854 118.395 95.392 57.897 9.182 102.298 59.034 102.298 119.504 0 24.955-7.547 48.265-20.599 67.564 6.752 15.118 10.803 31.846 10.803 49.374 0 52.142-33.161 96.365-79.159 113.418 9.52 17.551 15.619 37.144 15.619 58.559 0 66.915-54.368 121.283-121.45 121.283-23.975 0-46.155-7.096-64.983-19.156-21.074 35.86-59.699 60.324-104.39 60.324-57.446 0-105.206-39.895-117.944-93.426-52.087-8.236-95.044-49.538-101.792-104.564-3.707-28.989 3.666-56.323 17.999-79.302-24.911-22.2-41.021-54.252-41.021-90.395 0-42.957 22.357-80.473 56.125-102.007-5.154-13.503-8.192-27.996-8.192-43.117 0-52.415 33.321-96.683 79.804-113.729 22.204-24.265 53.709-39.718 89.289-39.718 21.364 0 41.011 5.932 58.388 15.568v-177.234h-232.458v-21.572h503.968v21.572h-232.434v185.648z" />
<glyph unicode="&#xe814;" glyph-name="12" d="M519.066 620.96c0.15 0 0.324 0.024 0.495 0.024s0.341-0.024 0.495-0.024c82.173 0 148.791 66.621 148.791 148.794 0 82.176-66.618 148.777-148.791 148.777-0.154 0-0.324-0.020-0.495-0.020s-0.345 0.020-0.495 0.020c-82.173 0-148.794-66.601-148.794-148.777 0.003-82.176 66.621-148.794 148.794-148.794v0zM892.733 316.641l-167.772 121.989-53.047 129.567c-10.11 24.661-34.147 39.366-59.279 38.799l-0.020 0.072-191.488-0.072c-25.153 0.567-49.19-14.141-59.293-38.799l-53.047-129.567-167.776-121.989c-27.955-20.309-34.144-59.447-13.817-87.398 12.264-16.845 31.321-25.777 50.664-25.777 12.756 0 25.627 3.901 36.738 11.981l181.419 131.891-4.639-47.746-171.52-173.855c-23.788-24.753-30.508-61.338-17.033-92.942 13.438-31.584 44.472-52.081 78.807-52.081h81.988c-21.122 19.115-34.598 47.654-34.598 79.524 0 57.419 43.68 104.168 97.372 104.168h93.379c30.58 0 54.863-25.016 54.863-25.016h-148.244c-40.803 0-74.001-35.505-74.001-79.148 0-43.68 33.198-79.186 74.001-79.186h143.551c1.628 0.116 3.253 0.116 4.847 0.304h173.548c34.335 0 65.365 20.521 78.828 52.125 13.452 31.587 6.755 68.151-17.056 92.925l-167.83 174.060-4.543 46.875 181.422-131.891c11.090-8.079 23.996-11.981 36.734-11.981 19.34 0 38.397 8.933 50.661 25.777 20.323 27.945 14.135 67.079-13.817 87.392v0z" />
<glyph unicode="&#xe815;" glyph-name="13" d="M657.51 706.731c36.581 0 65.611 29.269 65.611 65.679 0 36.529-29.030 65.782-65.611 65.782-36.584 0-65.857-29.252-65.857-65.782 0-36.41 29.273-65.679 65.857-65.679v0zM767.014 443.607c-102.192 0-182.671-80.23-182.671-182.647 0-102.195 80.476-182.671 182.671-182.671 102.38 0 182.668 80.473 182.668 182.671 0 102.417-80.288 182.647-182.668 182.647v0zM767.014 133.093c-69.373 0-127.915 58.494-127.915 127.867 0 69.4 58.539 127.898 127.915 127.898 69.4 0 127.915-58.498 127.915-127.898 0-69.373-58.515-127.867-127.915-127.867v0zM613.618 516.768h153.392v65.628h-116.815l-69.407 120.607c-11.049 18.343-29.273 29.256-54.746 29.256-18.364 0-33.021-7.294-43.895-18.224l-135.209-135.202c-10.878-11.056-18.186-25.481-18.186-43.892 0-21.91 10.878-43.875 29.065-54.75l124.331-73.114v-182.651h65.628v237.592l-80.23 62.058 83.971 84.026 62.102-91.334zM255.611 443.607c-102.195 0-182.647-80.23-182.647-182.647 0-102.195 80.452-182.671 182.647-182.671 102.209 0 182.668 80.473 182.668 182.671 0 102.417-80.456 182.647-182.668 182.647v0zM255.611 133.093c-69.403 0-127.898 58.494-127.898 127.867 0 69.4 58.491 127.898 127.898 127.898 69.42 0 127.898-58.498 127.898-127.898 0-69.373-58.474-127.867-127.898-127.867v0z" />
<glyph unicode="&#xe816;" glyph-name="14" d="M903.653 80.558c-38.485 0-104.625 5.448-151.040 38.632-1.519 1.089-3.062 2.195-4.54 3.328v-32.143c0-5.407-4.369-9.762-9.748-9.762-5.41 0-9.766 4.355-9.766 9.762v48.364c-43.162 39.601-71.062 91.392-95.068 140.281v-188.645c0-5.407-4.386-9.762-9.762-9.762-5.393 0-9.766 4.355-9.766 9.762v225.184c0 0.935 0.137 1.86 0.386 2.731-14.578 29.604-29.024 56.429-45.66 74.417-24.221 26.208-46.619 37.601-59.406 42.387v-343.549c0-5.39-4.372-9.752-9.766-9.752h-34.717c-5.383 0-9.752 4.362-9.752 9.752v281.846c0 35.779-29.102 64.874-64.87 64.874-26.689 0-50.347-16.032-60.235-40.834l-123.511-309.501c-1.478-3.724-5.059-6.141-9.059-6.141h-61.815c-3.239 0-6.274 1.604-8.083 4.291-1.806 2.662-2.181 6.072-0.976 9.093l22.084 55.299h-42.721c-5.379 0-9.766 4.383-9.766 9.748 0 5.403 4.386 9.766 9.766 9.766h50.483l24.112 60.375h-40.209c-5.393 0-9.766 4.359-9.766 9.752 0 5.407 4.372 9.762 9.766 9.762h47.988l24.088 60.375h-41.605c-5.379 0-9.748 4.355-9.748 9.748 0 5.396 4.369 9.766 9.748 9.766h49.408l24.074 60.361h-46.899c-5.39 0-9.752 4.372-9.752 9.766s4.362 9.766 9.752 9.766h51.948c0.898 0 1.778-0.126 2.608-0.348l24.747 62.031h-52.726c-5.407 0-9.766 4.355-9.766 9.752 0 5.393 4.359 9.766 9.766 9.766h53.74v214.064h-17.159c-4.195 0-7.916 2.676-9.254 6.663-1.352 3.956 0 8.342 3.325 10.882l132.833 101.093c3.478 2.666 8.329 2.666 11.807 0l132.861-101.093c3.311-2.536 4.663-6.922 3.338-10.882-1.365-3.973-5.076-6.663-9.271-6.663h-17.186v-214.845c16.387-2.649 51.548-13.629 96.157-58.238 24.262-24.289 42.097-62.034 60.966-101.994 27.406-58.040 58.47-123.863 116.637-165.424 38.332-27.406 86.197-32.761 119.562-32.29 10.967 0.119 21.313-4.045 29.102-11.738 7.782-7.656 12.059-17.917 12.059-28.843 0-5.004-3.796-9.213-8.772-9.725-1.451-0.137-13.288-1.266-30.969-1.266v0zM921.859 100.57c-1.051 2.164-2.454 4.195-4.25 5.943-4.028 4.004-9.486 6.001-15.148 6.096-36.335-0.457-88.528 5.451-131.147 35.915-62.29 44.53-94.512 112.78-122.955 172.991-18.111 38.373-35.229 74.633-57.102 96.498-38.127 38.124-67.744 49.005-81.992 52.108v-14.397c13.793-4.11 42.622-16.097 73.742-49.783 22.258-24.095 39.946-60.553 58.651-99.178 29.3-60.44 62.502-128.983 122.279-171.697 50.070-35.779 129.287-35.823 157.921-34.495v0zM311.784 404.675c12.872 32.249 43.643 53.111 78.36 53.111 46.541 0 84.405-37.864 84.405-84.378v-272.090h15.186v370.036h-192.133l-147.661-370.036h40.8l121.044 303.357zM489.373 704.922h-192.222v-214.033h192.222v214.033zM393.264 803.533l-103.895-79.094h207.787l-103.892 79.094zM337.579 542.515c-5.393 0-9.752 4.355-9.752 9.748v105.097c0 5.393 4.359 9.766 9.752 9.766h111.37c5.39 0 9.748-4.372 9.748-9.766v-105.093c0-5.393-4.359-9.748-9.748-9.748l-111.37-0.003zM383.498 595.070h-36.168v-33.038h36.168v33.038zM439.183 595.070h-36.154v-33.038h36.154v33.038zM383.498 647.608h-36.168v-33.021h36.168v33.021zM439.183 647.608h-36.154v-33.021h36.154v33.021z" />
<glyph unicode="&#xe817;" glyph-name="15" d="M641.314 814.473c0-46.346-37.53-84.009-83.842-84.009-46.524 0-84.057 37.663-84.057 84.009 0 46.36 37.533 84.070 84.057 84.070 46.312 0 83.842-37.711 83.842-84.070v0zM441.272 668.703c3.096 21.299 19.528 34.072 31.601 30.764l87.695-24.344c12.087-3.454 16.251-31.485 12.793-43.602l-72.301-296.554c-3.441-12.087-10.711-18.152-22.832-14.715l-59.102 12.797c-47.756 39.27-47.575 73.489-37.714 120.719l59.86 214.934zM366.012 328.052l-15.005-104.957c0 0-38.598-91.86-65.205-145.787-20.050-40.81-29.583-70.195-15.759-77.633 21.282-11.257 49.623 13.984 79.555 60.515 49.968 77.998 75.735 117.084 85.258 135.902l15.234 49.623c-0.003-0.13-74.38 49.135-84.077 82.336v0zM631.439 284.624l-117.036 116.036c-18.514 18.678-46.001 9.861-64.676-8.632-18.678-18.336-54.979-35.645-36.663-54.272l148.716-125.372-16.445-160.464c-1.181-39.629 1.208-62.467 26.303-65.219 23.501-2.437 33.915 46.531 36.308 58.798 0 0 30.095 153.733 33.734 175.52 3.615 21.6 5.714 47.189-10.24 63.604v0zM772.929 628.948l-88.187-41.53-111.203 81.104c-17.661 12.8-42.366 8.803-55.156-8.81-12.79-17.606-8.796-42.366 8.998-55.159l119.654-86.808c11.24-8.144 28.686-12.435 41.349-6.898 0 0 82.285 49.964 104.253 64.314 23.197 15.241 47.36 35.11 38.366 51.883-12.612 23.869-35.765 12.793-58.074 1.905v0zM399.92 672.143c0 0-52.582-163.034-60.515-188.969-7.96-25.948-35.809-43.916-75.076-32.007-39.216 12.090-80.029 28.553-73.67 74.377 6.946 49.981 54.139 116.378 95.143 159.055 40.991 42.721 134.537 57.593 114.118-12.455v0z" />
<glyph unicode="&#xe818;" glyph-name="16" d="M427.151 583.448c29.696-0.174 53.91 23.794 54.088 53.507 0.191 29.686-23.794 53.917-53.507 54.060-29.713 0.188-53.917-23.767-54.074-53.463-0.16-29.734 23.781-53.934 53.494-54.105v0zM138.383 337.674l14.814-0.085c42.308 19.292 94.959 15.203 132.523-12.885 22.139 16.049 49.309 24.941 76.909 24.798h0.13c27.511-0.157 54.525-9.342 76.517-25.665 44.076 32.324 109.305 32.133 153.764-0.86 44.425 32.591 109.715 32.167 153.733-0.809 19.889 14.408 43.841 21.924 68.086 23.375l88.893 97.321c4.745 5.195 6.007 12.711 3.191 19.169-2.843 6.455-9.196 10.65-16.247 10.694l-143.131 0.782-144.985 120.655c-12.373 10.329-28.088 16.056-44.192 16.145l-21.907 0.113c-10.923 0.061-21.033-6.25-25.737-16.043-4.762-9.837-3.437-21.688 3.379-30.194l71.916-89.798-99.311 0.556 39.028 15.944c11.564 4.683 17.111 17.876 12.38 29.423-4.676 11.534-17.876 17.091-29.426 12.36l-40.581-16.568-45.046 35.591c-0.102 0.191-0.13 0.393-0.215 0.567-5.192 11.578-14.739 20.603-26.627 25.129l-0.259 0.116c-24.648 9.37-52.258-2.987-61.689-27.655l-28.146-73.923-133.55 0.744c-12.056 0.085-22.979-7.083-27.754-18.183l-33.908-78.93c-3.956-9.271-3.014-19.889 2.509-28.32 5.489-8.428 14.875-13.503 24.941-13.561v0zM536.31 580.314l21.893-0.113c9.185-0.061 18.094-3.301 25.143-9.172l116.879-97.266-75.936 0.42-87.979 106.131zM408.535 475.375l8.881 23.255 29.699-23.477-38.581 0.222zM959.901 276.316c-11.694 11.855-30.771 11.926-42.581 0.259-9.503-9.4-24.941-9.288-34.301 0.164-31.526 31.874-87.572 32.208-119.392 0.71l-0.468-0.481c-9.168-8.615-24.88-8.356-33.816 0.625-31.655 32.092-87.282 32.44-119.405 0.652-9.196-9.097-25.126-9.008-34.284 0.188l-1.71 1.7c-31.775 30.351-86.265 30.061-117.78-1.103-9.052-8.967-25.088-8.922-34.212 0.246-15.623 15.817-37.318 24.955-59.488 25.071h-0.096c-22.269 0.13-44.093-8.789-59.863-24.443-9.052-8.957-25.143-8.94-34.198 0.259-31.775 32.075-87.34 32.311-119.334 0.666-9.619-9.434-25.040-9.288-34.369 0.174-11.694 11.793-30.758 11.909-42.568 0.215-11.796-11.708-11.93-30.758-0.205-42.568 32.73-33.024 86.265-33.352 119.433-0.652 9.196 9.11 25.139 8.994 34.239-0.177 31.727-32.119 87.34-32.365 119.364-0.666 4.509 4.499 10.79 7.038 17.19 7.008h0.034c6.352-0.027 12.517-2.635 17.142-7.281 15.858-16.002 37.001-24.883 59.488-25.009 22.572-0.119 43.79 8.544 59.894 24.47 9.11 9.039 25.153 8.922 34.164-0.171l1.799-1.731c31.833-30.508 86.135-30.133 117.681 1.004 9.284 9.155 25.156 9.083 34.253-0.16 31.744-32.119 87.388-32.355 119.419-0.683l0.406 0.437c9.226 8.673 24.955 8.468 33.894-0.642 32.727-33.048 86.31-33.28 119.402-0.642 11.814 11.687 11.933 30.737 0.266 42.561v0z" />
<glyph unicode="&#xe819;" glyph-name="17" d="M378.365 38.424c0-6.547 2.372-12.493 7.141-17.841 4.748-5.345 10.404-8.028 16.947-8.028 6.547 0 12.182 2.679 16.951 8.028 4.751 5.345 7.127 11.295 7.127 17.841 0 6.543-2.376 12.489-7.127 17.838-4.765 5.345-10.404 8.045-16.951 8.045-6.543 0-12.199-2.7-16.947-8.045-4.768-5.349-7.141-11.295-7.141-17.838v0zM602.245 14.333c6.543 0 12.486 2.389 17.838 7.141 5.366 4.765 8.032 10.711 8.032 17.838 0 7.141-2.662 13.087-8.032 17.841-5.349 4.765-11.295 7.158-17.838 7.158s-12.199-2.393-16.951-7.158c-4.751-4.755-7.137-10.701-7.137-17.841 0-7.127 2.386-13.070 7.137-17.838 4.768-4.751 10.407-7.141 16.951-7.141v0zM560.323 754.685c17.838 0 33.314 6.543 46.38 19.613 13.090 13.087 19.633 29.146 19.633 48.176 0 19.033-6.543 35.075-19.633 48.166-13.066 13.087-28.839 19.63-47.275 19.63s-33.881-6.543-46.384-19.63c-12.476-13.090-18.726-29.133-18.726-48.166 0-19.029 6.543-35.089 19.63-48.176 13.070-13.070 28.535-19.613 46.374-19.613v0zM203.53 162.41c-3.567-5.946-5.345-12.489-5.345-19.616 0-11.906 4.168-22.006 12.486-30.341 8.322-8.322 18.435-12.476 30.331-12.476 16.657 0 29.143 7.728 37.465 23.187l142.715 255.095-58.877 60.669-158.775-276.518zM513.949 174.896c-7.141-16.64-19.63-24.975-37.468-24.975-11.906 0-22.002 4.171-30.327 12.489-8.335 8.322-12.493 18.432-12.493 30.324 0 7.144 1.778 13.674 5.352 19.63l62.426 114.166-121.303 124.873c-14.268 14.285-22.586 29.744-24.975 46.387-2.359 16.657-1.184 29.744 3.587 39.26l7.124 14.268 66 119.528h-174.814c-9.513 0-17.545 3.574-24.074 10.684-6.56 7.154-9.824 15.766-9.824 25.883 0 10.11 3.263 18.722 9.824 25.88 6.53 7.127 14.561 10.694 24.074 10.694h528.036c9.533 0 17.548-3.567 24.105-10.694 6.526-7.158 9.793-15.77 9.793-25.88 0-10.117-3.267-18.729-9.793-25.883-6.557-7.11-14.572-10.684-24.105-10.684h-201.574l-96.331-173.053 98.106-99.901c10.697-9.513 16.951-20.21 18.743-32.102 1.778-11.902 0.874-21.422-2.683-28.546l-3.567-10.711-83.838-151.637zM672.707 104.441c0-12.493-5.946-18.743-17.841-18.743h-310.402c-11.885 0-17.835 6.25-17.835 18.743 0 12.472 5.946 18.722 17.835 18.722h310.402c11.895 0 17.841-6.25 17.841-18.722v0z" />
<glyph unicode="&#xe81a;" glyph-name="18" d="M414.665 531.384c-19.268-35.106-32.038-72.864-39.772-111.821-30.031 56.399-76.459 110.578-120.726 133.123 32.689-62.498 77.933-134.537 113.439-182.63-0.812-7.482-1.239-15.008-1.812-22.692v-3.263l-0.191-0.99v-1.253l-0.215-1.819c0-2.229-0.212-4.256-0.212-6.274v-3.072l-0.208-2.792v-3.7l-0.215-0.775v-17.251c0-18.275 1.041-36.516 2.447-54.593-55.415 53.978-155.194 100.458-222.983 97.601 73.878-47.886 172.039-98.99 224.799-118.682 1.41-13.411 3.079-26.805 4.898-39.994-205.141-83.777-229.891 83.825-327.301 205.322 64.113 23.166 118.269 33.079 163.731 31.887-14.176 61.652-5.864 138.366-18.227 213.627 114.63-19.060 185.211-57.808 222.549-109.961v0zM938.554 711.363c-98.229-274.924-28.409-589.619-511.508-518.417-44.629 306.555 66.365 524.489 511.508 518.417v0zM803.611 578.034c-133.079-39.95-300.698-216.494-336.777-349.146 63.468 39.731 226.188 207.35 336.777 349.146v0z" />
<glyph unicode="&#xe900;" glyph-name="20" d="M719.947 420.253v356.386h-531.91v-664.897h244.661c17.562 0 31.942-14.35 31.942-31.898 0-17.562-14.384-31.932-31.942-31.932h-276.582c-17.568 0-31.898 14.374-31.898 31.932v728.702c0 17.562 14.326 31.921 31.898 31.921h595.77c17.527 0 31.887-14.36 31.887-31.921v-388.294c0-17.541-14.36-31.901-31.887-31.901-17.568 0-31.939 14.36-31.939 31.901v0zM884.306 342.589c-13.298 11.711-33.505 10.656-45.227-2.649l-174.978-194.679-87.76 84.572c-12.769 12.233-32.98 11.711-45.227-1.072-12.237-12.749-11.721-32.969 1.065-45.193l111.715-107.448c5.82-5.847 13.814-9.045 22.337-9.045h1.051c8.499 0.526 17.012 4.26 22.337 10.636l196.803 219.15c12.244 13.831 11.192 34.041-2.116 45.728v0zM602.941 654.288h-287.229c-17.568 0-31.921-14.346-31.921-31.921 0-17.548 14.35-31.894 31.921-31.894h287.225c17.527 0 31.898 14.346 31.898 31.894 0 17.572-14.37 31.921-31.894 31.921v0zM634.836 446.86c0 17.534-14.37 31.908-31.898 31.908h-287.225c-17.568 0-31.921-14.374-31.921-31.908 0-17.551 14.35-31.932 31.921-31.932h287.225c17.527 0 31.898 14.38 31.898 31.932v0zM315.713 308.555c-17.568 0-31.921-14.36-31.921-31.908 0-17.562 14.35-31.921 31.921-31.921h85.088c17.527 0 31.898 14.36 31.898 31.921 0 17.548-14.37 31.908-31.898 31.908h-85.088z" />
<glyph unicode="&#xe901;" glyph-name="21" d="M817.684 123.566c-13.592-18.708-35.454-29.792-58.586-29.792h-74.383v262.175h-102.113l38.154 74.691h-59.453v43.284c0 0 116.999 38.141 89.047 246.702 0 0-119.511-30.519-185.62 38.195 0 0-25.576-48.305-78.971-30.566 0 0-27.931-193.314 78.971-254.334v-40.684l-56.429-0.986 38.915-76.438h-102.083v-262.161h-74.377c-23.156 0-45.012 11.1-58.634 29.911-13.681 18.702-17.517 42.841-10.441 64.812l68.198 211.36c6.4 20.050 20.985 35.69 39.356 43.94-13.138 64.713-62.505 350.918 81.671 411.682 0 0 111.985 73.861 272.172-15.23 0 0 125.815-69.376 54.122-395.028 19.907-7.694 35.878-24.125 42.752-45.363l68.154-211.258c7.096-22.071 3.287-46.21-10.421-64.911v0zM312.375 29.392h405.050v48.302h-405.050v-48.302z" />
<glyph unicode="&#xe902;" glyph-name="22" d="M551.311 830.191c-119.549 0-230.096-58.549-297.824-153.644 17.159-4.847 32.915-14.008 45.903-26.982l11.158-11.158c55.146 76.274 144.336 123.167 240.763 123.167 163.744 0 296.929-133.199 296.929-296.936 0-96.911-46.739-185.808-123.095-240.845l8.643-8.619c13.885-13.892 23.395-31.041 27.928-49.562 96.126 67.533 155.18 178.203 155.18 299.022-0.003 201.578-164.017 365.558-365.585 365.558v0zM602.689 261.731c-9.772 9.772-23.139 14.688-37.195 13.274-24.791-2.509-48.039-12.056-67.243-27.614-2.635-2.157-6.045-3.355-9.54-3.355-3.42 0-6.793 1.171-9.431 3.297-54.361 43.745-104.035 93.45-147.681 147.739-4.454 5.516-4.441 13.541 0.079 19.063 15.5 19.156 25.040 42.4 27.518 67.181 1.413 13.807-3.437 27.372-13.24 37.199l-88.829 88.781c-8.711 8.707-20.258 13.493-32.556 13.493-1.478 0-2.997-0.065-4.502-0.218-29.102-2.84-56.542-15.862-77.298-36.605-39.895-39.912-48.712-102.137-21.46-151.32 69.455-126.72 236.51-309.34 395.878-395.732 18.528-10.114 39.52-15.439 60.764-15.439 33.765 0 66.662 13.517 90.211 37.079 20.774 20.767 33.765 48.213 36.622 77.315 1.362 13.759-3.499 27.266-13.261 37.048l-88.835 88.812zM565.552 706.85c-13.083 0-23.658-10.595-23.658-23.668v-194.051c0-13.059 10.575-23.668 23.658-23.668h180.927c13.087 0 23.675 10.605 23.675 23.668 0 13.070-10.588 23.671-23.675 23.671h-157.266v170.38c0 13.070-10.588 23.668-23.661 23.668v0z" />
<glyph unicode="&#xe903;" glyph-name="19" d="M910.602 561.473c-8.653 10.813-21.798 17.149-35.628 17.149h-45.739c0 25.283-20.473 45.739-45.739 45.739h-45.742v45.739c0 25.269-20.46 45.728-45.739 45.728h-22.852v91.498c0 12.588-10.291 22.863-22.9 22.863h-457.363c-12.708 0-22.873-10.278-22.873-22.863v-91.494h-22.856c-25.293 0-45.752-20.46-45.752-45.728v-548.864c0-25.272 20.46-45.739 45.752-45.739h640.324c21.436 0 40.025 14.92 44.657 35.816l91.484 411.655c3.038 13.575-0.358 27.686-9.035 38.502v0zM166.028 121.242h-22.856v548.864h22.856v-548.864zM646.26 624.364c-25.255 0-45.728-20.456-45.728-45.739h-274.442c-21.425 0-40.004-14.899-44.65-35.806 0 0-92.539-418.27-92.539-421.577v686.083h457.359v-182.961zM692.012 624.364h-22.852v45.739h22.852v-45.739zM551.772 705.911h-272.927c-12.595 0-22.852 10.305-22.852 22.876 0 12.619 10.257 22.873 22.852 22.873h272.927c12.605 0 22.852-10.254 22.852-22.873 0.003-12.575-10.243-22.876-22.852-22.876v0zM551.772 612.925h-272.927c-12.595 0-22.852 10.281-22.852 22.886 0 12.592 10.257 22.863 22.852 22.863h272.927c12.605 0 22.852-10.271 22.852-22.863 0.003-12.605-10.243-22.886-22.852-22.886v0z" />
<glyph unicode="&#xe904;" glyph-name="23" d="M336.445 633.931h10.445c15.879 0 28.74 12.875 28.74 28.744v108.957c0 15.865-12.861 28.737-28.74 28.737h-10.445c-15.862 0-28.73-12.872-28.73-28.737v-108.96c0-15.865 12.868-28.74 28.73-28.74v0zM705.041 634.648h10.448c15.858 0 28.723 12.872 28.723 28.74v108.967c0 15.862-12.865 28.73-28.723 28.73h-10.448c-15.875 0-28.737-12.868-28.737-28.73v-108.971c0-15.869 12.865-28.737 28.737-28.737v0zM841.322 741.98h-73.745v-86.115c0-28.723-23.375-44.575-52.091-44.575h-10.448c-28.723 0-52.098 23.378-52.098 52.098v78.592h-253.952v-79.305c0-28.723-23.368-52.105-52.101-52.105h-10.445c-28.716 0-52.091 23.381-52.091 52.105v79.305h-79.565c-25.767 0-46.722-20.961-46.722-46.722v-564.518c0-25.767 20.954-46.718 46.722-46.718h636.535c25.767 0 46.722 20.951 46.722 46.718v564.514c0 25.764-20.954 46.725-46.722 46.725v0zM841.322 130.741h-636.535v426.305h636.542l0.027-426.308c0 0.003 0 0.003-0.034 0.003v0zM547.171 414.058h83.886c3.325 0 6.021 2.686 6.021 6.025v72.625c0 3.328-2.697 6.035-6.021 6.035h-83.886c-3.321 0-6.018-2.707-6.018-6.035v-72.625c0-3.338 2.697-6.025 6.018-6.025v0zM684.076 414.058h83.883c3.321 0 6.018 2.686 6.018 6.025v72.625c0 3.328-2.697 6.035-6.018 6.035h-83.883c-3.325 0-6.028-2.707-6.028-6.035v-72.625c0-3.338 2.703-6.025 6.028-6.025v0zM273.391 295.141h83.883c3.321 0 6.021 2.69 6.021 6.025v72.629c0 3.335-2.7 6.021-6.021 6.021h-83.883c-3.325 0-6.021-2.686-6.021-6.021v-72.629c0-3.335 2.697-6.025 6.021-6.025v0zM410.283 295.141h83.883c3.325 0 6.018 2.69 6.018 6.025v72.629c0 3.335-2.693 6.021-6.018 6.021h-83.883c-3.328 0-6.018-2.686-6.018-6.021v-72.629c0.003-3.335 2.693-6.025 6.018-6.025v0zM547.188 295.141h83.869c3.331 0 6.021 2.69 6.021 6.025v72.629c0 3.335-2.69 6.021-6.021 6.021h-83.869c-3.338 0-6.035-2.686-6.035-6.021v-72.629c0-3.335 2.697-6.025 6.035-6.025v0zM684.076 295.141h83.883c3.321 0 6.018 2.69 6.018 6.025v72.629c0 3.335-2.697 6.021-6.018 6.021h-83.883c-3.325 0-6.028-2.686-6.028-6.021v-72.629c0-3.335 2.703-6.025 6.028-6.025v0zM357.274 260.902h-83.883c-3.325 0-6.021-2.697-6.021-6.021v-72.636c0-3.325 2.697-6.021 6.021-6.021h83.883c3.321 0 6.021 2.697 6.021 6.021v72.636c0 3.325-2.7 6.021-6.021 6.021v0zM494.165 260.902h-83.883c-3.328 0-6.018-2.697-6.018-6.021v-72.636c0-3.325 2.69-6.021 6.018-6.021h83.883c3.331 0 6.018 2.697 6.018 6.021v72.636c0 3.325-2.686 6.021-6.018 6.021v0zM631.057 260.902h-83.869c-3.338 0-6.035-2.697-6.035-6.021v-72.636c0-3.325 2.697-6.021 6.035-6.021h83.869c3.331 0 6.028 2.697 6.028 6.021v72.636c0 3.325-2.7 6.021-6.028 6.021v0zM767.959 260.902h-83.883c-3.325 0-6.028-2.697-6.028-6.021v-72.636c0-3.325 2.703-6.021 6.028-6.021h83.883c3.321 0 6.018 2.697 6.018 6.021v72.636c0 3.325-2.697 6.021-6.018 6.021v0z" />
</font>
</defs>
</svg>
