<?xml version="1.0" standalone="no"?>
<!DOCTYPE svg PUBLIC "-//W3C//DTD SVG 1.1//EN" "http://www.w3.org/Graphics/SVG/1.1/DTD/svg11.dtd" >
<svg xmlns="http://www.w3.org/2000/svg" xmlns:xlink="http://www.w3.org/1999/xlink" version="1.1">
<metadata></metadata>
<defs>
<font id="bodoninormal" horiz-adv-x="1091" >
<font-face units-per-em="2048" ascent="1638" descent="-410" />
<missing-glyph horiz-adv-x="450" />
<glyph horiz-adv-x="0" />
<glyph unicode="&#xd;" horiz-adv-x="681" />
<glyph unicode=" "  horiz-adv-x="450" />
<glyph unicode="&#x09;" horiz-adv-x="450" />
<glyph unicode="&#xa0;" horiz-adv-x="450" />
<glyph unicode="!" horiz-adv-x="542" d="M158 1188q82 123 98 194q6 16 12 17q10 0 13 -15q8 -37 39.5 -96t62.5 -96q-94 -254 -94 -674l-2 -219h-37v219q0 408 -92 670zM178 78q0 39 26.5 66.5t65.5 27.5t67 -27.5t28 -66.5t-28 -65.5t-67 -26.5t-65.5 26.5t-26.5 65.5z" />
<glyph unicode="&#x22;" horiz-adv-x="382" d="M82 1364h55l-6 -508h-43zM246 1364h55l-6 -508h-43z" />
<glyph unicode="#" horiz-adv-x="1161" d="M82 584h305l31 231h-285l-2 66h297l68 485h69l-67 -485h239l72 485h61l-65 -485h272l2 -66h-284l-31 -231h268l2 -64h-280l-74 -520h-64l72 520h-242l-73 -520h-68l72 520h-293zM455 584h241l33 231h-242z" />
<glyph unicode="$" d="M84 0v483h35q0 -231 139 -352q53 -45 103.5 -66.5t152.5 -44.5v582q-225 29 -319.5 103.5t-94.5 230.5q0 176 119 301t295 125v168h43v-168q115 -12 225 -86q41 -27 60 -27q51 0 51 101h35v-428h-35q-16 365 -336 411v-553q74 -6 132.5 -17t120.5 -36t103 -61.5t68 -95 t27 -136.5q0 -133 -64.5 -245.5t-165.5 -151.5q-57 -25 -93 -32t-128 -13v-297h-43v297q-102 12 -207.5 62t-128.5 50q-59 0 -59 -104h-35zM186 1051q0 -135 87 -191t241 -72v545q-154 -6 -241 -80.5t-87 -201.5zM557 20q162 2 261.5 80t99.5 205q0 37 -6.5 69t-20.5 56.5 t-26.5 43t-40 33.5t-44 25.5t-52.5 20.5t-53.5 15t-59.5 14.5t-58 13.5v-576z" />
<glyph unicode="%" horiz-adv-x="1492" d="M70 1022q0 131 67.5 238.5t192.5 107.5q115 0 185.5 -95t70.5 -251q0 -147 -75 -246.5t-187.5 -99.5t-183 96t-70.5 250zM178 1042q0 -182 34 -262t110 -80q82 0 118.5 78t36.5 250t-33.5 245t-113.5 73q-152 -1 -152 -304zM352 0l729 1366h60l-725 -1366h-64zM907 340 q0 131 68.5 238.5t193.5 107.5q115 0 185.5 -95t70.5 -251q0 -150 -74.5 -248t-189.5 -98q-113 0 -183.5 96t-70.5 250zM1018 360q0 -184 33.5 -264t109.5 -80q82 0 118 78t36 252q0 170 -34 243t-112 73q-80 0 -115.5 -72t-35.5 -230z" />
<glyph unicode="&#x26;" horiz-adv-x="1456" d="M68 307q0 55 22.5 108.5t52 90.5t83 79t88 64.5t94.5 57.5q-137 182 -138 301q0 111 89.5 191.5t211.5 80.5q109 0 173.5 -58.5t64.5 -156.5q0 -168 -217 -285l305 -374q14 16 57 72.5t70 85t73 57t91 28.5q53 0 90 -32.5t37 -81.5q0 -47 -31 -81t-76 -34 q-104 0 -104 121v4q0 18 -12 18q-6 0 -21.5 -13t-37 -37t-40 -45.5t-42 -50t-31.5 -38.5q10 -10 62 -71.5t81 -89.5t80 -58.5t98 -30.5q20 0 37.5 7t30 15.5t28 29t21.5 28.5t21.5 34.5t17.5 30.5l28 -12q-31 -61 -50 -94t-57 -84t-83 -75.5t-98 -24.5q-43 0 -82 14t-79 47 t-62.5 54.5t-65.5 70.5t-53 61q-129 -139 -197 -184q-96 -66 -199 -65q-127 0 -229 100t-102 225zM227 449q0 -123 98.5 -234t219.5 -111q102 0 227 154q-182 211 -348 424q-47 -29 -70.5 -44t-58.5 -47t-51.5 -67t-16.5 -75zM418 1104q0 -31 9 -62.5t29.5 -67.5t34 -56.5 t44 -60.5t38.5 -50q203 98 203 256q0 82 -56 134t-142 52q-72 0 -116 -40t-44 -105z" />
<glyph unicode="'" horiz-adv-x="219" d="M82 1364h55l-6 -508h-43z" />
<glyph unicode="(" horiz-adv-x="534" d="M82 418q0 283 86 553t256 467l43 -27q-6 -6 -11 -12t-7 -8q-160 -242 -236 -471.5t-76 -503.5q0 -266 71 -476t228 -446l-41 -33q-313 471 -313 957z" />
<glyph unicode=")" horiz-adv-x="534" d="M68 -512q23 27 59 84q141 217 204.5 433t63.5 478q0 258 -72.5 476.5t-224.5 445.5l41 33q313 -471 314 -957q0 -281 -86 -551t-256 -469z" />
<glyph unicode="*" d="M143 1186q0 16 35 16q10 0 62 -10q0 61 28 61q12 0 25 -18q49 -70 98 -113t131 -86q0 170 -47 285q-10 20 -10 29q0 23 24 22q12 0 46 -16q2 6 4 13t4 9q25 59 45 60q23 0 24 -72q0 -12 2 -20q25 8 41 8q25 0 25 -19q0 -8 -14 -26q-51 -78 -69.5 -123t-45.5 -150 q180 51 264 129q14 14 27 15q20 0 20 -27q0 -20 -6 -39q6 0 17.5 1t17.5 1q57 0 57 -22q0 -10 -6 -19.5t-16.5 -15.5t-18.5 -9t-21.5 -7.5t-15.5 -6.5q20 -33 21 -47q0 -23 -21 -22q-4 0 -83.5 21.5t-122.5 21.5q-49 0 -111 -6q66 -90 107.5 -134.5t99.5 -81.5 q23 -10 22 -26q0 -27 -43 -27q-8 0 -14 2q2 -6 9 -31.5t7 -37.5q0 -29 -16 -29q-14 0 -26.5 9t-27 27.5t-18.5 22.5q-35 -35 -49 -34q-20 0 -20 36q0 6 2 13q0 158 -60 276q-109 -160 -129 -274q-6 -27 -18 -27q-25 0 -43 45q-43 -43 -74 -43q-18 0 -18 21q0 18 26 63l2 4 l4 8q-4 2 -15 6.5t-17 8.5t-12.5 10t-6.5 14q0 18 25 25q129 37 256 160q-147 47 -234 47q-12 0 -35.5 -1t-35.5 -1q-27 0 -27 18.5t35 46.5q-66 33 -66 66z" />
<glyph unicode="+" d="M68 657v56h450v477h53v-477h453v-56h-453v-477h-53v477h-450z" />
<glyph unicode="," horiz-adv-x="493" d="M90 80q0 39 35 71.5t78 32.5q88 0 137 -61.5t49 -165.5q0 -168 -188 -338l-25 27q178 150 178 323q0 63 -28.5 115.5t-85.5 52.5q35 -33 34 -67q0 -41 -24.5 -65.5t-65.5 -24.5t-67.5 28.5t-26.5 71.5z" />
<glyph unicode="-" horiz-adv-x="456" d="M0 360l39 99h418l-31 -99h-426z" />
<glyph unicode="." horiz-adv-x="491" d="M150 82q0 39 27.5 66.5t68.5 27.5q39 0 66.5 -27.5t27.5 -66.5q0 -41 -27.5 -68.5t-66.5 -27.5q-41 0 -68.5 27.5t-27.5 68.5z" />
<glyph unicode="/" horiz-adv-x="798" d="M0 -518l559 1935h88l-557 -1935h-90z" />
<glyph unicode="0" d="M78 678q0 158 23.5 257t84.5 195q68 104 161 173t201.5 69t204 -61.5t160.5 -175.5q102 -172 103 -455q0 -436 -281 -631q-90 -61 -198 -61q-207 0 -344 217q-115 184 -115 473zM262 721q0 -274 28.5 -417.5t98.5 -223.5q53 -63 146 -64q156 0 225 161t69 515 q0 350 -64.5 500.5t-215.5 150.5q-150 0 -218.5 -149t-68.5 -473z" />
<glyph unicode="1" d="M184 1006v41q31 18 144.5 85.5t182.5 119t122 114.5h76v-1331h198v-35h-585v35h200v1075v35q0 8 -6 8q-2 2 -10 2q-82 0 -322 -149z" />
<glyph unicode="2" d="M45 0q35 94 125 189.5t187.5 175t191.5 171t155.5 213t61.5 261.5q0 147 -86 235t-231 88q-219 0 -306 -170q-20 -45 -20 -71q0 -47 35 -48q4 0 13 1.5t13 1.5q104 0 105 -101q0 -41 -28 -67.5t-68 -26.5q-55 0 -90 45t-35 117q0 158 118.5 258t307.5 100 q207 0 338 -104.5t131 -272.5q0 -111 -56.5 -209t-149.5 -176t-190.5 -145.5t-203 -148t-164.5 -152.5h735l37 215h30q-27 -164 -51 -379h-905z" />
<glyph unicode="3" d="M66 238q0 70 33.5 111.5t88.5 41.5q41 0 71 -28.5t30 -69.5q0 -47 -29 -76t-76 -29q-4 0 -9 1t-7 1l-10 5q-33 0 -33 -25q0 -23 26.5 -51.5t65.5 -48.5q96 -51 236 -52q186 0 276 88.5t90 274.5q0 164 -83 263t-242 106q-187 0 -281 2l2 28l135 2q90 0 138.5 3t113 18.5 t97 45.5t56 88t23.5 142q0 127 -67.5 194.5t-194.5 67.5q-115 0 -207 -43t-92 -96q0 -14 12 -14q4 0 14.5 2t16.5 2q35 0 58.5 -24.5t23.5 -59.5q0 -43 -24.5 -69.5t-63.5 -26.5q-45 0 -71.5 32.5t-26.5 85.5q0 102 101 172t251 70q201 0 320.5 -79t119.5 -210 q0 -260 -350 -317q193 -23 302.5 -122t109.5 -251q0 -168 -160 -286.5t-383 -118.5q-178 0 -289.5 69.5t-111.5 180.5z" />
<glyph unicode="4" d="M14 489q0 2 6 9l756 901h35l-645 -776h469v467h174v-467h203v-142h-203v-446h197v-35h-629v35h258v446h-606q-14 0 -15 8z" />
<glyph unicode="5" d="M63 254q0 61 33 100t86 39q41 0 70 -26.5t29 -65.5t-25 -64.5t-63 -25.5q-16 0 -23 2q-43 0 -43 -43q0 -57 92 -104.5t205 -47.5q115 0 184.5 26t120.5 85q96 113 96 277q0 178 -97 292.5t-271 114.5q-168 0 -285 -90l-22 10q39 129 38 268q0 166 -32 322q-2 2 -2 6 q0 20 75.5 34.5t178.5 14.5q137 0 366 -35q25 -4 39 -4q31 0 31 33v27h30q0 -109 -49 -160t-180 -51q-51 0 -152.5 15.5t-152.5 15.5q-129 0 -129 -37q8 -115 8 -172q0 -119 -24 -232q109 68 288 68q231 0 382 -120t151 -302q0 -190 -166 -313t-422 -123q-158 0 -261.5 75.5 t-103.5 190.5z" />
<glyph unicode="6" d="M78 532q0 319 234.5 558t617.5 309l8 -27q-330 -70 -478.5 -213t-189.5 -469q117 178 328 178q186 0 306 -117.5t120 -301.5q0 -193 -138 -327t-339 -134q-225 0 -347 156.5t-122 387.5zM260 485q0 -250 69.5 -359.5t225.5 -109.5q283 0 283 430q0 184 -70 284.5 t-197 100.5q-135 0 -233 -104q-47 -51 -62.5 -98t-15.5 -144z" />
<glyph unicode="7" d="M63 1038q25 156 43 328h951l-269 -555q-250 -514 -249 -631q0 -27 14 -26q8 0 26.5 6t28.5 6q39 0 62.5 -24.5t23.5 -65.5q0 -39 -23.5 -63.5t-64.5 -24.5q-51 0 -79.5 36.5t-28.5 100.5q0 72 51 209l330 860h-740q-22 -64 -45 -156h-31z" />
<glyph unicode="8" d="M66 342q0 260 426 389q-74 23 -127.5 44.5t-111.5 58t-90 92t-32 127.5q0 133 121 226t291 93q184 0 299.5 -88t115.5 -227q0 -49 -18 -90t-37.5 -68t-67 -56.5t-71 -40.5t-85 -38t-75.5 -33q82 -27 144.5 -54.5t131 -71.5t106.5 -109.5t38 -145.5q0 -152 -138 -257 t-337 -105q-223 0 -353 95t-130 259zM258 334q0 -152 76 -235t217 -83q135 0 209 82t74 234q0 246 -140 332q-43 26 -147 53q-156 -37 -222.5 -127t-66.5 -256zM305 1057q0 -133 57.5 -209t188.5 -103q121 27 176 101t55 207q0 152 -57 221t-182 69q-238 0 -238 -286z" />
<glyph unicode="9" d="M68 899q0 195 136 334t324 139q215 0 349.5 -153.5t134.5 -401.5q0 -158 -75 -318.5t-202 -275.5q-199 -180 -555 -262l-8 29q219 51 349 125.5t207 213t95 357.5q-109 -188 -319 -188q-188 0 -312 113.5t-124 287.5zM252 915q0 -72 13.5 -134t41 -120.5t82.5 -93.5 t129 -35q154 0 232.5 102.5t78.5 258.5q0 453 -303 453q-143 0 -208.5 -103t-65.5 -328z" />
<glyph unicode=":" horiz-adv-x="491" d="M150 82q0 39 27.5 66.5t68.5 27.5q39 0 66.5 -27.5t27.5 -66.5q0 -41 -27.5 -68.5t-66.5 -27.5q-41 0 -68.5 27.5t-27.5 68.5zM150 645q0 39 27.5 67.5t68.5 28.5q39 0 66.5 -27.5t27.5 -68.5q0 -39 -27.5 -66.5t-66.5 -27.5t-67.5 27.5t-28.5 66.5z" />
<glyph unicode=";" horiz-adv-x="493" d="M90 80q0 39 35 71.5t78 32.5q88 0 137 -61.5t49 -165.5q0 -168 -188 -338l-25 27q178 150 178 323q0 63 -28.5 115.5t-85.5 52.5q35 -33 34 -67q0 -41 -24.5 -65.5t-65.5 -24.5t-67.5 28.5t-26.5 71.5zM131 645q0 39 28.5 67.5t67.5 28.5t67 -28.5t28 -67.5t-28 -66.5 t-67 -27.5t-67.5 27.5t-28.5 66.5z" />
<glyph unicode="&#x3c;" horiz-adv-x="1024" d="M68 616v140l886 418v-160l-716 -328l716 -330v-157z" />
<glyph unicode="=" d="M68 543v55h956v-55h-956zM68 770v55h956v-55h-956z" />
<glyph unicode="&#x3e;" horiz-adv-x="1024" d="M70 199v157l716 330l-716 330v158l886 -420v-138z" />
<glyph unicode="?" horiz-adv-x="798" d="M104 1171q0 94 83 161t198 67q150 0 241 -92.5t91 -243.5q0 -94 -30 -166t-62.5 -106.5t-118.5 -112.5q-18 -18 -29 -27q-20 -20 -85.5 -68t-94.5 -91t-29 -107q0 -37 13 -94l-29 -8q-33 137 -33 245q0 154 115 236q4 2 56 40t65.5 49t57.5 47t59.5 58.5t41 57.5 t34.5 70.5t9 72.5q0 86 -78.5 146.5t-191.5 60.5q-57 0 -137 -33t-80 -84q0 -23 31 -26q57 -12 79.5 -30.5t22.5 -66.5q0 -39 -25.5 -65.5t-64.5 -26.5q-47 0 -78 39t-31 98zM180 78q0 39 27.5 65.5t64.5 26.5q39 0 66 -26.5t27 -65.5t-27 -65.5t-66 -26.5q-37 0 -64.5 26.5 t-27.5 65.5z" />
<glyph unicode="@" horiz-adv-x="1478" d="M76 674q0 295 205.5 507t492.5 212q268 0 448.5 -167t180.5 -415q0 -141 -60.5 -265t-168.5 -202q-98 -72 -179 -72q-61 0 -103 34t-42 81q0 23 8 49q-121 -170 -268 -170q-109 0 -174.5 83t-65.5 218q0 190 146.5 357.5t334.5 167.5q137 0 164 -148l29 105h152 l-177 -613q-10 -37 -10 -59q0 -59 55 -60q39 0 109 56q94 74 153.5 194.5t59.5 237.5q0 233 -171 391t-425 158q-268 0 -461.5 -199t-193.5 -477q0 -276 185 -473t448 -197q190 0 360 108.5t223 262.5h49q-70 -182 -246 -295t-389 -113q-276 0 -472.5 206t-196.5 497z M485 453q0 -150 121 -150q82 0 165 77t114 181l88 305q0 2 1 7.5t1 9.5q0 80 -38 126t-103 46q-178 0 -273 -271q-76 -217 -76 -331z" />
<glyph unicode="A" horiz-adv-x="1363" d="M-6 0v35q117 0 146.5 21.5t70.5 133.5l430 1196h29l514 -1351h174v-35h-596v35h205l-158 411h-467l-94 -260q-25 -74 -25 -92q0 -59 137 -59h64v-35h-430zM354 481h443l-228 606z" />
<glyph unicode="B" horiz-adv-x="1261" d="M35 0v35h198v1296h-198v35h489q72 0 124 -2t132 -11.5t136.5 -31t110.5 -55t83 -91t29 -131.5q0 -158 -106.5 -233.5t-274.5 -85.5q186 -29 301 -107.5t115 -246.5q0 -182 -158 -293q-76 -53 -138.5 -65.5t-242.5 -12.5h-600zM432 35h57q190 0 272.5 27.5t133.5 109.5 q57 92 57 203q0 123 -65.5 207t-186.5 110q-86 21 -268 21v-678zM432 741h37q162 0 225.5 7.5t112.5 29.5q129 61 129 234q0 166 -129 250q-63 43 -129 56t-205 13h-41v-590z" />
<glyph unicode="C" horiz-adv-x="1314" d="M74 672q0 295 189.5 504.5t457.5 209.5q86 0 166 -33.5t135 -68.5t78 -35q51 0 63 82h35v-411h-35q-14 182 -141 309t-309 127q-86 0 -155 -31t-112 -87t-73.5 -122.5t-45 -149.5t-20.5 -154t-6 -148q0 -655 404 -656q143 0 264 87t168 220q25 68 26 172h35v-487h-35 q0 55 -19.5 88t-51.5 33q-23 0 -75 -36t-133 -72t-175 -36q-272 0 -453.5 199t-181.5 496z" />
<glyph unicode="D" horiz-adv-x="1468" d="M33 0v35h198v1296h-198v35h504q47 0 104 -1t70 -1q293 -6 487.5 -199.5t194.5 -484.5q0 -229 -121 -404.5t-318 -234.5q-94 -29 -152.5 -35t-234.5 -6h-534zM432 35q10 0 26.5 -1t26.5 -1q160 0 246 13t166 52q270 125 270 582q0 639 -608 651h-127v-1296z" />
<glyph unicode="E" horiz-adv-x="1327" d="M35 0v35h198v1296h-198v35h1124l33 -334h-33q-20 119 -43.5 166t-81.5 78q-98 55 -366 55h-236v-620h82q166 0 240.5 43t74.5 139v63h35v-514h-35v70q0 100 -64.5 134t-252.5 34h-80v-645h258q178 0 269.5 16.5t156.5 59.5q53 35 80 85t31 89t4 116h33v-401h-1229z" />
<glyph unicode="F" horiz-adv-x="1204" d="M35 0v35h198v1296h-198v35h1114l37 -358h-39q0 141 -68 229q-78 94 -272 94h-139h-236v-616h84q102 0 152.5 5t101.5 29.5t70.5 78t19.5 143.5h35v-535h-35q0 160 -61 199q-70 45 -283 45h-84v-645h213v-35h-610z" />
<glyph unicode="G" horiz-adv-x="1466" d="M76 676q0 289 193.5 496.5t461.5 207.5q109 0 181.5 -28.5t125 -61.5t95.5 -39q27 0 42 16.5t18 29t11 46.5h33v-413h-33q-16 92 -36.5 140t-65.5 101q-68 82 -163 129.5t-196 47.5q-438 0 -438 -672q0 -340 109.5 -501t341.5 -161q147 0 234 60.5t87 165.5v166h-196v34 h575v-34h-170v-220q-261 -204 -531 -204h-3q-309 0 -492.5 188t-183.5 506z" />
<glyph unicode="H" horiz-adv-x="1613" d="M35 0v35h198v1296h-198v35h596v-35h-199v-614h752v614h-201v35h598v-35h-199v-1296h199v-35h-598v35h201v647h-752v-647h199v-35h-596z" />
<glyph unicode="I" horiz-adv-x="684" d="M41 0v35h199v1296h-199v35h602v-35h-199v-1296h199v-35h-602z" />
<glyph unicode="J" horiz-adv-x="718" d="M41 20q0 51 28.5 84t75.5 33q39 0 66 -25.5t27 -66.5q0 -37 -22.5 -56.5t-44 -28.5t-21.5 -19q0 -25 31.5 -39.5t60.5 -14.5q51 0 88 38t37 89q0 33 -31 111t-31 127v1079h-199v33h599v-33h-197v-1108q0 -76 -10.5 -135t-37 -115.5t-81.5 -87t-135 -30.5q-88 0 -145.5 47 t-57.5 118z" />
<glyph unicode="K" horiz-adv-x="1435" d="M35 0v35h198v1296h-198v35h602v-35h-207v-629l512 459q102 92 102 131q0 23 -19 31t-77 8h-104v35h583v-35h-108q-66 0 -145.5 -42t-126 -81t-121.5 -106q-16 -14 -23 -21l-297 -268l660 -778h196v-35h-665v35h192l-534 645l-25 -23v-622h217v-35h-612z" />
<glyph unicode="L" horiz-adv-x="1298" d="M33 0v35h198v1296h-198v35h624v-35h-227v-1296h205q217 0 322.5 16.5t160.5 61.5q88 74 88 252v86h37v-451h-1210z" />
<glyph unicode="M" horiz-adv-x="1703" d="M20 0v35h70q76 0 102.5 25.5t26.5 101.5v90v1042l-18 37h-172v35h381l446 -1026l418 1026h397v-35h-198v-1296h198v-35h-594v35h197v1227l-508 -1235l-514 1192v-965q0 -20 1 -58t2 -51.5t5 -38t13.5 -32.5t26.5 -20.5t44 -15.5t66 -3h59v-35h-449z" />
<glyph unicode="N" horiz-adv-x="1484" d="M20 0v35h68q82 0 102.5 24.5t28.5 106.5v86v1055l-37 24h-162v35h424l797 -1008v803q0 82 -4 110.5t-20 41.5q-20 18 -125 18h-60v35h438v-35h-57q-102 0 -121 -22q-14 -16 -17 -40t-3 -108v-1171h-12l-1008 1280v-1018v-91t10 -59.5t18.5 -39t39 -18.5t57 -9h88.5v-35 h-445z" />
<glyph unicode="O" horiz-adv-x="1427" d="M76 678q0 309 211 518q94 92 206.5 145.5t217.5 53.5q256 0 448.5 -214t192.5 -499q0 -287 -190.5 -497t-452.5 -210q-250 0 -441.5 213.5t-191.5 489.5zM303 684q0 -678 412 -678q409 0 409 675q0 333 -105 507t-304 174q-201 0 -306.5 -174t-105.5 -504z" />
<glyph unicode="P" horiz-adv-x="1245" d="M33 0v35h198v1296h-198v35h569q109 0 203 -16.5t186 -55.5t145.5 -119.5t53.5 -195.5q0 -164 -150.5 -270.5t-386.5 -106.5q-123 0 -223 37v-604h211v-35h-608zM430 680q53 -27 86 -34t100 -7q168 0 264.5 87t96.5 239q0 207 -122 288.5t-339 81.5q-4 0 -86 -4v-651z" />
<glyph unicode="Q" horiz-adv-x="1427" d="M76 678q0 307 211 518q92 92 205.5 145.5t218.5 53.5q256 0 448.5 -214t192.5 -499q0 -258 -145.5 -446.5t-393.5 -251.5l-2 -195q0 -88 56.5 -127t183.5 -39q47 0 114 6v-35q-98 -4 -116 -4q-193 0 -328 62q-104 41 -107 170v162q-238 59 -388 252.5t-150 441.5z M303 684q0 -678 412 -678q409 0 409 675q0 333 -105 507t-304 174q-201 0 -306.5 -174t-105.5 -504z" />
<glyph unicode="R" horiz-adv-x="1390" d="M35 0v35h198v1296h-198v35h706q182 0 308.5 -74.5t126.5 -247.5q0 -285 -410 -329q127 -18 194.5 -47t108.5 -84q37 -49 53.5 -149.5t19.5 -186.5t29.5 -153.5t81.5 -67.5q35 0 84 16l13 -29q-72 -28 -156 -28h-6q-129 0 -187.5 60t-74.5 210q-27 229 -47 287 q-39 102 -154 133q-76 20 -211 20h-80v-661h211v-35h-610zM434 729q68 0 115 2t116.5 10.5t115.5 29t92.5 52t69 83.5t22.5 122q0 113 -60 193q-51 68 -130 89t-269 21h-72v-602z" />
<glyph unicode="S" horiz-adv-x="1134" d="M117 -14v501h35q12 -174 63 -262q57 -98 165.5 -158.5t227.5 -60.5q164 0 262.5 85t98.5 226q0 117 -86 183q-55 41 -140.5 65.5t-165 32.5t-163.5 29.5t-145.5 55.5t-101.5 111.5t-40 196.5q0 178 114.5 291t297.5 113q80 0 153.5 -32t125.5 -62.5t79 -30.5q6 0 11 2 t9.5 3t8.5 6t6 7t4 9.5t3 10.5t3 10t2 10t1 11.5t1 10.5h35v-410h-35q-12 195 -126.5 308.5t-295.5 113.5q-139 0 -226 -79t-87 -206q0 -90 47 -146.5t122 -80t165 -37.5t180 -34.5t165 -54.5t122 -109.5t47 -192.5q0 -207 -122 -328t-331 -121q-102 0 -234 51.5t-165 51.5 q-27 0 -39 -19.5t-16 -70.5h-35z" />
<glyph unicode="T" horiz-adv-x="1294" d="M29 956l14 410h1206l15 -410h-35v29q0 158 -32 226.5t-118 91.5q-105 28 -319 28h-15v-1296h220v-35h-637v35h219v1296h-37q-172 0 -262 -22.5t-133 -77.5q-51 -63 -52 -246v-29h-34z" />
<glyph unicode="U" horiz-adv-x="1476" d="M14 1331v35h615v-35h-215v-915q0 -150 19.5 -211.5t82.5 -110.5q115 -86 297 -86q279 0 385 191q47 86 47 260v704q0 106 -24.5 137t-114.5 31h-98v35h471v-35h-84q-72 0 -93.5 -31.5t-21.5 -136.5v-698q0 -260 -124 -377t-390 -117q-358 0 -487 154q-41 49 -53.5 104.5 t-12.5 196.5v905h-199z" />
<glyph unicode="V" horiz-adv-x="1318" d="M-20 1331v35h602v-35h-199l369 -1046l317 852q35 90 35 129q0 65 -83 65h-3h-100v35h448v-35h-98q-59 0 -86 -28.5t-66 -131.5l-457 -1220l-499 1380h-180z" />
<glyph unicode="W" horiz-adv-x="1851" d="M-20 1331v33h1398v-33h-102q-80 0 -106.5 -23.5t-65.5 -129.5l-103 -260l248 -668l375 944q20 57 21 82q0 55 -95 55h-104v33h452v-33h-86q-27 0 -47 -4t-36.5 -17.5t-26.5 -22.5t-21.5 -32.5t-16.5 -34t-15.5 -42t-14.5 -41.5l-465 -1186h-22l-246 667l-229 -667h-25 l-489 1380h-178zM375 1331l370 -1059l138 394l-242 665h-266zM856 1331l131 -364l86 227q29 74 29 86q0 51 -101 51h-145z" />
<glyph unicode="X" horiz-adv-x="1460" d="M0 0v35q125 0 182.5 16.5t94 53t116.5 151.5l283 412l-391 663h-185v35h598v-35h-168l273 -465l219 322q49 68 49 100q0 43 -74 43h-125v35h480v-35h-84q-66 0 -108 -31.5t-113 -136.5l-224 -329l469 -799h168v-35h-606v35h190l-346 600l-309 -447q-59 -88 -59 -110 q0 -43 104 -43h94v-35h-528z" />
<glyph unicode="Y" horiz-adv-x="1218" d="M-49 1331v35h602v-35h-186l342 -743l247 518q61 131 62 172q0 53 -100 53h-89v35h437v-35h-68q-63 0 -90 -23.5t-72 -117.5l-311 -649v-506h213v-35h-625v35h211v459l-393 837h-180z" />
<glyph unicode="Z" horiz-adv-x="1249" d="M55 0l883 1331h-260q-262 0 -385 -53q-80 -35 -101.5 -106.5t-21.5 -182.5h-35v377h1057l-885 -1331h262q322 0 460 62.5t138 205.5v92h35v-395h-1147z" />
<glyph unicode="[" horiz-adv-x="534" d="M123 -518v1935h358v-51h-303v-1833h303v-51h-358z" />
<glyph unicode="\" horiz-adv-x="798" d="M152 1417h88l559 -1935h-88z" />
<glyph unicode="]" horiz-adv-x="534" d="M53 -467h305v1833h-305v51h359v-1935h-359v51z" />
<glyph unicode="^" horiz-adv-x="1024" d="M66 766l356 602h182l357 -602h-152l-297 494l-297 -494h-149z" />
<glyph unicode="_" horiz-adv-x="1024" d="M0 -147h1024v-105h-1024v105z" />
<glyph unicode="`" horiz-adv-x="1024" d="M215 1253q0 27 22.5 44.5t57.5 17.5q43 0 67.5 -25.5t73.5 -120.5l127 -241h-41l-243 233q-63 61 -64 92z" />
<glyph unicode="a" horiz-adv-x="999" d="M68 180q0 88 64.5 149.5t170 87t190.5 35t173 9.5v194q0 88 -42 120t-161 32q-96 0 -155.5 -27.5t-59.5 -70.5q0 -12 31.5 -41t31.5 -62q0 -39 -23.5 -63.5t-62.5 -24.5q-41 0 -66.5 27.5t-25.5 70.5q0 90 97.5 156t230.5 66q156 0 272 -74q57 -33 75.5 -66.5t18.5 -97.5 v-352l4 -115q2 -57 13.5 -78.5t42.5 -21.5q49 0 96 76l27 -15q-59 -106 -166 -106q-150 0 -172 129q-86 -135 -301 -135q-139 0 -221 53t-82 145zM250 215q0 -100 38 -144t126 -44q86 0 154.5 37.5t97.5 101.5v264h-15q-260 0 -346 -63q-55 -41 -55 -152z" />
<glyph unicode="b" horiz-adv-x="1114" d="M14 0v35h158v1311h-158v32h193q55 0 81.5 12.5t45.5 47.5v-799q100 199 317 199q158 0 280 -136.5t122 -293.5q0 -180 -129 -307.5t-312 -127.5q-193 0 -278 179v-152h-320zM334 258q0 -96 92 -175t205 -79q78 0 127 25.5t71.5 77t29.5 102.5t7 129v92q0 193 -32 266 q-20 51 -71.5 80t-117.5 29q-121 0 -216 -88t-95 -199v-260z" />
<glyph unicode="c" horiz-adv-x="851" d="M61 356q0 190 142.5 331.5t333.5 141.5q113 0 194.5 -55t81.5 -131q0 -41 -26.5 -67.5t-67.5 -26.5q-33 0 -59.5 28.5t-26.5 65.5q0 41 24 70q23 23 23 32q0 53 -164 54q-154 0 -210 -78t-56 -291v-92q0 -186 54 -260t189.5 -74t220.5 70.5t109 201.5h29 q-16 -139 -109.5 -221t-234.5 -82q-186 0 -316.5 112t-130.5 271z" />
<glyph unicode="d" horiz-adv-x="1114" d="M61 401q0 174 126 305.5t296 131.5q207 -1 295 -191v699h-155v34h192q57 0 83 11.5t44 46.5v-1403h158v-35h-322v143q-35 -76 -111.5 -123t-166.5 -47q-180 0 -309.5 126t-129.5 302zM250 360q0 -63 3 -105t15.5 -94t37 -83t69.5 -52.5t108 -21.5q121 0 208 81t87 194 v225q0 125 -89 213t-216 88q-76 0 -124 -31t-68.5 -90t-25.5 -109.5t-5 -128.5v-86z" />
<glyph unicode="e" horiz-adv-x="901" d="M61 393q0 174 124 309.5t282 135.5q109 0 203 -65.5t147 -176.5q35 -82 35 -104q0 -12 -25 -13h-575q0 -25 -2 -76t-2 -75q0 -156 46 -239t189 -83q261 1 353 273l32 -7q-33 -137 -135 -218t-244 -81q-176 0 -302 124t-126 296zM252 514h373q20 0 25 3t5 18q0 59 -7 102 t-25.5 85t-59.5 64.5t-100 22.5q-55 0 -94 -16.5t-59.5 -40t-34 -67.5t-17.5 -79t-6 -92z" />
<glyph unicode="f" horiz-adv-x="589" d="M35 0v35h158v723h-158v35h158v139q0 207 87 347t214 140q72 0 118.5 -48t46.5 -124q0 -45 -24.5 -72.5t-65.5 -27.5q-35 0 -59.5 24.5t-24.5 61.5q0 68 76 80q23 4 23 26.5t-26 36t-64 13.5q-78 0 -107 -58.5t-29 -214.5v-323h226v-35h-226v-723h183v-35h-506z" />
<glyph unicode="g" horiz-adv-x="915" d="M41 -293q0 135 188 225q-151 10 -151 185q0 188 186 194q-141 88 -141 232q0 115 100.5 204t229.5 89q115 0 219 -82q62 75 155 75h2q37 0 64 -24.5t27 -61.5q0 -31 -20.5 -51t-51.5 -20q-33 0 -53.5 21.5t-20.5 54.5q0 20 19 47q-66 -18 -99 -66q74 -98 74 -186 q0 -119 -97.5 -205t-230.5 -86q-49 0 -139 35q-180 0 -180 -113q0 -47 25.5 -63.5t97.5 -16.5h399q221 0 221 -237q0 -176 -128 -292t-326 -116q-164 0 -266.5 71.5t-102.5 186.5zM135 -285q0 -102 81 -165.5t214 -63.5q154 0 269.5 93t115.5 218q0 133 -164 133h-344 q-172 -43 -172 -215zM287 545q0 -152 32.5 -208t120.5 -56q96 0 133 56t37 206q0 158 -31.5 211t-125.5 53q-88 0 -127 -61.5t-39 -200.5z" />
<glyph unicode="h" horiz-adv-x="1110" d="M12 0v35h158v1311h-158v32h197q55 0 80.5 12.5t46.5 47.5v-805q61 102 142 148t198 46q84 0 152.5 -31.5t97.5 -82.5q26 -49 26 -177v-10v-491h158v-35h-487v35h161v616q0 63 -41 103.5t-106 40.5q-92 0 -177 -65.5t-124 -168.5v-526h156v-35h-480z" />
<glyph unicode="i" horiz-adv-x="528" d="M35 0v35h158v723h-156v35h192q57 0 83 12t46 49v-819h158v-35h-481zM182 1296q0 39 28 67t66.5 28t67.5 -28t29 -67t-29 -67.5t-67.5 -28.5t-66.5 28.5t-28 67.5z" />
<glyph unicode="j" horiz-adv-x="479" d="M14 760v33h207q94 0 127 47v-946q0 -193 -12 -263.5t-57 -115.5q-55 -55 -117 -56q-39 0 -63.5 26t-24.5 64q0 31 21.5 50.5t56.5 19.5q29 0 52 -22.5t23 -51.5q0 -10 -4 -30q47 35 47 90q0 37 -44 125t-44 166v864h-168zM170 1296q0 39 27.5 68t68.5 29t70 -28t29 -69 t-29 -68.5t-70 -27.5t-68.5 28.5t-27.5 67.5z" />
<glyph unicode="k" horiz-adv-x="997" d="M12 0v35h158v1311h-158v32h178q57 0 83 13.5t46 52.5v-1096l281 279q82 82 82 110q0 20 -64 21h-96v35h422v-35h-78q-14 0 -27.5 -2t-26.5 -7.5t-22.5 -8.5t-23.5 -12t-19.5 -13t-20.5 -17.5t-18 -16.5t-20.5 -19.5t-19.5 -18.5l-164 -160l346 -448h168v-35h-514v35h137 l-252 330l-70 -68v-262h150v-35h-457z" />
<glyph unicode="l" horiz-adv-x="507" d="M12 0v35h158v1311h-158v32h197q57 0 82.5 12.5t44.5 49.5v-1405h158v-35h-482z" />
<glyph unicode="m" horiz-adv-x="1669" d="M35 0v35h158v723h-158v35h196q100 0 127 53v-219q29 90 117 148.5t197 58.5q236 0 262 -220q35 100 115.5 157.5t183.5 57.5q176 0 246 -110q20 -33 26 -70t6 -129v-485h158v-35h-485v35h159v600q0 158 -137 158q-100 0 -186 -88.5t-86 -180.5v-489h156v-35h-484v35h162 v631q0 61 -34 97t-93 36q-94 0 -174 -68.5t-109 -171.5v-524h154v-35h-477z" />
<glyph unicode="n" horiz-adv-x="1126" d="M35 0v35h158v723h-158v35h194q55 0 82 11t45 44v-217q101 196 338 196h2q274 0 275 -264v-528h157v-35h-483v35h158v596q0 88 -31 125t-102 37q-100 0 -187.5 -63.5t-126.5 -166.5v-528h160v-35h-481z" />
<glyph unicode="o" horiz-adv-x="1009" d="M61 407.5q0 167.5 146.5 297t316.5 129.5q164 0 294 -130.5t130 -293.5q0 -176 -131 -305.5t-309 -129.5q-174 0 -310.5 132.5t-136.5 300zM252 264q0 -137 60.5 -198.5t197.5 -61.5q139 0 195.5 57.5t56.5 198.5v285q0 139 -55.5 199.5t-182.5 60.5q-143 0 -207.5 -61.5 t-64.5 -194.5v-285z" />
<glyph unicode="p" horiz-adv-x="1110" d="M14 -483h158v1241h-158v35h195q57 0 85 11t42 42v-176q41 74 117.5 120t158.5 46q174 0 305.5 -126t131.5 -296q0 -182 -124 -312.5t-300 -130.5q-191 1 -289 187v-641h158v-35h-480v35zM336 301q0 -123 89 -210t216 -87q57 0 99 19.5t64.5 49t36 77t16.5 87t3 95.5v139 q0 61 -3 102t-17.5 89.5t-39 76t-68.5 47t-107 19.5q-113 0 -201 -82t-88 -186v-236z" />
<glyph unicode="q" horiz-adv-x="1110" d="M61 414q0 168 131.5 295t305.5 127q84 0 160.5 -46t115.5 -120v176q27 -53 127 -53h197v-35h-158v-1241h158v-35h-480v35h156v641q-98 -186 -289 -187q-176 0 -300 130t-124 313zM250 332q0 -55 3 -96t16.5 -87.5t37 -76t65.5 -49t99 -19.5q125 0 214 87t89 210v227 q0 113 -85 195t-202 82q-145 0 -191 -86t-46 -248v-139z" />
<glyph unicode="r" horiz-adv-x="751" d="M35 0v35h158v723h-158v35h203q80 0 120 51v-250q29 109 95.5 171t154.5 62q61 0 99 -31.5t38 -82.5q0 -41 -24.5 -66.5t-63.5 -25.5q-35 0 -59.5 25.5t-24.5 64.5q0 49 48 77l-31 5q-2 2 -8 2q-49 0 -102.5 -52.5t-86.5 -134.5q-23 -55 -29 -95t-6 -128v-350h179v-35 h-502z" />
<glyph unicode="s" horiz-adv-x="765" d="M74 -6v293h26q23 -131 105 -205t207 -74q96 0 155.5 52.5t59.5 136.5q0 157 -193 157h-2h-141q-92 0 -150.5 62.5t-58.5 161.5q0 117 78 188.5t202 71.5q70 0 151 -32t87 -32q12 0 12 43v4v15h31l8 -238h-30q-29 211 -267 211q-94 0 -152.5 -43t-58.5 -115 q0 -66 56.5 -101.5t156.5 -35.5h129q106 0 166 -63.5t60 -178.5q0 -127 -88 -211t-222 -84q-84 0 -175 42t-97 42q-29 0 -29 -55v-12h-26z" />
<glyph unicode="t" horiz-adv-x="583" d="M-12 758v35h55q109 0 180.5 81.5t71.5 192.5h29v-274h260v-35h-260v-623q0 -63 21.5 -91t68.5 -28q88 0 139 119l31 -8q-33 -80 -83 -115t-130 -35q-100 0 -157.5 49.5t-57.5 137.5v594h-168z" />
<glyph unicode="u" horiz-adv-x="1112" d="M0 758v35h223q43 0 60.5 9t40.5 42v-664q0 -94 32.5 -132t112.5 -38q121 0 214 94.5t93 214.5v439h-155v35h223q53 0 98 51v-809h156v-35h-322v190q-53 -115 -133 -166t-205 -51q-147 0 -227 86q-31 35 -42 73t-11 112v514h-158z" />
<glyph unicode="v" horiz-adv-x="905" d="M-33 758v35h461v-35h-149l249 -576l193 443q24 57 24 84q0 49 -81 49h-89v35h365v-35h-55q-47 0 -73 -32t-79 -155l-270 -620h-17l-356 807h-123z" />
<glyph unicode="w" horiz-adv-x="1353" d="M-35 758v33h914v-33h-162l254 -584l172 395q39 88 39 131q0 57 -80 58h-74v33h361v-33h-48q-55 0 -83.5 -34t-83.5 -165l-263 -614h-18l-217 487l-199 -487h-20l-359 813h-133zM283 758l252 -584l124 299l-124 285h-252z" />
<glyph unicode="x" horiz-adv-x="976" d="M-33 0v35q113 0 171.5 31.5t137.5 126.5l154 180l-266 385h-146v35h486v-35h-135l163 -240l111 129q45 57 45 80q0 31 -74 31h-61v35h385v-35h-53q-63 0 -95 -15.5t-73 -62.5l-164 -191l317 -454h142v-35h-508v35h164l-217 309l-142 -168q-65 -75 -65 -101 q0 -24 19.5 -32t74.5 -8h59v-35h-430z" />
<glyph unicode="y" horiz-adv-x="897" d="M-35 758v33h451v-33h-146l256 -596l164 405q39 98 39 133q0 57 -113 58h-81v33h395v-33h-64q-23 0 -39 -7.5t-28.5 -23.5t-18.5 -27.5t-17 -38t-15 -34.5l-252 -619q-18 -43 -42 -147.5t-43.5 -180t-69.5 -139t-122 -63.5q-47 0 -77.5 28.5t-30.5 73.5q0 37 25.5 64.5 t60.5 27.5q43 0 67.5 -25.5t24.5 -68.5q-2 -4 -2 -12q0 -16 14 -17q53 0 137 390l-354 819h-119z" />
<glyph unicode="z" horiz-adv-x="866" d="M45 0l573 758h-155q-90 0 -139.5 -7.5t-93.5 -33t-60 -79.5t-16 -144h-33l-2 299h723l-566 -758h185q164 0 228.5 52t64.5 208h34v-295h-743z" />
<glyph unicode="{" horiz-adv-x="534" d="M72 436v23q68 25 94.5 68.5t26.5 136.5v483q0 139 55 204.5t188 65.5v-41q-104 -8 -147 -53t-43 -145v-512q0 -96 -25.5 -143.5t-95.5 -76.5q66 -25 93.5 -77t27.5 -148v-485q0 -113 41 -156t149 -57v-41q-152 0 -197.5 72.5t-45.5 238.5v438q0 94 -25 136.5t-96 68.5z " />
<glyph unicode="|" horiz-adv-x="1024" d="M432 -342v1706h160v-1706h-160z" />
<glyph unicode="}" horiz-adv-x="534" d="M98 -477q104 8 146.5 53t42.5 148v509q0 94 26.5 142.5t94.5 77.5q-66 25 -93.5 77t-27.5 148v487q0 211 -189 211v41q152 0 198 -72.5t46 -238.5v-438q0 -94 24.5 -136.5t96.5 -68.5v-23q-70 -25 -95.5 -68.5t-25.5 -135.5v-484q0 -139 -54.5 -204.5t-189.5 -65.5v41z " />
<glyph unicode="~" horiz-adv-x="1024" d="M20 602q106 229 279 229q80 0 217 -74.5t215 -74.5q98 0 184 154l86 -68q-45 -96 -117.5 -162.5t-164.5 -66.5q-80 0 -212 70.5t-200 78.5q-117 1 -201 -153z" />
<glyph unicode="&#xa1;" horiz-adv-x="542" d="M158 -332q94 254 94 674l2 219h37v-219q0 -414 92 -668q-82 -123 -98 -196q-6 -16 -13 -17q-10 0 -12 17q-8 37 -40 95t-62 95zM176 782q0 39 27.5 65.5t66.5 26.5t65.5 -26.5t26.5 -65.5t-26.5 -65.5t-65.5 -26.5t-66.5 26.5t-27.5 65.5z" />
<glyph unicode="&#xa2;" d="M150 645q0 172 116.5 305t284.5 164v211h43v-211q6 0 16.5 1t14.5 1q115 0 195.5 -55t80.5 -131q0 -41 -26.5 -66.5t-67.5 -25.5q-33 0 -59.5 28.5t-26.5 63.5q0 41 24 71q23 23 23 33q0 51 -143 51q-16 0 -31 -2v-794q266 12 317 274h29q-18 -139 -106.5 -217 t-239.5 -88v-221h-43v221q-170 16 -285.5 127t-115.5 260zM338 625q0 -76 5 -123t25.5 -98.5t65.5 -79t117 -33.5v790q-125 -16 -169 -91t-44 -273v-92z" />
<glyph unicode="&#xa3;" d="M59 633v39h232q-53 74 -74.5 106.5t-48.5 99t-27 126.5q0 164 127 264t334 100q82 0 158 -17.5t143.5 -54t107.5 -104.5t40 -158q0 -63 -33 -105t-84 -42q-41 0 -72 27.5t-31 66.5q0 41 27 70.5t64 29.5q2 0 10 -2q6 -2 12 -2q20 -4 31 -8h2q20 0 20 33 q0 102 -113.5 167.5t-224.5 65.5q-154 0 -242.5 -90t-88.5 -244q0 -51 12 -104t34.5 -121.5t31.5 -103.5h512v-39h-500q37 -121 37 -213q0 -57 -21 -127q178 -33 314 -100q14 -8 45.5 -27t52 -29t49.5 -20.5t53 -10.5q27 0 52.5 16.5t36.5 29t36 45.5l29 -19 q-51 -70 -74.5 -98.5t-79 -63t-114.5 -34.5q-82 0 -256.5 86t-192.5 92q-33 -74 -88 -120t-113 -46q-51 0 -86 31.5t-35 78.5q0 78 87.5 136.5t201.5 58.5q27 0 51 -4q12 37 13 80q0 113 -99 258h-258zM96 109q0 -33 27 -58.5t61 -25.5q92 0 174 147q-78 33 -131 33t-92 -29 t-39 -67z" />
<glyph unicode="&#xa5;" d="M-35 1331v35h518v-35h-157l301 -743l213 518q55 135 55 174q0 51 -100 51h-62v35h395v-35h-53q-66 0 -92.5 -23.5t-64.5 -117.5l-156 -371h291v-35h-308l-102 -243v-64h410v-33h-410v-409h213v-35h-596v35h209v409h-428v33h428l-121 307h-307v35h293l-215 512h-154z" />
<glyph unicode="&#xa8;" horiz-adv-x="1024" d="M242 1110q0 39 27.5 65.5t66.5 26.5t65.5 -26.5t26.5 -65.5t-26.5 -66.5t-65.5 -27.5t-66.5 27.5t-27.5 66.5zM598 1108q0 39 26.5 66.5t65.5 27.5t65.5 -27.5t26.5 -66.5t-26.5 -65.5t-65.5 -26.5t-65.5 26.5t-26.5 65.5z" />
<glyph unicode="&#xa9;" horiz-adv-x="1570" d="M76 682q0 295 208 503t502.5 208t502.5 -208t208 -503t-208 -503t-503 -208q-293 0 -501.5 209t-208.5 502zM111 682q0 -281 198.5 -480.5t477 -199.5t477 199.5t198.5 480.5t-197.5 480.5t-478.5 199.5q-279 0 -477 -199.5t-198 -480.5zM391 676q0 176 121 302t293 126 q70 0 147.5 -41t87.5 -41q18 0 27 49h33v-256h-33l-2 4q-8 109 -83 181.5t-181 72.5q-242 0 -242 -403q0 -379 236 -379q119 0 194.5 79t77.5 203h33v-301h-35q0 70 -31 70q-6 0 -86 -42t-151 -42q-174 0 -290 120t-116 298z" />
<glyph unicode="&#xaa;" horiz-adv-x="729" d="M0 608v68h729v-68h-729zM51 946q0 166 324 191q20 2 61 4q21 2 29 2v125q0 57 -27.5 76.5t-107.5 19.5q-63 0 -103.5 -16.5t-40.5 -42.5q0 -8 22.5 -29t22.5 -41q0 -29 -18 -47.5t-47 -18.5t-48.5 20.5t-19.5 51.5q0 66 67.5 111t164.5 45q115 0 186.5 -46t71.5 -120 v-238q4 -127 14 -135q4 -6 21 -6q33 0 65 53l27 -14q-43 -80 -123 -80q-47 0 -73.5 17.5t-47.5 60.5q-27 -37 -83 -59.5t-122 -22.5q-98 0 -156.5 38t-58.5 101zM188 971q0 -66 26 -94.5t83 -28.5q125 0 168 90v172q-176 -6 -226.5 -31.5t-50.5 -107.5z" />
<glyph unicode="&#xab;" horiz-adv-x="763" d="M109 406l256 325l38 -33l-227 -288l238 -295l-37 -33zM317 410l250 321l41 -33l-225 -288l244 -295l-43 -33z" />
<glyph unicode="&#xac;" horiz-adv-x="1024" d="M68 428v139h886v-567h-153v428h-733z" />
<glyph unicode="&#xad;" horiz-adv-x="456" d="M0 360l39 99h418l-31 -99h-426z" />
<glyph unicode="&#xae;" horiz-adv-x="1570" d="M76 682q0 295 208 503t502.5 208t502.5 -208t208 -503t-208 -503t-503 -208q-293 0 -501.5 209t-208.5 502zM111 682q0 -281 198.5 -480.5t477 -199.5t477 199.5t198.5 480.5t-197.5 480.5t-478.5 199.5q-279 0 -477 -199.5t-198 -480.5zM365 272v35h122v752h-122v33h452 q133 0 208 -52.5t75 -144.5q0 -158 -217 -195q102 -23 142 -67.5t50 -157.5q0 -4 2 -32.5t4 -47t8.5 -43t17.5 -38t28 -13.5q18 0 61 14l10 -30q-51 -20 -114 -21q-84 0 -125 38t-49 126q-2 23 -7.5 70t-7.5 61t-11 44t-23.5 38t-39 22.5t-62.5 17.5t-91 3h-37v-377h131v-35 h-405zM639 713q61 0 102 4t93.5 19.5t80 53t27.5 95.5q0 96 -59.5 135t-210.5 39h-33v-346z" />
<glyph unicode="&#xb1;" d="M68 2v55h956v-55h-956zM68 657v56h450v477h53v-477h453v-56h-453v-477h-53v477h-450z" />
<glyph unicode="&#xb4;" horiz-adv-x="1024" d="M461 928l127 241q51 96 74.5 121t66.5 25q35 0 57.5 -17.5t22.5 -44.5q0 -31 -64 -92l-243 -233h-41z" />
<glyph unicode="&#xb8;" horiz-adv-x="1024" d="M307 -395l15 26q66 -33 149 -32q49 0 81 29.5t32 74.5q0 39 -28 62.5t-71 23.5q-33 0 -75 -22l-17 14l127 219h39l-113 -195q61 23 111 23q70 0 115 -35t45 -88q0 -63 -61.5 -105t-158 -42t-190.5 47z" />
<glyph unicode="&#xba;" horiz-adv-x="729" d="M0 608v68h729v-68h-729zM53 1095.5q0 116.5 102.5 205t221.5 88.5q115 0 207 -90.5t92 -202.5q0 -121 -92 -210t-219 -89q-121 0 -216.5 91t-95.5 207.5zM195 997q0 -90 39.5 -130t132.5 -40q94 0 131 37t37 131v193q0 92 -36 131t-122 39q-96 0 -139 -40t-43 -128v-193z " />
<glyph unicode="&#xbb;" horiz-adv-x="763" d="M137 115l242 295l-223 288l41 33l249 -321l-268 -328zM348 115l240 295l-230 288l41 33l256 -325l-268 -324z" />
<glyph unicode="&#xbf;" horiz-adv-x="798" d="M82 -203q0 72 11 123t49 103.5t59.5 75t91.5 83.5q18 18 29 27q25 25 88 70t91.5 87t28.5 109q0 37 -12 94l29 9q33 -125 33 -246q0 -156 -113 -236q-6 -4 -50 -34.5t-57.5 -41t-51.5 -41t-54 -48t-43 -49.5t-38 -56.5t-21.5 -58t-10.5 -66.5q0 -86 79 -146.5t192 -60.5 q61 0 139 33t78 84q0 23 -29 27q-29 6 -41 10t-30.5 14t-25.5 27.5t-7 44.5q0 39 25.5 65.5t64.5 26.5q47 0 77.5 -39t30.5 -98q0 -94 -83 -161t-197 -67q-150 0 -241 92.5t-91 243.5zM434 782q0 39 26.5 65.5t65.5 26.5t65.5 -26.5t26.5 -65.5t-26.5 -65.5t-65.5 -26.5 t-65.5 26.5t-26.5 65.5z" />
<glyph unicode="&#xc0;" horiz-adv-x="1363" d="M-6 0v35q117 0 146.5 21.5t70.5 133.5l430 1196h29l514 -1351h174v-35h-596v35h205l-158 411h-467l-94 -260q-25 -74 -25 -92q0 -59 137 -59h64v-35h-430zM330 1774q0 27 22.5 44t57.5 17q43 0 67.5 -25.5t73.5 -119.5l127 -242h-41l-244 233q-63 61 -63 93zM354 481h443 l-228 606z" />
<glyph unicode="&#xc1;" horiz-adv-x="1363" d="M-6 0v35q117 0 146.5 21.5t70.5 133.5l430 1196h29l514 -1351h174v-35h-596v35h205l-158 411h-467l-94 -260q-25 -74 -25 -92q0 -59 137 -59h64v-35h-430zM354 481h443l-228 606zM645 1448l127 242q51 96 74.5 120.5t66.5 24.5q35 0 57.5 -17.5t22.5 -43.5q0 -31 -63 -93 l-244 -233h-41z" />
<glyph unicode="&#xc2;" horiz-adv-x="1363" d="M-6 0v35q117 0 146.5 21.5t70.5 133.5l430 1196h29l514 -1351h174v-35h-596v35h205l-158 411h-467l-94 -260q-25 -74 -25 -92q0 -59 137 -59h64v-35h-430zM354 481h443l-228 606zM387 1450l209 385h131l211 -385h-37l-244 250l-233 -250h-37z" />
<glyph unicode="&#xc3;" horiz-adv-x="1363" d="M-6 0v35q117 0 146.5 21.5t70.5 133.5l430 1196h29l514 -1351h174v-35h-596v35h205l-158 411h-467l-94 -260q-25 -74 -25 -92q0 -59 137 -59h64v-35h-430zM354 481h443l-228 606zM358 1530q23 104 73 161.5t120 57.5q57 0 158.5 -47t156.5 -47q35 0 56.5 20.5t48.5 81.5 h35q-63 -223 -203 -223q-57 0 -157.5 48t-149.5 48q-72 0 -103 -100h-35z" />
<glyph unicode="&#xc4;" horiz-adv-x="1363" d="M-6 0v35q117 0 146.5 21.5t70.5 133.5l430 1196h29l514 -1351h174v-35h-596v35h205l-158 411h-467l-94 -260q-25 -74 -25 -92q0 -59 137 -59h64v-35h-430zM354 481h443l-228 606zM381 1642.5q0 38.5 27.5 65.5t66.5 27t65.5 -27t26.5 -65.5t-26.5 -66.5t-65.5 -28 t-66.5 28t-27.5 66.5zM737 1640.5q0 38.5 27 66.5t65.5 28t65.5 -28t27 -66.5t-27 -65.5t-65.5 -27t-65.5 27t-27 65.5z" />
<glyph unicode="&#xc5;" horiz-adv-x="1363" d="M-6 0v35q117 0 146.5 21.5t70.5 133.5l430 1196h29l514 -1351h174v-35h-596v35h205l-158 411h-467l-94 -260q-25 -74 -25 -92q0 -59 137 -59h64v-35h-430zM354 481h443l-228 606zM465 1665q0 78 56.5 134t134 56t134 -56t56.5 -134t-56.5 -134t-134 -56t-134 56 t-56.5 134zM516 1665q0 -57 41 -98t98.5 -41t98.5 41t41 98t-41 98t-98.5 41t-98.5 -40t-41 -99z" />
<glyph unicode="&#xc6;" horiz-adv-x="1816" d="M-55 0v35q131 0 185 31.5t116 146.5l596 1118h-215v35h1015l33 -334h-35q0 164 -98 240q-84 59 -293 59h-184v-620q182 0 249.5 43t67.5 204h33v-516h-33q0 84 -11 131.5t-47 70t-74 27.5t-117 5h-68v-641h178q125 0 201 11t144.5 48t99 113t30.5 196h35v-403h-1110v35 h223v411h-458l-113 -210q-63 -121 -64 -154q0 -47 129 -47h64v-35q-213 4 -236 4q-30 0 -243 -4zM424 481h442v826z" />
<glyph unicode="&#xc7;" horiz-adv-x="1312" d="M74 672q0 295 189.5 504.5t457.5 209.5q82 0 163 -33.5t137 -68.5t79 -35q51 0 63 82h33l-6 -164l6 -219v-28h-33q-14 182 -141 309t-309 127q-86 0 -155 -31t-112 -87t-73.5 -122.5t-45 -149.5t-20.5 -154t-6 -148q0 -655 404 -656q143 0 264 87t168 220q25 68 26 172 h33q-6 -168 -6 -258q0 -51 6 -204h-33q-2 43 -22.5 69.5t-48.5 26.5q-23 0 -70 -33t-125 -68.5t-174 -42.5l-100 -172q61 23 110 23q72 0 117 -35t45 -88q0 -66 -62.5 -106.5t-158.5 -40.5q-92 0 -191 47l15 26q66 -33 151 -32q47 0 79 29.5t32 74.5q0 39 -27.5 62.5 t-70.5 23.5q-33 0 -74 -22l-17 14l113 196q-272 10 -441 214t-169 481z" />
<glyph unicode="&#xc8;" horiz-adv-x="1327" d="M35 0v35h198v1296h-198v35h1124l33 -334h-33q-20 119 -43.5 166t-81.5 78q-98 55 -366 55h-236v-620h82q166 0 240.5 43t74.5 139v63h35v-514h-35v70q0 100 -64.5 134t-252.5 34h-80v-645h258q178 0 269.5 16.5t156.5 59.5q53 35 80 85t31 89t4 116h33v-401h-1229z M285 1774q0 27 22.5 44t57.5 17q43 0 67.5 -25.5t73.5 -119.5l127 -242h-41l-244 233q-63 61 -63 93z" />
<glyph unicode="&#xc9;" horiz-adv-x="1327" d="M35 0v35h198v1296h-198v35h1124l33 -334h-33q-20 119 -43.5 166t-81.5 78q-98 55 -366 55h-236v-620h82q166 0 240.5 43t74.5 139v63h35v-514h-35v70q0 100 -64.5 134t-252.5 34h-80v-645h258q178 0 269.5 16.5t156.5 59.5q53 35 80 85t31 89t4 116h33v-401h-1229z M381 1448l127 242q51 96 74.5 120.5t66.5 24.5q35 0 57.5 -17.5t22.5 -43.5q0 -31 -63 -93l-244 -233h-41z" />
<glyph unicode="&#xca;" horiz-adv-x="1327" d="M35 0v35h198v1296h-198v35h1124l33 -334h-33q-20 119 -43.5 166t-81.5 78q-98 55 -366 55h-236v-620h82q166 0 240.5 43t74.5 139v63h35v-514h-35v70q0 100 -64.5 134t-252.5 34h-80v-645h258q178 0 269.5 16.5t156.5 59.5q53 35 80 85t31 89t4 116h33v-401h-1229z M389 1450l209 385h131l211 -385h-37l-244 250l-233 -250h-37z" />
<glyph unicode="&#xcb;" horiz-adv-x="1327" d="M35 0v35h198v1296h-198v35h1124l33 -334h-33q-20 119 -43.5 166t-81.5 78q-98 55 -366 55h-236v-620h82q166 0 240.5 43t74.5 139v63h35v-514h-35v70q0 100 -64.5 134t-252.5 34h-80v-645h258q178 0 269.5 16.5t156.5 59.5q53 35 80 85t31 89t4 116h33v-401h-1229z M393 1642.5q0 38.5 28 65.5t66.5 27t65.5 -27t27 -65.5t-27 -66.5t-65.5 -28t-66.5 28t-28 66.5zM750 1640.5q0 38.5 26.5 66.5t65.5 28t65.5 -28t26.5 -66.5t-26.5 -65.5t-65.5 -27t-65.5 27t-26.5 65.5z" />
<glyph unicode="&#xcc;" horiz-adv-x="684" d="M41 0v35h199v1296h-199v35h602v-35h-199v-1296h199v-35h-602zM47 1774q0 27 22.5 44t57.5 17q43 0 67.5 -25.5t73.5 -119.5l127 -242h-41l-243 233q-63 61 -64 93z" />
<glyph unicode="&#xcd;" horiz-adv-x="684" d="M41 0v35h199v1296h-199v35h602v-35h-199v-1296h199v-35h-602zM285 1448l127 242q51 96 74.5 120.5t66.5 24.5q35 0 57.5 -17.5t22.5 -43.5q0 -31 -64 -93l-243 -233h-41z" />
<glyph unicode="&#xce;" horiz-adv-x="684" d="M41 0v35h199v1296h-199v35h602v-35h-199v-1296h199v-35h-602zM68 1450l208 385h132l210 -385h-36l-244 250l-234 -250h-36z" />
<glyph unicode="&#xcf;" horiz-adv-x="684" d="M41 0v35h199v1296h-199v35h602v-35h-199v-1296h199v-35h-602zM72 1642.5q0 38.5 27.5 65.5t66.5 27t65.5 -27t26.5 -65.5t-26.5 -66.5t-65.5 -28t-66.5 28t-27.5 66.5zM428 1640.5q0 38.5 26.5 66.5t65.5 28t65.5 -28t26.5 -66.5t-26.5 -65.5t-65.5 -27t-65.5 27 t-26.5 65.5z" />
<glyph unicode="&#xd0;" horiz-adv-x="1468" d="M33 0v35h198v657h-182v35h182v604h-198v35h504q47 0 104 -1t70 -1q293 -6 487.5 -199.5t194.5 -484.5q0 -229 -121 -404.5t-318 -234.5q-94 -29 -152.5 -35t-234.5 -6h-534zM432 35q10 0 26.5 -1t26.5 -1q160 0 246 13t166 52q270 125 270 582q0 639 -608 651h-127v-604 h301v-35h-301v-657z" />
<glyph unicode="&#xd1;" horiz-adv-x="1484" d="M20 0v35h68q82 0 102.5 24.5t28.5 106.5v86v1055l-37 24h-162v35h424l797 -1008v803q0 82 -4 110.5t-20 41.5q-20 18 -125 18h-60v35h438v-35h-57q-102 0 -121 -22q-14 -16 -17 -40t-3 -108v-1171h-12l-1008 1280v-1018v-91t10 -59.5t18.5 -39t39 -18.5t57 -9h88.5v-35 h-445zM418 1530q23 104 73 161.5t119 57.5q57 0 158.5 -47t157.5 -47q35 0 56 20.5t48 81.5h35q-63 -223 -203 -223q-57 0 -157.5 48t-149.5 48q-72 0 -102 -100h-35z" />
<glyph unicode="&#xd2;" horiz-adv-x="1427" d="M76 678q0 309 211 518q94 92 206.5 145.5t217.5 53.5q256 0 448.5 -214t192.5 -499q0 -287 -190.5 -497t-452.5 -210q-250 0 -441.5 213.5t-191.5 489.5zM303 684q0 -678 412 -678q410 0 409 678q0 330 -105 504t-304 174q-201 0 -306.5 -174t-105.5 -504zM403 1776 q0 27 23 44t57 17q43 0 67.5 -25.5t74.5 -119.5l127 -242h-41l-244 233q-63 61 -64 93z" />
<glyph unicode="&#xd3;" horiz-adv-x="1427" d="M76 678q0 309 211 518q94 92 206.5 145.5t217.5 53.5q256 0 448.5 -214t192.5 -499q0 -287 -190.5 -497t-452.5 -210q-250 0 -441.5 213.5t-191.5 489.5zM303 684q0 -678 412 -678q410 0 409 678q0 330 -105 504t-304 174q-201 0 -306.5 -174t-105.5 -504zM676 1450 l127 242q51 96 74.5 120.5t66.5 24.5q35 0 57.5 -17.5t22.5 -43.5q0 -31 -63 -93l-244 -233h-41z" />
<glyph unicode="&#xd4;" horiz-adv-x="1427" d="M76 678q0 309 211 518q94 92 206.5 145.5t217.5 53.5q256 0 448.5 -214t192.5 -499q0 -287 -190.5 -497t-452.5 -210q-250 0 -441.5 213.5t-191.5 489.5zM303 684q0 -678 412 -678q410 0 409 678q0 330 -105 504t-304 174q-201 0 -306.5 -174t-105.5 -504zM438 1452 l209 385h131l211 -385h-37l-243 250l-234 -250h-37z" />
<glyph unicode="&#xd5;" horiz-adv-x="1427" d="M76 678q0 309 211 518q94 92 206.5 145.5t217.5 53.5q256 0 448.5 -214t192.5 -499q0 -287 -190.5 -497t-452.5 -210q-250 0 -441.5 213.5t-191.5 489.5zM303 684q0 -678 412 -678q410 0 409 678q0 330 -105 504t-304 174q-201 0 -306.5 -174t-105.5 -504zM389 1530 q23 104 73 161.5t120 57.5q57 0 158.5 -47t156.5 -47q35 0 56 20.5t48 81.5h35q-63 -223 -202 -223q-57 0 -158 48t-150 48q-72 0 -102 -100h-35z" />
<glyph unicode="&#xd6;" horiz-adv-x="1427" d="M76 678q0 309 211 518q94 92 206.5 145.5t217.5 53.5q256 0 448.5 -214t192.5 -499q0 -287 -190.5 -497t-452.5 -210q-250 0 -441.5 213.5t-191.5 489.5zM303 684q0 -678 412 -678q410 0 409 678q0 330 -105 504t-304 174q-201 0 -306.5 -174t-105.5 -504zM444 1644.5 q0 38.5 28 65.5t67 27t65.5 -27t26.5 -65.5t-26.5 -66.5t-65.5 -28t-67 28t-28 66.5zM801 1642.5q0 38.5 26.5 66.5t65.5 28t65.5 -28t26.5 -66.5t-26.5 -65.5t-65.5 -27t-65.5 27t-26.5 65.5z" />
<glyph unicode="&#xd8;" horiz-adv-x="1415" d="M76 678q0 287 180 487q92 102 213 163t236 61q57 0 117.5 -17.5t97 -35t106.5 -54.5l74 125l30 -18l-73 -127q285 -240 284 -584q0 -281 -192.5 -493t-446.5 -212q-158 0 -321 111l-78 -133l-33 18l78 140q-131 106 -201.5 253.5t-70.5 315.5zM297 702q0 -324 102 -507 l588 1022q-61 78 -126.5 111.5t-155.5 33.5q-408 0 -408 -660zM424 158q104 -154 295 -154q195 0 295 172t100 504q0 324 -104 500z" />
<glyph unicode="&#xd9;" horiz-adv-x="1476" d="M14 1331v35h615v-35h-215v-915q0 -150 19.5 -211.5t82.5 -110.5q115 -86 297 -86q279 0 385 191q47 86 47 260v704q0 106 -24.5 137t-114.5 31h-98v35h471v-35h-84q-72 0 -93.5 -31.5t-21.5 -136.5v-698q0 -260 -124 -377t-390 -117q-358 0 -487 154q-41 49 -53.5 104.5 t-12.5 196.5v905h-199zM496 1774q0 27 22.5 44t56.5 17q43 0 68 -25.5t74 -119.5l127 -242h-41l-244 233q-63 61 -63 93z" />
<glyph unicode="&#xda;" horiz-adv-x="1476" d="M14 1331v35h615v-35h-215v-915q0 -150 19.5 -211.5t82.5 -110.5q115 -86 297 -86q279 0 385 191q47 86 47 260v704q0 106 -24.5 137t-114.5 31h-98v35h471v-35h-84q-72 0 -93.5 -31.5t-21.5 -136.5v-698q0 -260 -124 -377t-390 -117q-358 0 -487 154q-41 49 -53.5 104.5 t-12.5 196.5v905h-199zM770 1448l127 242q51 96 74.5 120.5t66.5 24.5q35 0 57.5 -17.5t22.5 -43.5q0 -31 -63 -93l-244 -233h-41z" />
<glyph unicode="&#xdb;" horiz-adv-x="1476" d="M14 1331v35h615v-35h-215v-915q0 -150 19.5 -211.5t82.5 -110.5q115 -86 297 -86q279 0 385 191q47 86 47 260v704q0 106 -24.5 137t-114.5 31h-98v35h471v-35h-84q-72 0 -93.5 -31.5t-21.5 -136.5v-698q0 -260 -124 -377t-390 -117q-358 0 -487 154q-41 49 -53.5 104.5 t-12.5 196.5v905h-199zM547 1450l209 385h131l211 -385h-37l-244 250l-233 -250h-37z" />
<glyph unicode="&#xdc;" horiz-adv-x="1476" d="M14 1331v35h615v-35h-215v-915q0 -150 19.5 -211.5t82.5 -110.5q115 -86 297 -86q279 0 385 191q47 86 47 260v704q0 106 -24.5 137t-114.5 31h-98v35h471v-35h-84q-72 0 -93.5 -31.5t-21.5 -136.5v-698q0 -260 -124 -377t-390 -117q-358 0 -487 154q-41 49 -53.5 104.5 t-12.5 196.5v905h-199zM551 1642.5q0 38.5 27.5 65.5t66.5 27t65.5 -27t26.5 -65.5t-26.5 -66.5t-65.5 -28t-66.5 28t-27.5 66.5zM907 1640.5q0 38.5 27 66.5t65.5 28t65.5 -28t27 -66.5t-27 -65.5t-65.5 -27t-65.5 27t-27 65.5z" />
<glyph unicode="&#xdd;" horiz-adv-x="1218" d="M-49 1331v35h602v-35h-186l342 -743l247 518q61 131 62 172q0 53 -100 53h-89v35h437v-35h-68q-63 0 -90 -23.5t-72 -117.5l-311 -649v-506h213v-35h-625v35h211v459l-393 837h-180zM637 1448l127 242q51 96 74.5 120.5t66.5 24.5q35 0 57.5 -17.5t22.5 -43.5 q0 -31 -63 -93l-244 -233h-41z" />
<glyph unicode="&#xde;" horiz-adv-x="1259" d="M35 0v35h198v1296h-198v35h606v-35h-209v-157h172q588 0 588 -386q0 -166 -150.5 -271t-386.5 -105q-123 0 -223 37v-414h211v-35h-608zM432 487q53 -27 86 -34t100 -7q168 0 264.5 88.5t96.5 239.5q0 207 -121 288t-340 81q-45 0 -86 -2v-654z" />
<glyph unicode="&#xdf;" horiz-adv-x="1206" d="M35 0v33h158v725h-158v33h158v61q0 252 135 413.5t344 161.5q150 0 250 -80.5t100 -201.5q0 -76 -38 -144.5t-85 -110.5t-85 -89t-38 -82q0 -37 40 -61.5t97.5 -46t115.5 -51.5t98 -91t40 -152q0 -150 -91 -246t-234 -96q-109 0 -177.5 57.5t-68.5 147.5q0 53 26.5 88 t69.5 35q37 0 62.5 -24.5t25.5 -59.5q0 -37 -24.5 -56.5t-49 -32.5t-24.5 -34q0 -35 52 -62.5t118 -27.5q100 0 170 62.5t70 152.5q0 88 -63.5 143.5t-139.5 76t-139.5 62.5t-63.5 107q0 59 38 122t84 111t84 129t38 171q0 121 -69.5 186.5t-198.5 65.5q-170 0 -238 -104.5 t-68 -286.5v-971h162v-33h-483z" />
<glyph unicode="&#xe0;" horiz-adv-x="999" d="M68 180q0 88 64.5 149.5t170 87t190.5 35t173 9.5v194q0 88 -42 120t-161 32q-96 0 -155.5 -27.5t-59.5 -70.5q0 -12 31.5 -41t31.5 -62q0 -39 -23.5 -63.5t-62.5 -24.5q-41 0 -66.5 27.5t-25.5 70.5q0 90 97.5 156t230.5 66q156 0 272 -74q57 -33 75.5 -66.5t18.5 -97.5 v-352l4 -115q2 -57 13.5 -78.5t42.5 -21.5q49 0 96 76l27 -15q-59 -106 -166 -106q-150 0 -172 129q-86 -135 -301 -135q-139 0 -221 53t-82 145zM215 1255q0 27 22.5 44.5t57.5 17.5q43 0 67.5 -25.5t73.5 -120.5l127 -241h-41l-243 233q-63 61 -64 92zM250 215 q0 -100 38 -144t126 -44q86 0 154.5 37.5t97.5 101.5v264h-15q-260 0 -346 -63q-55 -41 -55 -152z" />
<glyph unicode="&#xe1;" horiz-adv-x="999" d="M68 180q0 88 64.5 149.5t170 87t190.5 35t173 9.5v194q0 88 -42 120t-161 32q-96 0 -155.5 -27.5t-59.5 -70.5q0 -12 31.5 -41t31.5 -62q0 -39 -23.5 -63.5t-62.5 -24.5q-41 0 -66.5 27.5t-25.5 70.5q0 90 97.5 156t230.5 66q156 0 272 -74q57 -33 75.5 -66.5t18.5 -97.5 v-352l4 -115q2 -57 13.5 -78.5t42.5 -21.5q49 0 96 76l27 -15q-59 -106 -166 -106q-150 0 -172 129q-86 -135 -301 -135q-139 0 -221 53t-82 145zM250 215q0 -100 38 -144t126 -44q86 0 154.5 37.5t97.5 101.5v264h-15q-260 0 -346 -63q-55 -41 -55 -152zM406 930l126 241 q51 96 75 121t67 25q35 0 57.5 -17.5t22.5 -44.5q0 -31 -64 -92l-244 -233h-40z" />
<glyph unicode="&#xe2;" horiz-adv-x="999" d="M68 180q0 88 64.5 149.5t170 87t190.5 35t173 9.5v194q0 88 -42 120t-161 32q-96 0 -155.5 -27.5t-59.5 -70.5q0 -12 31.5 -41t31.5 -62q0 -39 -23.5 -63.5t-62.5 -24.5q-41 0 -66.5 27.5t-25.5 70.5q0 90 97.5 156t230.5 66q156 0 272 -74q57 -33 75.5 -66.5t18.5 -97.5 v-352l4 -115q2 -57 13.5 -78.5t42.5 -21.5q49 0 96 76l27 -15q-59 -106 -166 -106q-150 0 -172 129q-86 -135 -301 -135q-139 0 -221 53t-82 145zM223 930l209 385h131l211 -385h-37l-243 250l-234 -250h-37zM250 215q0 -100 38 -144t126 -44q86 0 154.5 37.5t97.5 101.5 v264h-15q-260 0 -346 -63q-55 -41 -55 -152z" />
<glyph unicode="&#xe3;" horiz-adv-x="999" d="M68 180q0 88 64.5 149.5t170 87t190.5 35t173 9.5v194q0 88 -42 120t-161 32q-96 0 -155.5 -27.5t-59.5 -70.5q0 -12 31.5 -41t31.5 -62q0 -39 -23.5 -63.5t-62.5 -24.5q-41 0 -66.5 27.5t-25.5 70.5q0 90 97.5 156t230.5 66q156 0 272 -74q57 -33 75.5 -66.5t18.5 -97.5 v-352l4 -115q2 -57 13.5 -78.5t42.5 -21.5q49 0 96 76l27 -15q-59 -106 -166 -106q-150 0 -172 129q-86 -135 -301 -135q-139 0 -221 53t-82 145zM203 1001q23 104 73 162t119 58q57 0 158.5 -47.5t157.5 -47.5q35 0 56 21t48 82h35q-63 -223 -203 -223q-57 0 -157.5 48 t-149.5 48q-72 0 -102 -101h-35zM250 215q0 -100 38 -144t126 -44q86 0 154.5 37.5t97.5 101.5v264h-15q-260 0 -346 -63q-55 -41 -55 -152z" />
<glyph unicode="&#xe4;" horiz-adv-x="999" d="M68 180q0 88 64.5 149.5t170 87t190.5 35t173 9.5v194q0 88 -42 120t-161 32q-96 0 -155.5 -27.5t-59.5 -70.5q0 -12 31.5 -41t31.5 -62q0 -39 -23.5 -63.5t-62.5 -24.5q-41 0 -66.5 27.5t-25.5 70.5q0 90 97.5 156t230.5 66q156 0 272 -74q57 -33 75.5 -66.5t18.5 -97.5 v-352l4 -115q2 -57 13.5 -78.5t42.5 -21.5q49 0 96 76l27 -15q-59 -106 -166 -106q-150 0 -172 129q-86 -135 -301 -135q-139 0 -221 53t-82 145zM227 1112q0 39 28 65.5t66.5 26.5t65.5 -26.5t27 -65.5t-27 -66.5t-65.5 -27.5t-66.5 27.5t-28 66.5zM250 215q0 -100 38 -144 t126 -44q86 0 154.5 37.5t97.5 101.5v264h-15q-260 0 -346 -63q-55 -41 -55 -152zM584 1110q0 39 26.5 66.5t65.5 27.5t65.5 -27.5t26.5 -66.5t-26.5 -65.5t-65.5 -26.5t-65.5 26.5t-26.5 65.5z" />
<glyph unicode="&#xe5;" horiz-adv-x="999" d="M68 180q0 88 64.5 149.5t170 87t190.5 35t173 9.5v194q0 88 -42 120t-161 32q-96 0 -155.5 -27.5t-59.5 -70.5q0 -12 31.5 -41t31.5 -62q0 -39 -23.5 -63.5t-62.5 -24.5q-41 0 -66.5 27.5t-25.5 70.5q0 90 97.5 156t230.5 66q156 0 272 -74q57 -33 75.5 -66.5t18.5 -97.5 v-352l4 -115q2 -57 13.5 -78.5t42.5 -21.5q49 0 96 76l27 -15q-59 -106 -166 -106q-150 0 -172 129q-86 -135 -301 -135q-139 0 -221 53t-82 145zM250 215q0 -100 38 -144t126 -44q86 0 154.5 37.5t97.5 101.5v264h-15q-260 0 -346 -63q-55 -41 -55 -152zM281 1118 q0 78 56 134.5t134 56.5t134.5 -56.5t56.5 -134.5t-56.5 -134t-134.5 -56t-134 56t-56 134zM332 1118.5q0 -57.5 41 -98.5t98 -41t98 41t41 98.5t-41 98t-98 40.5t-98 -40.5t-41 -98z" />
<glyph unicode="&#xe6;" horiz-adv-x="1456" d="M68 188q0 88 61 146.5t162.5 83t180.5 33t167 8.5l-2 155q-2 125 -35 160t-149 35q-88 0 -147.5 -27.5t-59.5 -68.5q0 -18 32.5 -47t32.5 -62q0 -39 -23.5 -63.5t-60.5 -24.5q-39 0 -66.5 29.5t-27.5 72.5q0 94 95.5 157t240.5 63q195 0 289 -101q111 100 256 101 q143 0 260 -101.5t131 -244.5q0 -18 -14 -19h-43h-533l-4 -162q0 -150 50 -227.5t190 -77.5q125 0 218 76t120 197l32 -9q-74 -295 -401 -295q-285 0 -361 138q-98 -133 -301 -133q-139 0 -214.5 54t-75.5 154zM248 213q0 -100 37 -145t121 -45q125 0 179 43t54 139v223h-43 q-225 0 -297 -63q-51 -43 -51 -152zM815 506h324h53l10 2q4 4 4 37q0 147 -42 205.5t-150 58.5q-68 0 -110 -23.5t-60.5 -71.5t-23.5 -92t-5 -116z" />
<glyph unicode="&#xe7;" horiz-adv-x="851" d="M61 358q0 190 142.5 330.5t333.5 140.5q115 0 195.5 -55t80.5 -131q0 -41 -26.5 -67.5t-67.5 -26.5q-33 0 -59.5 28.5t-26.5 65.5q0 41 24 70q23 23 23 32q0 53 -164 54q-154 0 -210 -78t-56 -291v-92q0 -186 54 -260t189.5 -74t220.5 70.5t109 201.5h29 q-18 -145 -108.5 -219.5t-239.5 -81.5l-101 -172q66 23 113 23q70 0 115 -35t45 -88q0 -63 -61.5 -105t-158 -42t-190.5 47l13 26q70 -33 151 -32q47 0 80 29.5t33 74.5q0 39 -28 62.5t-71 23.5q-35 0 -75 -23l-17 15l113 196q-152 16 -238 80q-76 53 -121 136t-45 167z" />
<glyph unicode="&#xe8;" horiz-adv-x="901" d="M61 393q0 174 124 309.5t282 135.5q109 0 203 -65.5t147 -176.5q35 -82 35 -104q0 -12 -25 -13h-575q0 -25 -2 -76t-2 -75q0 -156 46 -239t189 -83q261 1 353 273l32 -7q-33 -137 -135 -218t-244 -81q-176 0 -302 124t-126 296zM195 1253q0 27 22.5 44.5t56.5 17.5 q43 0 68 -25.5t74 -120.5l127 -241h-41l-244 233q-63 61 -63 92zM252 514h373q20 0 25 3t5 18q0 59 -7 102t-25.5 85t-59.5 64.5t-100 22.5q-55 0 -94 -16.5t-59.5 -40t-34 -67.5t-17.5 -79t-6 -92z" />
<glyph unicode="&#xe9;" horiz-adv-x="901" d="M61 393q0 174 124 309.5t282 135.5q109 0 203 -65.5t147 -176.5q35 -82 35 -104q0 -12 -25 -13h-575q0 -25 -2 -76t-2 -75q0 -156 46 -239t189 -83q261 1 353 273l32 -7q-33 -137 -135 -218t-244 -81q-176 0 -302 124t-126 296zM252 514h373q20 0 25 3t5 18q0 59 -7 102 t-25.5 85t-59.5 64.5t-100 22.5q-55 0 -94 -16.5t-59.5 -40t-34 -67.5t-17.5 -79t-6 -92zM399 928l127 241q51 96 75 121t67 25q35 0 57.5 -17.5t22.5 -44.5q0 -31 -64 -92l-244 -233h-41z" />
<glyph unicode="&#xea;" horiz-adv-x="901" d="M61 393q0 174 124 309.5t282 135.5q109 0 203 -65.5t147 -176.5q35 -82 35 -104q0 -12 -25 -13h-575q0 -25 -2 -76t-2 -75q0 -156 46 -239t189 -83q261 1 353 273l32 -7q-33 -137 -135 -218t-244 -81q-176 0 -302 124t-126 296zM176 928l209 385h131l211 -385h-37 l-244 250l-233 -250h-37zM252 514h373q20 0 25 3t5 18q0 59 -7 102t-25.5 85t-59.5 64.5t-100 22.5q-55 0 -94 -16.5t-59.5 -40t-34 -67.5t-17.5 -79t-6 -92z" />
<glyph unicode="&#xeb;" horiz-adv-x="901" d="M61 393q0 174 124 309.5t282 135.5q109 0 203 -65.5t147 -176.5q35 -82 35 -104q0 -12 -25 -13h-575q0 -25 -2 -76t-2 -75q0 -156 46 -239t189 -83q261 1 353 273l32 -7q-33 -137 -135 -218t-244 -81q-176 0 -302 124t-126 296zM180 1112q0 39 28 65.5t66.5 26.5 t65.5 -26.5t27 -65.5t-27 -66.5t-65.5 -27.5t-66.5 27.5t-28 66.5zM252 514h373q20 0 25 3t5 18q0 59 -7 102t-25.5 85t-59.5 64.5t-100 22.5q-55 0 -94 -16.5t-59.5 -40t-34 -67.5t-17.5 -79t-6 -92zM537 1110q0 39 26.5 66.5t65.5 27.5t65.5 -27.5t26.5 -66.5t-26.5 -65.5 t-65.5 -26.5t-65.5 26.5t-26.5 65.5z" />
<glyph unicode="&#xec;" horiz-adv-x="528" d="M-33 1253q0 27 22.5 44.5t57.5 17.5q43 0 67.5 -25.5t73.5 -120.5l127 -241h-41l-243 233q-63 61 -64 92zM35 0v35h158v723h-156v35h192q57 0 83 12t46 49v-819h158v-35h-481z" />
<glyph unicode="&#xed;" horiz-adv-x="528" d="M35 0v35h158v723h-156v35h192q57 0 83 12t46 49v-819h158v-35h-481zM213 928l127 241q51 96 74.5 121t66.5 25q35 0 57.5 -17.5t22.5 -44.5q0 -31 -63 -92l-244 -233h-41z" />
<glyph unicode="&#xee;" horiz-adv-x="528" d="M-10 928l209 385h131l211 -385h-37l-244 250l-233 -250h-37zM35 0v35h158v723h-156v35h192q57 0 83 12t46 49v-819h158v-35h-481z" />
<glyph unicode="&#xef;" horiz-adv-x="528" d="M-6 1112q0 39 27.5 65.5t66.5 26.5t65.5 -26.5t26.5 -65.5t-26.5 -66.5t-65.5 -27.5t-66.5 27.5t-27.5 66.5zM35 0v35h158v723h-156v35h192q57 0 83 12t46 49v-819h158v-35h-481zM350 1110q0 39 26.5 66.5t65.5 27.5t66 -27.5t27 -66.5t-27 -65.5t-66 -26.5t-65.5 26.5 t-26.5 65.5z" />
<glyph unicode="&#xf0;" horiz-adv-x="1011" d="M61 1360l9 22q174 -41 342 -133l270 174l20 -28l-260 -168q244 -152 376 -360t132 -437q0 -188 -127 -321.5t-305 -133.5q-184 0 -319.5 130.5t-135.5 306.5q0 166 146.5 294t314.5 128q94 0 205 -64q-86 244 -330 430l-268 -176l-18 29l258 168q-146 94 -310 139z M252 537l2 -271q0 -143 61.5 -202.5t208.5 -59.5q131 0 184.5 59.5t53.5 200.5v285q0 135 -56.5 194.5t-183.5 59.5q-145 0 -207.5 -61.5t-62.5 -204.5z" />
<glyph unicode="&#xf1;" horiz-adv-x="1126" d="M35 0v35h158v723h-158v35h194q55 0 82 11t45 44v-217q102 197 340 196q274 0 275 -264v-528h157v-35h-483v35h158v596q0 88 -31 125t-102 37q-100 0 -187.5 -63.5t-126.5 -166.5v-528h160v-35h-481zM268 999q23 104 73 162t120 58q57 0 158.5 -47.5t156.5 -47.5 q35 0 56.5 21t48.5 82h34q-63 -223 -202 -223q-57 0 -157.5 48t-149.5 48q-72 0 -103 -101h-35z" />
<glyph unicode="&#xf2;" horiz-adv-x="1009" d="M61 407.5q0 167.5 146.5 297t316.5 129.5q164 0 294 -130.5t130 -293.5q0 -176 -131 -305.5t-309 -129.5q-174 0 -310.5 132.5t-136.5 300zM209 1253q0 27 22.5 44.5t57.5 17.5q43 0 67.5 -25.5t73.5 -120.5l127 -241h-41l-244 233q-63 61 -63 92zM252 264 q0 -137 60.5 -198.5t197.5 -61.5q139 0 195.5 57.5t56.5 198.5v285q0 139 -55.5 199.5t-182.5 60.5q-143 0 -207.5 -61.5t-64.5 -194.5v-285z" />
<glyph unicode="&#xf3;" horiz-adv-x="1009" d="M61 407.5q0 167.5 146.5 297t316.5 129.5q164 0 294 -130.5t130 -293.5q0 -176 -131 -305.5t-309 -129.5q-174 0 -310.5 132.5t-136.5 300zM252 264q0 -137 60.5 -198.5t197.5 -61.5q139 0 195.5 57.5t56.5 198.5v285q0 139 -55.5 199.5t-182.5 60.5q-143 0 -207.5 -61.5 t-64.5 -194.5v-285zM455 928l127 241q51 96 74.5 121t66.5 25q35 0 57.5 -17.5t22.5 -44.5q0 -31 -64 -92l-243 -233h-41z" />
<glyph unicode="&#xf4;" horiz-adv-x="1009" d="M61 407.5q0 167.5 146.5 297t316.5 129.5q164 0 294 -130.5t130 -293.5q0 -176 -131 -305.5t-309 -129.5q-174 0 -310.5 132.5t-136.5 300zM229 928l209 385h131l211 -385h-37l-243 250l-234 -250h-37zM252 264q0 -137 60.5 -198.5t197.5 -61.5q139 0 195.5 57.5 t56.5 198.5v285q0 139 -55.5 199.5t-182.5 60.5q-143 0 -207.5 -61.5t-64.5 -194.5v-285z" />
<glyph unicode="&#xf5;" horiz-adv-x="1009" d="M61 407.5q0 167.5 146.5 297t316.5 129.5q164 0 294 -130.5t130 -293.5q0 -176 -131 -305.5t-309 -129.5q-174 0 -310.5 132.5t-136.5 300zM209 999q23 104 73 162t119 58q57 0 159 -47.5t157 -47.5q35 0 56 21t48 82h35q-63 -223 -203 -223q-57 0 -157.5 48t-149.5 48 q-72 0 -102 -101h-35zM252 264q0 -137 60.5 -198.5t197.5 -61.5q139 0 195.5 57.5t56.5 198.5v285q0 139 -55.5 199.5t-182.5 60.5q-143 0 -207.5 -61.5t-64.5 -194.5v-285z" />
<glyph unicode="&#xf6;" horiz-adv-x="1009" d="M61 407.5q0 167.5 146.5 297t316.5 129.5q164 0 294 -130.5t130 -293.5q0 -176 -131 -305.5t-309 -129.5q-174 0 -310.5 132.5t-136.5 300zM236 1112q0 39 27.5 65.5t66.5 26.5t65.5 -26.5t26.5 -65.5t-26.5 -66.5t-65.5 -27.5t-66.5 27.5t-27.5 66.5zM252 264 q0 -137 60.5 -198.5t197.5 -61.5q139 0 195.5 57.5t56.5 198.5v285q0 139 -55.5 199.5t-182.5 60.5q-143 0 -207.5 -61.5t-64.5 -194.5v-285zM592 1110q0 39 26.5 66.5t65.5 27.5t65.5 -27.5t26.5 -66.5t-26.5 -65.5t-65.5 -26.5t-65.5 26.5t-26.5 65.5z" />
<glyph unicode="&#xf7;" d="M68 657v56h956v-56h-956zM469 383q0 31 22.5 53.5t53.5 22.5q33 0 54.5 -22.5t21.5 -53.5t-21.5 -53.5t-54.5 -22.5q-31 0 -53.5 22.5t-22.5 53.5zM469 987q0 31 22.5 53.5t53.5 22.5q33 0 54.5 -22.5t21.5 -53.5q0 -33 -21.5 -54.5t-54.5 -21.5q-31 0 -53.5 21.5 t-22.5 54.5z" />
<glyph unicode="&#xf8;" horiz-adv-x="1001" d="M61 397q0 168 136.5 299t310.5 131q104 0 221 -59l64 90l28 -20l-61 -93q180 -150 180 -339q0 -176 -130 -303.5t-312 -127.5q-115 0 -224 64l-69 -102l-29 20l70 102q-184 129 -185 338zM246 334q0 -160 33 -225l419 614q-72 84 -190 84q-154 0 -208 -87t-54 -253v-133z M301 78q70 -76 205 -76q154 0 201 82t47 244v139q0 162 -33 223z" />
<glyph unicode="&#xf9;" horiz-adv-x="1112" d="M0 758v35h223q43 0 60.5 9t40.5 42v-664q0 -94 32.5 -132t112.5 -38q121 0 214 94.5t93 214.5v439h-155v35h223q53 0 98 51v-809h156v-35h-322v190q-53 -115 -133 -166t-205 -51q-147 0 -227 86q-31 35 -42 73t-11 112v514h-158zM258 1253q0 27 22.5 44.5t57.5 17.5 q43 0 67.5 -25.5t73.5 -120.5l127 -241h-41l-243 233q-63 61 -64 92z" />
<glyph unicode="&#xfa;" horiz-adv-x="1112" d="M0 758v35h223q43 0 60.5 9t40.5 42v-664q0 -94 32.5 -132t112.5 -38q121 0 214 94.5t93 214.5v439h-155v35h223q53 0 98 51v-809h156v-35h-322v190q-53 -115 -133 -166t-205 -51q-147 0 -227 86q-31 35 -42 73t-11 112v514h-158zM504 928l127 241q51 96 74.5 121t66.5 25 q35 0 57.5 -17.5t22.5 -44.5q0 -31 -64 -92l-243 -233h-41z" />
<glyph unicode="&#xfb;" horiz-adv-x="1112" d="M0 758v35h223q43 0 60.5 9t40.5 42v-664q0 -94 32.5 -132t112.5 -38q121 0 214 94.5t93 214.5v439h-155v35h223q53 0 98 51v-809h156v-35h-322v190q-53 -115 -133 -166t-205 -51q-147 0 -227 86q-31 35 -42 73t-11 112v514h-158zM281 928l208 385h132l210 -385h-36 l-244 250l-234 -250h-36z" />
<glyph unicode="&#xfc;" horiz-adv-x="1112" d="M0 758v35h223q43 0 60.5 9t40.5 42v-664q0 -94 32.5 -132t112.5 -38q121 0 214 94.5t93 214.5v439h-155v35h223q53 0 98 51v-809h156v-35h-322v190q-53 -115 -133 -166t-205 -51q-147 0 -227 86q-31 35 -42 73t-11 112v514h-158zM285 1112q0 39 27.5 65.5t66.5 26.5 t65.5 -26.5t26.5 -65.5t-26.5 -66.5t-65.5 -27.5t-66.5 27.5t-27.5 66.5zM641 1110q0 39 26.5 66.5t65.5 27.5t65.5 -27.5t26.5 -66.5t-26.5 -65.5t-65.5 -26.5t-65.5 26.5t-26.5 65.5z" />
<glyph unicode="&#xfd;" horiz-adv-x="897" d="M-35 758v33h451v-33h-146l256 -596l164 405q39 98 39 133q0 57 -113 58h-81v33h395v-33h-64q-23 0 -39 -7.5t-28.5 -23.5t-18.5 -27.5t-17 -38t-15 -34.5l-252 -619q-18 -43 -42 -147.5t-43.5 -180t-69.5 -139t-122 -63.5q-47 0 -77.5 28.5t-30.5 73.5q0 37 25.5 64.5 t60.5 27.5q43 0 67.5 -25.5t24.5 -68.5q-2 -4 -2 -12q0 -16 14 -17q53 0 137 390l-354 819h-119zM397 928l127 241q51 96 75 121t67 25q35 0 57 -17.5t22 -44.5q0 -31 -63 -92l-244 -233h-41z" />
<glyph unicode="&#xfe;" horiz-adv-x="1110" d="M14 -483h158v1833h-158v34h195q57 0 85 11.5t42 42.5v-768q41 74 117.5 120t158.5 46q174 0 305.5 -126t131.5 -296q0 -182 -124 -312.5t-300 -130.5q-191 1 -289 187v-641h158v-35h-480v35zM336 301q0 -123 89 -210t216 -87q57 0 99 19.5t64.5 49t36 77t16.5 87.5t3 95 v139q0 61 -3 102t-17.5 89.5t-39 76t-68.5 47t-107 19.5q-113 0 -201 -82t-88 -186v-236z" />
<glyph unicode="&#xff;" horiz-adv-x="897" d="M-35 758v33h451v-33h-146l256 -596l164 405q39 98 39 133q0 57 -113 58h-81v33h395v-33h-64q-23 0 -39 -7.5t-28.5 -23.5t-18.5 -27.5t-17 -38t-15 -34.5l-252 -619q-18 -43 -42 -147.5t-43.5 -180t-69.5 -139t-122 -63.5q-47 0 -77.5 28.5t-30.5 73.5q0 37 25.5 64.5 t60.5 27.5q43 0 67.5 -25.5t24.5 -68.5q-2 -4 -2 -12q0 -16 14 -17q53 0 137 390l-354 819h-119zM217 1112q0 39 27.5 65.5t66.5 26.5t65.5 -26.5t26.5 -65.5t-26.5 -66.5t-65.5 -27.5t-66.5 27.5t-27.5 66.5zM573 1110q0 39 27 66.5t66 27.5t65.5 -27.5t26.5 -66.5 t-26.5 -65.5t-65.5 -26.5t-66 26.5t-27 65.5z" />
<glyph unicode="&#x131;" horiz-adv-x="528" d="M35 0v35h158v723h-156v35h192q57 0 83 12t46 49v-819h158v-35h-481z" />
<glyph unicode="&#x152;" horiz-adv-x="1845" d="M76 680q0 295 167 500.5t406 205.5q47 0 143.5 -10t145.5 -10h733l31 -332h-35q0 162 -90 232q-86 66 -301 65h-184v-620q94 0 143 6t94 30.5t61.5 74.5t16.5 136h35v-518h-35q0 156 -48 197t-204 41h-63v-643h165q113 0 175.5 5t132 24.5t104.5 58.5t57.5 108.5 t22.5 171.5h33v-403h-889q-39 0 -117 -9t-117 -9q-238 0 -410.5 206.5t-172.5 491.5zM305 688q0 -678 363 -678q20 0 223 23v1304q-166 18 -219 19q-193 0 -280 -159t-87 -509z" />
<glyph unicode="&#x153;" horiz-adv-x="1531" d="M61 412q0 170 126 297t294 127q211 0 342 -156q109 158 281 158q96 0 185 -52.5t134 -138.5q57 -100 58 -155q0 -16 -13 -19h-43h-516l-2 -160q0 -70 8.5 -120t32 -95t69.5 -68.5t116 -23.5q259 1 335 273l29 -7q-29 -133 -127 -215t-235 -82q-106 0 -182 34t-146 112 q-115 -145 -320 -146q-180 0 -303 126t-123 311zM252 299q0 -164 52 -229.5t183 -65.5q125 0 179.5 69.5t54.5 227.5v170q0 63 -3 105t-17.5 90.5t-39 75t-70.5 45t-112 18.5q-63 0 -107 -18.5t-67.5 -44t-36 -73.5t-14.5 -87t-2 -105v-178zM909 506h312h45q18 0 18 14 q0 53 -2 84t-11 75t-27.5 68.5t-53.5 43t-86 18.5q-53 0 -91 -19.5t-56.5 -42t-30 -72.5t-13.5 -78t-4 -91z" />
<glyph unicode="&#x178;" horiz-adv-x="1218" d="M-49 1331v35h602v-35h-186l342 -743l247 518q61 131 62 172q0 53 -100 53h-89v35h437v-35h-68q-63 0 -90 -23.5t-72 -117.5l-311 -649v-506h213v-35h-625v35h211v459l-393 837h-180zM420 1642.5q0 38.5 27.5 65.5t66.5 27t65.5 -27t26.5 -65.5t-26.5 -66.5t-65.5 -28 t-66.5 28t-27.5 66.5zM776 1640.5q0 38.5 26.5 66.5t65.5 28t66 -28t27 -66.5t-27 -65.5t-66 -27t-65.5 27t-26.5 65.5z" />
<glyph unicode="&#x192;" d="M2 -211q0 41 30.5 71.5t69.5 30.5q33 0 52.5 -20.5t19.5 -52.5q0 -18 -17.5 -44t-17.5 -40q0 -23 31 -23q29 0 70 25.5t67 58.5q45 57 68.5 131t52.5 234l43 239l35 172l55 217h-225l4 41h231q25 102 62 204t97.5 217.5t149.5 188t189 72.5q72 0 115 -36.5t43 -98.5 q0 -47 -31 -81.5t-72 -34.5q-37 0 -59.5 20t-22.5 55q0 41 29 66q27 23 31 41q2 2 2 6q0 31 -47 31q-43 0 -81 -26t-66.5 -76t-52 -100t-44 -124t-32 -120t-26 -115.5t-18.5 -88.5h277l-4 -38h-281q-18 -55 -56 -220t-78 -299.5t-100.5 -281t-150.5 -230.5t-201 -84 q-63 0 -102 31t-39 82z" />
<glyph unicode="&#x2c6;" horiz-adv-x="1024" d="M238 928l208 385h132l210 -385h-36l-244 250l-234 -250h-36z" />
<glyph unicode="&#x2da;" horiz-adv-x="1024" d="M295 1118q0 78 56.5 134.5t134 56.5t134 -56.5t56.5 -134.5t-56.5 -134t-134 -56t-134 56t-56.5 134zM346 1118.5q0 -57.5 41 -98.5t98.5 -41t98.5 41t41 98.5t-41.5 98t-98.5 40.5q-59 0 -99 -40.5t-40 -98z" />
<glyph unicode="&#x2dc;" horiz-adv-x="1024" d="M215 999q23 104 73 162t120 58q57 0 158.5 -47.5t156.5 -47.5q35 0 56 21t48 82h35q-63 -223 -203 -223q-57 0 -157.5 48t-149.5 48q-72 0 -102 -101h-35z" />
<glyph unicode="&#x2000;" horiz-adv-x="927" />
<glyph unicode="&#x2001;" horiz-adv-x="1855" />
<glyph unicode="&#x2002;" horiz-adv-x="927" />
<glyph unicode="&#x2003;" horiz-adv-x="1855" />
<glyph unicode="&#x2004;" horiz-adv-x="618" />
<glyph unicode="&#x2005;" horiz-adv-x="463" />
<glyph unicode="&#x2006;" horiz-adv-x="309" />
<glyph unicode="&#x2007;" horiz-adv-x="309" />
<glyph unicode="&#x2008;" horiz-adv-x="231" />
<glyph unicode="&#x2009;" horiz-adv-x="371" />
<glyph unicode="&#x200a;" horiz-adv-x="103" />
<glyph unicode="&#x2010;" horiz-adv-x="456" d="M0 360l39 99h418l-31 -99h-426z" />
<glyph unicode="&#x2011;" horiz-adv-x="456" d="M0 360l39 99h418l-31 -99h-426z" />
<glyph unicode="&#x2012;" horiz-adv-x="456" d="M0 360l39 99h418l-31 -99h-426z" />
<glyph unicode="&#x2013;" horiz-adv-x="952" d="M68 360l38 99h779l-33 -99h-784z" />
<glyph unicode="&#x2014;" horiz-adv-x="1357" d="M0 360l39 99h1319l-31 -99h-1327z" />
<glyph unicode="&#x2018;" horiz-adv-x="573" d="M137 1100q1 168 189 338l24 -27q-176 -152 -176 -324q0 -72 32 -119.5t77 -47.5h6q-37 31 -37 65q0 41 25.5 65.5t66.5 24.5t66.5 -27.5t25.5 -72.5q0 -41 -33.5 -72t-78.5 -31q-86 0 -136.5 60.5t-50.5 167.5z" />
<glyph unicode="&#x2019;" horiz-adv-x="573" d="M137 1333q0 39 35 72t78 33q88 0 137 -61.5t49 -166.5q0 -170 -188 -338l-25 27q178 147 178 324q0 63 -28.5 115.5t-85.5 52.5q35 -33 35 -68q0 -41 -26 -65.5t-65 -24.5q-41 0 -67.5 28.5t-26.5 71.5z" />
<glyph unicode="&#x201a;" horiz-adv-x="573" d="M137 80q0 39 35 71.5t78 32.5q88 0 137 -61.5t49 -165.5q0 -170 -188 -338l-25 27q178 147 178 323q0 63 -28.5 115.5t-85.5 52.5q35 -33 35 -67q0 -41 -26 -65.5t-65 -24.5q-41 0 -67.5 28.5t-26.5 71.5z" />
<glyph unicode="&#x201c;" horiz-adv-x="948" d="M137 1100q1 168 189 338l24 -25q-176 -152 -176 -323q0 -72 32 -120t77 -48h6q-37 31 -37 65q0 41 25.5 65.5t66.5 24.5q39 0 65.5 -28.5t26.5 -71.5q0 -41 -33.5 -72t-78.5 -31q-86 0 -136.5 60.5t-50.5 165.5zM512 1100q0 166 190 338l25 -27q-178 -150 -178 -324 q0 -63 28.5 -115t86.5 -52q-37 31 -37 65q0 39 25.5 64.5t66.5 25.5t67.5 -28.5t26.5 -71.5q0 -39 -35 -71t-80 -32q-86 0 -136 60.5t-50 167.5z" />
<glyph unicode="&#x201d;" horiz-adv-x="948" d="M135 1335q0 39 35 71t78 32q84 0 136 -60.5t52 -154.5q0 -179 -190 -349l-25 25q178 150 178 324q0 63 -28.5 115.5t-85.5 52.5q35 -33 34 -66q0 -39 -24.5 -64.5t-65.5 -25.5t-67.5 28.5t-26.5 71.5zM510 1333q0 39 35 72t78 33q88 0 138 -61.5t50 -166.5 q0 -166 -190 -338l-25 27q178 147 178 324q0 63 -28.5 115.5t-86.5 52.5q37 -31 37 -68q0 -39 -25.5 -64.5t-66.5 -25.5t-67.5 28.5t-26.5 71.5z" />
<glyph unicode="&#x201e;" horiz-adv-x="948" d="M135 82q0 39 35 70.5t78 31.5q84 0 136 -60.5t52 -154.5q0 -178 -190 -348l-25 25q178 150 178 323q0 63 -28.5 115.5t-85.5 52.5q35 -33 34 -65q0 -39 -24.5 -64.5t-65.5 -25.5t-67.5 28.5t-26.5 71.5zM510 80q0 39 35 71.5t78 32.5q88 0 138 -61.5t50 -165.5 q0 -166 -190 -338l-25 27q178 147 178 323q0 63 -28.5 115.5t-86.5 52.5q37 -31 37 -67q0 -39 -25.5 -64.5t-66.5 -25.5t-67.5 28.5t-26.5 71.5z" />
<glyph unicode="&#x2026;" horiz-adv-x="1476" d="M150 82q0 39 27.5 66.5t68.5 27.5q39 0 66.5 -27.5t27.5 -66.5q0 -41 -27.5 -68.5t-66.5 -27.5q-41 0 -68.5 27.5t-27.5 68.5zM643 82q0 39 27.5 66.5t66.5 27.5t68 -27.5t29 -66.5q0 -41 -28 -68.5t-69 -27.5q-39 0 -66.5 28.5t-27.5 67.5zM1135 82q0 39 27.5 66.5 t68.5 27.5q39 0 67.5 -27.5t28.5 -66.5q0 -41 -28.5 -68.5t-67.5 -27.5t-67.5 27.5t-28.5 68.5z" />
<glyph unicode="&#x202f;" horiz-adv-x="371" />
<glyph unicode="&#x2030;" horiz-adv-x="2170" d="M70 1022q0 131 67.5 238.5t192.5 107.5q115 0 185.5 -95t70.5 -251q0 -147 -75 -246.5t-187.5 -99.5t-183 96t-70.5 250zM178 1042q0 -182 34 -262t110 -80q82 0 118.5 78t36.5 250t-33.5 245t-113.5 73q-152 -1 -152 -304zM352 0l729 1366h60l-725 -1366h-64zM907 340 q0 131 68.5 238.5t193.5 107.5q115 0 185.5 -95t70.5 -251q0 -150 -74.5 -248t-189.5 -98q-113 0 -183.5 96t-70.5 250zM1018 360q0 -184 33.5 -264t109.5 -80q82 0 118 78t36 252q0 170 -34 243t-112 73q-80 0 -115.5 -72t-35.5 -230zM1587 340q0 131 67.5 238.5 t192.5 107.5q115 0 185.5 -95t70.5 -251q0 -150 -74.5 -248t-189.5 -98q-113 0 -182.5 96t-69.5 250zM1696 360q0 -184 33.5 -264t109.5 -80q82 0 119 78t37 252q0 170 -34 243t-114 73q-78 0 -114.5 -73t-36.5 -229z" />
<glyph unicode="&#x2039;" horiz-adv-x="555" d="M109 410l266 329l43 -32l-244 -297l225 -289l-41 -31z" />
<glyph unicode="&#x203a;" horiz-adv-x="555" d="M137 115l242 295l-223 288l41 33l249 -321l-268 -328z" />
<glyph unicode="&#x2044;" horiz-adv-x="217" d="M-287 0l727 1366h62l-727 -1366h-62z" />
<glyph unicode="&#x205f;" horiz-adv-x="463" />
<glyph unicode="&#x2122;" horiz-adv-x="1939" d="M55 1124l8 242h713l10 -242h-34q0 137 -44 173t-192 36h-31v-710h123v-35h-377v35h125v710h-14q-158 0 -206 -34.5t-48 -151.5v-23h-33zM864 588v35h49q41 0 54.5 12t13.5 51v51v580l-8 14h-103v35h232l254 -563l239 563h236v-35h-109v-708h109v-35h-352v35h114v645 l-288 -674l-291 651v-508l2 -51q2 -43 15 -53t67 -10h41v-35h-275z" />
<glyph unicode="&#x25fc;" horiz-adv-x="788" d="M0 0v788h788v-788h-788z" />
</font>
</defs>
</svg>
