<?xml version="1.0" encoding="utf-8"?>
<!-- Generator: Adobe Illustrator 19.0.0, SVG Export Plug-In . SVG Version: 6.00 Build 0)  -->
<svg version="1.1" xmlns="http://www.w3.org/2000/svg" xmlns:xlink="http://www.w3.org/1999/xlink" x="0px" y="0px"
	 viewBox="0 0 419.5 283.5" style="enable-background:new 0 0 419.5 283.5;" xml:space="preserve">
<style type="text/css">
	.st0{fill:#FDEDED;}
	.st1{fill:#010202;}
	.st2{fill:#607A90;}
</style>
<g id="Capa_1">
</g>
<g id="Capa_2">
	<rect x="-1738.9" y="-518.2" class="st0" width="1628.8" height="1145"/>
	<rect x="-3568.9" y="-518.1" class="st0" width="1629.1" height="1132.1"/>
	<g>
		<text transform="matrix(1 0 0 1 -3473.1282 -408.0268)" class="st1" style="font-family:'Roboto-Bold'; font-size:36px;">ISOTIPO</text>
		<g>
			<g>
				<line class="st1" x1="-3471.2" y1="-384.6" x2="-3444.1" y2="-384.6"/>
				<rect x="-3471.2" y="-387.2" class="st1" width="27.1" height="5.2"/>
			</g>
		</g>
	</g>
	<g>
		<text transform="matrix(1 0 0 1 -1623.5984 -408.0268)" class="st1" style="font-family:'Roboto-Bold'; font-size:36px;">LOGOTIPO</text>
		<g>
			<g>
				<line class="st1" x1="-1621.7" y1="-384.6" x2="-1594.6" y2="-384.6"/>
				<rect x="-1621.7" y="-387.2" class="st1" width="27.1" height="5.2"/>
			</g>
		</g>
	</g>
	<g>
		<path class="st2" d="M-2676.4,37.6c2.1,1,3.5,2.6,4.2,4.5c0.7,2,0.5,4-0.6,6.1c-9.1,18.9-17.9,35.8-26.6,50.8
			c-8.7,14.9-17.3,27.9-25.8,38.9c-5.3,6.8-10.6,13-15.8,18.5c-5.2,5.5-10.5,10.1-15.8,13.8c-12.3,9.2-24.1,13.8-35.6,13.8
			c-2.9,0-6.2-0.5-9.8-1.4c-3.6-0.9-7.3-2.9-11-5.9c-3.7-3-7.3-7.3-10.6-12.8c-3.3-5.5-6.2-12.8-8.6-22c-3.2-12.8-5-27.3-4.6-43.3
			c2.4-97.9,45.8-123.3,70.3-124.9c7-0.4,13.3,1.3,18.6,4.7c15.1,9.8,24.3,40.9,7,77.4c-20,42.1-52.3,44.3-52.3,44.3
			s-3.6,35.6,13.6,55.3c3.1,3.6,8.1,5.6,13.3,2.2c4.7-3.1,9.1-7.5,13.8-12.4c4.7-4.9,9.5-10.4,14.6-16.7
			c16-21.2,32.9-50.2,50.8-86.9c1.1-2.1,2.6-3.5,4.6-4.3C-2680.6,36.4-2678.5,36.6-2676.4,37.6z M-2749.9,0.2
			c-1.5-2.2-7.7,2.9-11.2,6.9c-30.6,35-30.3,66.2-32,77.4C-2760.9,82.1-2739.9,15.1-2749.9,0.2z"/>
		<g>
			<path class="st2" d="M-2739.5-62.4h-77.1c-7.2,0-13.1-5.8-13.1-12.8s5.8-12.8,13.1-12.8h77.1c7.2,0,13.1,5.8,13.1,12.8
				S-2732.3-62.4-2739.5-62.4z"/>
		</g>
	</g>
	<g>
		<path class="st2" d="M-1209.3-117.9c1.2,0.6,2.1,1.5,2.4,2.6c0.4,1.1,0.3,2.3-0.4,3.6c-5.3,11-10.5,20.9-15.5,29.6
			c-5.1,8.7-10.1,16.3-15,22.7c-3.1,4-6.2,7.6-9.2,10.8c-3,3.2-6.1,5.9-9.2,8c-7.2,5.4-14.1,8-20.8,8c-1.7,0-3.6-0.3-5.7-0.8
			c-2.1-0.5-4.2-1.7-6.4-3.4c-2.2-1.8-4.2-4.2-6.2-7.5c-1.9-3.2-3.6-7.5-5-12.9c-1.9-7.5-2.9-15.9-2.7-25.3
			c1.4-57.1,26.7-72,41.1-72.9c4.1-0.3,7.7,0.8,10.8,2.8c8.8,5.7,14.2,23.8,4.1,45.2c-11.7,24.6-30.5,25.8-30.5,25.8
			s-2.1,20.8,8,32.3c1.8,2.1,4.7,3.3,7.7,1.3c2.7-1.8,5.3-4.4,8-7.2c2.7-2.8,5.6-6.1,8.5-9.8c9.3-12.4,19.2-29.3,29.6-50.7
			c0.6-1.2,1.5-2.1,2.7-2.5C-1211.8-118.6-1210.5-118.5-1209.3-117.9z M-1252.2-139.7c-0.9-1.3-4.5,1.7-6.5,4
			c-17.9,20.4-17.7,38.6-18.7,45.2C-1258.7-91.9-1246.4-131-1252.2-139.7z"/>
		<g>
			<g>
				<path class="st2" d="M-1170.7,259.7c-2.8,0.1-4.8-0.7-5.8-2.2c-0.3-0.4-0.5-0.9-0.9-1.2c-0.3-0.3,0.2-0.7,0.9-0.7
					c0.3,0,0.5,0,0.8,0.1c5.7,0.5,11.4,0.1,17.1-0.2c2-0.1,4.1-0.3,6.1-0.3c2.1,0,4.2,0.2,5.2,1.5c0.1,0.2,0.2,0.3,0.4,0.4
					c1.4,1,1.2,1.2-1.2,1.5c-2.8,0.3-5.6,0.6-8.5,0.9c-0.7,0.1-1.5,0.2-2.3,0.3c-0.5,0.1-0.9,0.2-0.6,0.5c1.6,1.4,1.4,2.8,1.2,4.3
					c-0.5,3.3-1.2,6.6-1.8,9.9c-0.1,0.7-0.2,1.5-0.2,2.2c0.1,3.7-0.6,7.4-0.7,11.1c0,0.6,0,1.2,0,1.8c0.1,1,0.1,4.8,0.2,5.8
					c0.1,0.7-0.3,1.6-1.5,1.8c-0.6,0.1-1.2,0.2-1.8,0.2c-1.3,0.1-2.8-0.5-3.2-1.1c-0.2-0.3-0.4-0.7-0.4-1c0-1.7-0.6-3.4-0.4-5.1
					c0.1-0.7,0.1-1.4,0.2-2.1c0.2-3.2,0.5-6.4,0.7-9.6c0.1-1.2,0.1-2.5,0.3-3.7c0.5-4.4,0.4-8.9,1.3-13.3c0-0.3,0.1-0.6,0.1-0.9
					c0-0.5-0.3-0.7-1.1-0.6c-0.9,0.1-1.8,0-2.8-0.1C-1169.7,259.6-1170.2,259.7-1170.7,259.7z"/>
				<path class="st2" d="M-1140.3,268.2c0.1-1.8,0.4-3.5,0.3-5.3c0-1.5-0.2-3-0.3-4.5c0-0.4-0.1-0.8,0.2-1.2
					c0.6-0.7,0.9-0.9,2.2-0.6c0.6,0.1,1.2,0.1,1.8,0.2c1.5,0.3,2.8,0.9,3.4,1.8c0.6,1.1,1.1,2.2,1,3.4c-0.1,1.5,0.5,3,0.3,4.5
					c-0.1,1.6-0.3,3.1-0.8,4.7c-0.7,1.9-0.7,3.9-1,5.8c-0.3,1.8-0.4,3.7-0.6,5.5c-0.2,1.7-0.1,3.4,0.1,5.1c0.1,1.6,0.2,3.3,0.5,4.9
					c0.1,1,1.6,3.9,4.4,3.7c3.3-0.2,5.6-7.4,6.1-9.5c0.3-1.9,0.9-3.7,0.6-5.6c-0.2-1.5,0.1-5.5,0.3-7.2c0.2-1.4,0.3-2.8,0.4-4.2
					c0-1.4,0.2-2.8,0.5-4.1c0.2-0.9,0.3-1.8,0.3-2.7c0.1-1.6,0.2-3.3,0.3-4.9c0-0.4,0.3-0.7,0.7-1.1c0.7-0.6,2.2-0.7,3.2-0.2
					c0.5,0.2,0.8,0.5,1.2,0.8c0.6,0.4,0.9,0.8,0.8,1.4c-0.2,0.8-1.6,13.8-1.8,14.9c-0.3,1.5-0.5,7.4-0.5,8.9c0,1.5-0.4,3-0.7,4.5
					c-0.2,0.6-2.1,10.2-8.2,11c-2.5,0.3-4.7,0.5-6.9-0.1c-1-0.3-1.8-0.6-2.9-0.8c-1.1-0.2-1.9-0.8-2.5-1.4c-1.3-1.3-2.1-2.7-2.4-4.3
					c-0.6-3-0.6-6-0.6-9c0-1.4,0-2.8,0-3.8C-1140.4,274.9-1140.5,271.5-1140.3,268.2z"/>
				<path class="st2" d="M-1079.2,265.8c0.1-1.3,0.4-2.7,0.7-4c0.2-1.1,0.1-2.2,0.2-3.4c0-0.4-0.3-0.9,0.5-1.2
					c0.8-0.3,1.6-0.6,2.7-0.5c3.4,0.5,7,0.5,10.3,1.3c0.6,0.1,1.2,0.3,1.8,0.6c1.6,0.6,3.1,1.4,4.4,2.2c1.8,1,3.1,2.2,3.6,3.6
					c0.1,0.2,0.1,0.3,0.3,0.6c2.3,3.4,1.5,6.9,0.6,10.4c-0.4,1.5-1.1,2.9-1.5,4.4c-0.2,0.6-0.3,1.2-0.4,1.9
					c-0.2,1.2-1.1,2.4-1.7,3.6c-0.9,1.8-1.8,3.6-2.8,5.4c-0.8,1.7-2.4,3.2-3.7,4.8c-0.4,0.5-1.1,0.9-2,1.1c-0.8,0.1-1.5,0.3-2.1,0.5
					c-1.2,0.3-2.3,0.4-3.6,0.2c-0.9-0.2-1.6-0.2-2.4,0.2c-0.6,0.3-1.2,0.2-1.9,0.1c-0.5-0.1-0.9-0.2-1.4-0.3
					c-2.1-0.3-2.2-0.3-2.5-1.5c-0.1-0.4-0.1-0.9-0.1-1.2c0-4,0-8,0-12.4C-1080,277-1079.7,271.4-1079.2,265.8z M-1074,294.4
					c0,1,0.9,0.9,2,0.7c0.5-0.2,0.9-0.4,1.2-0.7c0.8-0.6,1.3-1.2,1.7-1.9c1.1-1.8,1.6-3.6,2.4-5.3c1.1-2.3,2.2-4.7,3.1-7
					c0.5-1.7,0.6-3.5,1-5.3c0.3-1.8,0.4-3.6,0.4-5.5c0.1-2.6-1-5.1-2.8-7.6c-0.3-0.6-0.9-1-1.5-1.5c-0.8-0.7-2-0.9-3.4-0.7
					c-0.6,0.1-1,0.2-1.1,0.5c0,0.4,0,0.8,0,1.2c-0.1,1.5-0.2,3-0.4,4.4c-0.4,2.9-1.3,5.7-1.2,8.6c0,0.7-0.2,1.5-0.3,2.2
					c-0.1,0.9-0.3,1.6-0.2,2.5c0.3,2.3-0.3,4.5-0.3,6.9c0,1.5-0.3,3.1-0.6,5.2C-1074.1,291.7-1074,293.1-1074,294.4z"/>
				<path class="st2" d="M-1031.9,295.4c1.9-0.3,3.9,0,5.3,1c0.4,0.3,0.3,0.7-0.2,0.9c-0.7,0.3-1.5,0.4-2.2,0.5
					c-2.7,0.2-5.4,0.5-8,0.7c-3.4,0.3-6.4-0.2-9.5-0.8c-1-0.2-1.4-0.7-1.6-1.3c-0.5-1.1-0.6-2.2-0.5-3.3c0.1-1.4,0.1-2.7,0.1-4
					c0.1-1.9,0.1-3.9,0.3-5.8c0.3-3.4,0-6.8,0.1-10.1c0.1-2.5,0.3-5,0.3-7.4c0.2-2.1,0.3-4.2-0.1-6.3c-0.1-0.7,0.6-1.1,1.6-0.9
					c2.6,0.6,5.1,0,7.7,0c2.1,0,4.4-0.2,6.5-0.3c1.8-0.1,3.6,0.1,5.3,0.4c0.3,0,0.7,0.1,1.1,0.3c0.4,0.2,0.8,0.5,0.7,0.8
					c-0.1,0.5-0.8,0.5-1.4,0.6c-1.3,0.2-2.7,0.3-4.1,0.3c-1.4,0-2.7,0.2-4.1,0.5c-1.4,0.4-2.8,0.5-4.4,0.4c-1.1,0-1.3,0.1-1.3,0.8
					c0,0.5,0.2,0.9,0.3,1.4c0.2,1.3,0.3,2.6,0,3.9c-0.4,1.3-0.3,2.6-0.3,3.9c-0.1,2.2-0.3,4.4-0.4,6.6c0,0.3-0.1,0.5,0,0.7
					c0,0.3,0.4,0.5,1,0.5c0.6,0,1.3-0.2,2-0.3c2.4-0.2,4.8-0.3,7.1,0c0.6,0.1,1.3,0.2,1.7,0.6c0.4,0.3,0.1,0.8-0.7,0.9
					c-1.4,0.2-2.8,0.5-4.3,0.6c-2,0.2-3.8,0.7-5.9,0.8c-0.6,0-0.9,0.2-1,0.6c-0.1,0.2-0.2,0.5-0.3,0.7c-0.1,2.2-0.4,4.3-0.8,6.4
					c-0.2,1.6,0.3,3.2-0.2,4.8c0,0.2,0.1,0.4,0.2,0.7c0.3,0.8,0.6,0.9,2.2,0.8c0.4,0,0.8,0,1.2-0.1c0.5-0.1,0.9-0.1,1.5-0.2
					C-1035.1,295.7-1033.5,295.7-1031.9,295.4z"/>
				<path class="st2" d="M-993,279.2c-0.9,1.5-2.3,2.8-4.5,3.8c-1.7,0.7-3.1,1.7-5.1,2.2c-0.4,0.1-0.4,0.3-0.2,0.5
					c0.1,0.2,0.4,0.3,0.6,0.5c2,1.8,3.9,3.6,5.3,5.6c1.2,1.8,2.7,3.5,4.1,5.2c0.6,0.7,0.5,1.3-0.6,1.9c-1,0.6-2.5,0.7-3.8,0.1
					c-1.2-0.6-1.8-1.4-2.2-2.3c-1.6-3.1-4.2-6-6.6-8.9c-0.2-0.2-0.5-0.4-0.7-0.6c-0.2-0.2-0.4-0.3-0.8-0.3c-0.2,0.1-0.3,0.2-0.4,0.3
					c-0.3,0.6-0.4,1.3-0.3,1.9c0.1,2.6-0.1,5.1-0.5,7.7c0,0.5-0.1,0.9-0.2,1.3c-0.3,0.6-0.7,0.8-1.7,0.8c-1.5-0.1-2.9-0.6-4.1-1
					c-0.7-0.2-0.7-0.7-0.5-1.1c0.5-1.6,0.4-3.3,0.4-4.9c0.1-3.3-0.1-6.6-0.1-9.9c0-3.6-0.1-7.3,0.4-10.9c0.4-2.3,0.4-4.5,0.8-6.8
					c0.3-1.9,0.6-3.7,0.5-5.6c0-0.6-0.1-1.2-0.2-1.8c-0.1-0.6,0.2-0.8,1-0.8c5-0.1,9.8,0.5,14.2,2c1.9,0.7,3.7,1.6,4.9,2.7
					c2.2,2.2,3,4.5,3,6.9c-0.1,0.3-0.1,0.7-0.1,1.1C-990.5,272.4-991.1,275.8-993,279.2z M-1007.9,281.6c0,0.5-0.3,1.1,0.3,1.3
					c1,0.3,1.6-0.4,2.4-0.7c0.2-0.1,0.5-0.3,0.7-0.5c3.4-2,5.1-4.4,5.7-7.1c0.6-2.8,0.6-5.7,0.6-8.5c-0.1-0.5-0.2-1-0.4-1.5
					c-0.4-0.9-0.8-1.6-1.1-2.5c-0.5-1.1-1.5-2-2.8-2.9c-0.7-0.5-2.9-0.9-3.7-0.6c-1,0.3-0.7,1-0.5,1.5c0.7,2.6-0.1,5.2-0.4,7.8
					c-0.4,3.3-0.8,6.6-0.9,9.9C-1007.9,279.1-1008,280.4-1007.9,281.6z"/>
				<path class="st2" d="M-981.5,285.1c0-2.4,0.4-4.8,0.7-7.2c0.3-2.3,0.4-4.7,0.6-7c0.1-1.1,0-2.2,0.6-3.2c0.2-0.2,0.2-0.6,0.2-0.9
					c0.1-1.8,0.1-3.7,0.2-5.5c0-1-0.3-1.9-0.7-2.8c-0.1-0.3-0.3-0.5-0.3-0.8c-0.1-0.4,0.2-0.8,1-0.7c1.2,0.2,2.6,0.1,3.5,0.9
					c3.2,1.2,4.1,3.3,4.9,5.3c1.2,3.4,2.2,6.8,3.3,10.1c0.3,1.2,0.7,2.5,1.7,3.6c0.1,0.1,0.2,0.1,0.3,0.2c0.1-0.1,0.3-0.1,0.3-0.2
					c0.6-1.1,0.9-2.3,1.2-3.4c0.2-0.8,0.4-1.5,0.9-2.3c0.3-0.7,1-1.2,0.8-2c1-0.9,0.6-1.9,1-2.9c0.5-1.5,1.1-2.9,1.7-4.4
					c0.4-1.2,1.3-2.4,2.2-3.5c0.6-0.9,2.1-1,3.4-1.2c0.2,0,0.4,0.1,0.6,0.1c2.6,1,4.5,2.3,4.4,4.5c-0.3,2.5-0.5,5.1-1.3,7.5
					c-0.4,1.5-0.9,3-0.6,4.5c0.1,0.3,0,0.6-0.1,0.9c0,0.2-0.2,0.3-0.2,0.6c0,1.6-0.9,3.1-0.7,4.7c0,0.3-0.1,0.6-0.2,0.9
					c0,0.3-0.2,0.6-0.2,0.9c0.4,2.8,0.3,5.6,0.4,8.4c0,1.4-0.1,2.7-0.3,4.1c-0.1,1.1-0.3,2.2,0.1,3.4c0.1,0.5-0.2,0.9-0.9,1.3
					c-0.3,0.2-0.7,0.3-1.1,0.5c-2.3,0.7-3.5,0.3-4.2-1.2c-0.3-0.8-0.4-1.6-0.4-2.4c0-2.3-0.2-4.7,0-7c0.1-2.6,0.3-5.1,0.6-7.7
					c0.3-2.6,0.8-5.2,1.1-7.8c0.3-1.9,0.6-3.9,1.1-5.8c0.4-1.6,0.7-3.4,1-5.1c0-0.1,0-0.3-0.3-0.3c-0.1-0.1-0.3,0.1-0.3,0.1
					c-0.4,0.9-1,1.6-1.4,2.4c-0.9,2.2-1.7,4.4-2.8,6.6c-0.4,1.1-0.6,2.2-1,3.2c-0.7,1.9-1.3,3.7-2.3,5.5c-0.2,0.3-0.3,0.7-0.4,1.1
					c-0.3,1-0.4,0.9-2.1,1.1c-2.1,0.1-3.2-0.5-4.1-1.6c-0.7-0.9-1.4-1.9-1.6-2.9c-0.1-1.4-1.1-2.7-1.6-4.1c-0.1-0.1-0.3-0.2-0.3-0.2
					c-0.3,0.1-0.3,0.2-0.3,0.3c0,1.1-0.1,2.3-0.1,3.5c0.1,1.6-0.3,3.2-0.6,4.8c-0.1,0.3-0.2,0.7-0.2,1c-0.2,2-0.3,4.1-0.5,6.2
					c-0.2,1.9-0.3,3.7-0.4,5.7c0,0.2,0,0.5,0,0.7c-0.3,1.8-0.4,1.8-1.8,1.8c-2.7,0.1-4.3-0.6-4.4-2c-0.1-1-0.1-2-0.1-3.1
					c0-1.2,0-2.3,0-3.5h0.1C-981.5,287.7-981.5,286.4-981.5,285.1z"/>
				<path class="st2" d="M-920.6,272.9c-0.1,1.4,0.1,2.8,0.5,4.3c0.5,1.9,0.6,3.9,0.8,5.9c0.5,3.2,0.9,6.5,1.6,9.8
					c0.3,1.8,0.7,3.5,1.7,5.2c0.2,0.4-0.1,0.6-0.8,0.7c-2.2,0.3-4.3-0.2-6.2-0.7c-0.6-0.1-0.9-0.5-1.1-0.8c-0.2-0.4-0.4-0.8-0.5-1.2
					c-0.7-2.3-1.3-4.7-1.6-7c-0.1-1.2-0.3-2.4-0.5-3.6c-0.2-0.7-0.5-0.9-1.7-0.8c-3.2,0.1-6.3,0.2-9.6,0.2c-1,0-1.5,0.3-1.7,0.8
					c-0.7,1.6-1.4,3.3-1.7,5c-0.3,1-0.7,2-1.1,3c-0.3,0.8-0.6,1.6-0.8,2.4c-0.2,0.4-0.4,0.8-0.7,1.1c-0.9,0.9-2.3,1-4,0.9
					c-0.7,0-0.9-0.1-1-0.5c-0.1-0.8,0.3-1.5,0.4-2.3c0.3-2.4,1.6-4.7,2.3-7c0.3-1.1,0.8-2.3,1.2-3.4c0.2-0.5,0.2-0.9-0.5-1.2
					c-0.3-0.2-0.5-0.5-0.6-0.8c-0.1-0.6-0.1-0.9,1-1.1c1.3-0.2,1.6-0.7,1.8-1.3c0.5-1.5,1.2-3.1,1.8-4.6c1.1-2.9,2.2-5.8,4-8.6
					c1.4-2.5,2.8-5.1,4.5-7.6c0.5-0.7,1.1-1.5,1.8-2.2c0.7-0.6,1.5-1,3-0.7c0.5,0.1,0.9,0.1,1.3,0c1.2-0.3,2,0,2.5,0.6
					c1.4,1.5,2.8,3,3.2,4.7c0.4,1.6-0.1,3.2,0.4,4.9C-921.2,268.8-920.6,270.8-920.6,272.9z M-929.1,264.3c0-0.2-0.1-0.5-0.2-0.7
					c-0.5,0.1-0.5,0.3-0.7,0.5c-1.6,2.2-2.2,4.5-3.5,6.8c-1.4,2.9-2.4,5.9-3.7,8.9c-0.8,1.9-0.7,1.6,2.4,1.8c0.6,0.1,1.2,0,1.8-0.1
					c1.2-0.1,2.5-0.2,3.9-0.2c1.2,0,1.5-0.2,1.5-0.9c-0.1-1.1-0.3-2.3-0.4-3.4c-0.3-1.9-0.6-3.9-0.7-5.8
					C-928.8,269.6-929.1,265-929.1,264.3z"/>
				<path class="st2" d="M-876.6,269.6c0.8-2.4,1.9-4.7,3.6-7c1-1.5,2.7-2.8,4.4-4.1c0.8-0.6,1.8-1,3.1-1.2c2.7-0.6,5.4-0.7,8.2-0.2
					c1.9,0.3,3.4,1.1,4.9,1.8c0.1,0,0.1,0.1,0.2,0.1c1,1.8,2,3.7,0.8,5.6c-0.8,1.1-1.5,1.3-3.3,0.6c-0.6-0.2-1.1-0.5-1.7-0.7
					c-1.9-0.7-2.4-1.8-2.3-3c0-0.3,0.2-0.6,0.3-1c0.1-0.3,0.3-0.6-0.3-0.8c-0.5-0.2-0.9,0.1-1.4,0.2c-0.6,0.2-4.4,1.9-8.3,10.8
					c-1.9,3.7-7,24.4,1.1,22.7c2.2-0.5,3.8-1.8,5.2-3c1.7-1.4,3.4-2.8,5.1-4.2c0.7-0.6,1.4-0.7,2.3-0.5c0.9,0.2,1.2,0.7,0.9,1.3
					c-0.1,0.3-2.7,4.6-8.4,8.8c-1.4,1-5.7,1.1-7,0.9c-4.1-0.6-6.2-1.9-7.8-4.2c-0.5-0.7-0.8-1.5-1.1-2.4c-0.9-2.4-0.9-4.9-0.9-7.8
					C-879.3,278.4-878.1,274-876.6,269.6z"/>
				<path class="st2" d="M-825.7,267.3c-0.6-1.4-1-2.8-3-3.9c-0.8-0.5-1.5-0.9-2.5-1.1c-0.7-0.1-0.8-0.5-0.7-0.9
					c0.1-0.5,0.5-0.7,1.3-0.8c0.9-0.1,3.4,0.3,4.3,0.6c3.2,1.2,5,2.8,5.8,4.9c0.8,1.9,1.9,3.7,1.7,5.7c1.2,3.9,0,7.8-0.8,11.6
					c-0.5,2.4-1.3,4.8-2.4,7.2c-0.4,1-0.7,1.9-1.3,2.9c-0.9,1.5-2.7,2.8-4.5,4c-1.2,0.7-3,0.8-4.6,0.7c-2.5-0.2-5.1-0.6-7.3-1.4
					c-1.5-0.5-2.8-1.1-3.4-2c-0.2-0.2-0.4-0.5-0.7-0.7c-3.9-3.4-5.1-7.1-5.2-11c0-1.9,0-3.8,0.3-5.7c0.3-3.2,0.8-6.3,1.8-9.4
					c0.7-2.4,1.9-4.8,3.7-7c1.5-1.9,4.2-3.2,6.9-4.4c1.9-0.9,5.6-0.7,7.6,0.1c1.1,0.5,1.2,0.9,0.3,1.5c-1.1,0.7-2.1,1.3-3.5,1.9
					c-0.6,0.2-1.1,0.5-1.5,0.9c-2.3,2.4-4.6,4.8-5.8,7.6c-0.8,1.8-1.3,3.6-1.6,5.5c-0.2,1.1-0.4,2.3-0.7,3.5c-0.6,2.9-0.5,5.9,0,8.8
					c0.2,1.5,0.5,3.1,1.2,4.6c0.7,1.4,1.9,2.7,3.1,4c0.2,0.2,0.5,0.5,0.8,0.6c1,0.6,2.3,0.6,3.4,0c0.6-0.3,1.1-0.7,1.6-1.1
					c1.9-1.6,3.3-3.5,4.1-5.4c1.6-3.9,2.3-8,2.7-12c0.1-0.7,0-1.4,0-2.1C-824.9,272.4-824.7,269.8-825.7,267.3z"/>
				<path class="st2" d="M-787.6,272.9c-0.1,1.4,0.1,2.8,0.5,4.3c0.5,1.9,0.6,3.9,0.8,5.9c0.5,3.2,0.9,6.5,1.6,9.8
					c0.3,1.8,0.7,3.5,1.7,5.2c0.2,0.4-0.1,0.6-0.8,0.7c-2.2,0.3-4.3-0.2-6.2-0.7c-0.6-0.1-0.9-0.5-1.1-0.8c-0.2-0.4-0.4-0.8-0.5-1.2
					c-0.7-2.3-1.3-4.7-1.6-7c-0.1-1.2-0.3-2.4-0.5-3.6c-0.2-0.7-0.5-0.9-1.7-0.8c-3.2,0.1-6.3,0.2-9.6,0.2c-1,0-1.5,0.3-1.7,0.8
					c-0.7,1.6-1.4,3.3-1.7,5c-0.3,1-0.7,2-1.1,3c-0.3,0.8-0.6,1.6-0.8,2.4c-0.2,0.4-0.4,0.8-0.7,1.1c-0.9,0.9-2.3,1-4,0.9
					c-0.7,0-0.9-0.1-1-0.5c-0.1-0.8,0.3-1.5,0.4-2.3c0.3-2.4,1.6-4.7,2.3-7c0.3-1.1,0.8-2.3,1.2-3.4c0.2-0.5,0.2-0.9-0.5-1.2
					c-0.3-0.2-0.5-0.5-0.6-0.8c-0.1-0.6-0.1-0.9,1-1.1c1.3-0.2,1.6-0.7,1.8-1.3c0.5-1.5,1.2-3.1,1.8-4.6c1.1-2.9,2.2-5.8,4-8.6
					c1.4-2.5,2.8-5.1,4.5-7.6c0.5-0.7,1.1-1.5,1.8-2.2c0.7-0.6,1.5-1,3-0.7c0.5,0.1,0.9,0.1,1.3,0c1.2-0.3,2,0,2.5,0.6
					c1.4,1.5,2.8,3,3.2,4.7c0.4,1.6-0.1,3.2,0.4,4.9C-788.2,268.8-787.6,270.8-787.6,272.9z M-796.2,264.3c0-0.2-0.1-0.5-0.2-0.7
					c-0.5,0.1-0.5,0.3-0.7,0.5c-1.6,2.2-2.2,4.5-3.5,6.8c-1.4,2.9-2.4,5.9-3.7,8.9c-0.8,1.9-0.7,1.6,2.4,1.8c0.6,0.1,1.2,0,1.8-0.1
					c1.2-0.1,2.5-0.2,3.9-0.2c1.2,0,1.5-0.2,1.5-0.9c-0.1-1.1-0.3-2.3-0.4-3.4c-0.3-1.9-0.6-3.9-0.7-5.8
					C-795.9,269.6-796.2,265-796.2,264.3z"/>
				<path class="st2" d="M-777.7,269.6c0.8-2.4,1.9-4.7,3.6-7c1-1.5,2.7-2.8,4.4-4.1c0.8-0.6,1.8-1,3.1-1.2c2.7-0.6,5.4-0.7,8.2-0.2
					c1.9,0.3,3.4,1.1,4.9,1.8c0.1,0,0.1,0.1,0.2,0.1c1,1.8,2,3.7,0.8,5.6c-0.8,1.1-1.5,1.3-3.3,0.6c-0.6-0.2-1.1-0.5-1.7-0.7
					c-1.9-0.7-2.4-1.8-2.3-3c0-0.3,0.2-0.6,0.3-1c0.1-0.3,0.3-0.6-0.3-0.8c-0.5-0.2-0.9,0.1-1.4,0.2c-0.6,0.2-1.3,0.5-1.4,1
					c-0.1,0.6-0.7,1-1.3,1.4c-1.9,1.2-2.9,2.8-3.6,4.3c-0.7,1.4-1.4,2.8-1.9,4.2c-0.9,2.6-2,5.3-2.2,8c0,1.3-0.8,2.6-0.8,3.9
					c0,0.6,0,1.2,0.1,1.8c0.1,1.1,0.4,2.1-0.1,3.2c-0.1,0.1-0.1,0.3-0.1,0.4c0.4,1.6,0.3,3.2,0.9,4.8c0.6,1.4,1.1,1.5,3.4,0.7
					c2.1-0.7,3.8-1.8,5.2-3c1.7-1.4,3.4-2.8,5.1-4.2c0.7-0.6,1.4-0.7,2.3-0.5c0.9,0.2,1.2,0.7,0.9,1.3c-0.1,0.3-0.4,0.6-0.7,1
					c-0.2,0.4-0.7,0.8-0.8,1.2c-0.2,1.6-1.9,2.8-3.6,4.1c-1.1,0.9-2.3,1.6-3.3,2.6c-0.4,0.5-1,0.6-1.8,0.8c-1.3,0.2-2.8,0.3-4.1,0.1
					c-4.1-0.6-7.3-1.9-9-4.2c-0.5-0.7-0.8-1.5-1.1-2.4c-0.9-2.4-0.9-4.9-0.9-7.8C-780.4,278.4-779.2,274-777.7,269.6z"/>
				<path class="st2" d="M-725.8,285.7c0.1-0.5,0.1-1,0.1-1.6c-0.1-0.7-0.4-0.9-1.6-0.8c-0.4,0-0.9,0-1.3,0.1
					c-1.9,0.4-3.9,0.5-5.9,0.5c-0.6,0-1.2,0.1-1.8,0.2c-4.7,0.5-4,0.1-4,2.6c-0.1,1.8-0.6,3.6-0.6,5.5c0,1.4-0.2,2.7-0.7,4
					c-0.2,0.5,0,0.9,0,1.3c0,0.7-0.4,0.9-1.4,1c-1.1,0.1-2.2-0.3-3.4-0.2c-0.1,0-0.4-0.2-0.5-0.3c-0.1-0.2-0.2-0.3-0.3-0.5
					c-0.1-2-0.3-4.1-0.2-6.1c0-1.4,0.3-2.7-0.1-4.1c-0.1-0.7,0-1.5,0.2-2.2c0.1-0.7-0.2-1.4-1.2-1.8c-0.4-0.2-0.8-0.4-1.1-0.6
					c-0.8-0.5-0.4-1.1,0.9-1.2c0.5-0.1,1,0.1,1.4-0.2c0.3-0.3,0.4-0.6,0.4-0.9c0.1-0.1,0.1-0.2,0.1-0.3c0-3.6,0.8-7.2,0.6-10.8
					c0-2.2,0.1-4.4,0.1-6.6c0.1-1.5,0-3-0.2-4.5c-0.1-0.9,0.5-1.2,2-1.3c1,0,1.9,0.1,2.9,0.2c1.6,0.3,2.8,1,2.8,1.9
					c0,0.5,0.2,1,0.3,1.6c0.2,0.8,0.2,1.6,0.2,2.4c-0.3,2.8-0.8,5.6-0.8,8.5c0,2.3-0.5,4.5-0.7,6.8c0,0.2-0.1,0.5-0.1,0.7
					c-0.1,1.2-0.1,1.1,2.2,1.4c3.7,0.3,7.2-0.1,10.9-0.4c1.1-0.1,1.2-0.2,1.3-0.9c0.2-1.8,0.2-3.7,0.5-5.5c0.5-3.4,0.9-6.7,1.4-10.1
					c0.2-1.5,0.3-3,0.2-4.5c-0.1-0.6,0-1.1,0.1-1.6c0.1-0.3,0.5-0.5,1.1-0.5c0.6,0.1,1.2,0.2,1.8,0.2c1.2,0.2,1.9,0.6,2.1,1.2
					c0.9,2.6,1.6,5.1,1.1,7.7c-0.7,2.8-0.7,5.6-0.6,8.3c0,1-0.3,1.9-0.3,2.8c-0.1,2.7,0,5.5-0.3,8.2c-0.4,3.3-0.2,6.6-0.8,9.9
					c-0.1,0.8,0,1.5-0.1,2.3c-0.2,1.2-2.4,1.9-4.4,1.4c-0.1,0-0.2-0.1-0.4-0.1c-1.5-0.2-1.9-0.9-2.1-1.6c-0.3-1.1-0.2-2.3-0.3-3.5
					C-726.1,291.1-725.9,288.4-725.8,285.7z"/>
				<polygon class="st2" points="-904.3,276 -890.3,276 -894,282.4 -906.2,282.4 				"/>
			</g>
			<g>
				<g>
					<path class="st2" d="M-1076-118.4c3,0.8,4.2,2.6,3.7,5.5c0,0.2-0.4,2.1-1.3,5.9c-0.9,3.8-2.1,8.7-3.6,14.8
						c-1.6,6.1-3.4,13.1-5.6,20.8c-2.2,7.7-4.6,15.6-7.2,23.5c-6.5,19.3-13.1,34.4-19.6,45.2c-1.4,2.4-3,5-4.7,7.6
						c-1.7,2.6-3.7,5-5.9,7.2c-2.3,2.2-4.7,4.1-7.5,5.5c-2.7,1.5-5.7,2.2-9,2.2c-5.1,0-9.3-1.8-12.6-5.5c-3-3.2-5-7.5-6.2-13
						c-1.2-5.4-1.8-11.7-1.9-18.7c-0.1-7,0.3-14.7,1.1-22.8c0.8-8.2,1.6-16.6,2.6-25.1c0.8-7.3,1.5-14.4,2.1-21.2
						c0.6-6.8,1-13,1.2-18.7c0.2-7.3-0.2-12.6-1.2-15.7c-0.9-3.1-1.8-5.2-2.6-6.3c-0.8-0.8-1.7-1.1-2.8-1.1c-0.5,0-1.6,0.6-3.4,1.7
						c-1.8,1.1-4.2,4.3-7.1,9.5c-2,3.5-4,7.7-6.1,12.5c-2,4.8-4,10.4-6.1,16.6c-4.5,13.6-7.5,24-9.1,31c-1.6,7-2.6,11.4-3,13.1
						c-0.6,2.1-2.4,3.7-5.4,4.7c-3,1-6.1,1.5-9.6,1.4c-3.4-0.1-6.5-0.8-9.1-2.1c-2.6-1.3-3.9-3.1-3.7-5.4l1.6-68.9
						c0-2.1,1.5-4,4.4-5.5c3-1.5,6.2-2.4,9.7-2.6c3.5-0.2,6.7,0.3,9.6,1.5c2.9,1.2,4.3,3.5,4.3,6.9l-0.7,29.6l2.1-6.7
						c2.2-6.4,4.3-12.2,6.4-17.3c2.1-5.1,4.2-9.6,6.4-13.4c1.6-2.8,3.5-5.5,5.8-8.3c2.3-2.8,4.9-5.1,7.8-7c2.9-1.9,6-3.2,9.4-4
						c3.4-0.8,7-0.7,10.7,0.2c1.4,0.3,3,0.9,4.7,1.7c1.7,0.8,3.4,2,5.1,3.6c1.7,1.5,3.3,3.6,4.9,6.1c1.6,2.5,2.8,5.7,3.7,9.5
						c1.2,4.9,1.6,11.9,0.9,21c-0.6,9.1-1.6,19.4-2.8,30.9c-0.9,8.7-1.8,17.3-2.6,25.8c-0.8,8.5-1.1,16.4-0.9,23.8
						c0,5.4,0.1,9.7,0.4,13.1c0.2,3.4,0.7,5.6,1.5,6.7c0.8,1.1,1.9,1,3.4-0.3c1.5-1.3,3.5-4,5.9-8.1c6.1-10.3,12.3-24.7,18.7-43.4
						c2.6-8,5-15.8,7.1-23.4c2.1-7.7,3.9-14.5,5.5-20.4c1.6-6,3.2-12.7,4.9-20.2c0.3-1.2,1-2.2,2-3
						C-1078.4-118.4-1077.2-118.7-1076-118.4z"/>
					<path class="st2" d="M-994.2-120.8c-0.3,46.6-7.2,77-20.2,93.9c-26.3,34.1-69.4,16.1-77-12.7c-1.8-6.9-3-14.8-3-23.6
						c0-8.9,0.9-17.8,2.8-26.6c1.9-9,4.6-16.9,8.2-23.6c4-7.7,15.4-21.3,30.2-23.6c16.9-2.6,25.6,7.9,27.6,14.6
						c1.7,6.1,1.7,14.2-0.5,21.6c-2,5.2-13.4,4.5-12.3-2.5c1.2-4.9,2.9-10,2.1-14.8c-0.9-6.2-4.3-6-7.8-3.6
						c-30,20.9-26.7,72.5-22.7,82c5,11.8,19.8,25.2,37.1,9.4c13.9-12.7,27.1-52.2,22.9-85C-1009.6-137.5-994.1-132.8-994.2-120.8z"
						/>
					<path class="st2" d="M-899-117.2c1.2,0.3,2.2,1,2.8,2.1c0.6,1.1,0.8,2.2,0.5,3.4c-1.7,6.3-3.4,11.9-5,16.9
						c-1.6,5-3.6,10.6-5.8,16.9c-2.3,6.3-4.8,12.6-7.6,19.1C-928.9-24.3-943.3-7-957.3-7c-5.8,0-10.1-2.4-13.1-7.1
						c-3.9-6.1-5.5-16.1-4.9-29.8c0.3-5.4,0.9-11.2,1.8-17.6c0.9-6.3,2.1-13.3,3.6-20.8c1.7-7.8,3.5-15.2,5.2-22.2
						c1.8-7,3.3-12.7,4.5-17.1c-6.7,2.3-13.5,4.2-20.5,5.6c-7,1.5-14.2,2.2-21.5,2.2c-10.1,0,8.2-11.9,7.2-9.4
						c5.1-0.5,10.1-1.3,14.9-2.4c4.8-1.1,9.1-2.3,12.7-3.6c3.7-1.2,6.6-2.3,9-3.2c2.3-0.9,3.6-1.5,4-1.6c1.9-0.8,4.4-1.5,7.5-2.1
						c3.1-0.6,6.1-0.8,8.9-0.6s5.1,1,6.8,2.3c1.7,1.3,2.1,3.5,1.2,6.5c-1.9,7-3.8,14-5.7,20.9c-1.9,6.9-3.7,13.8-5.2,20.8
						c-1.6,7-2.9,14.1-4.1,21.5c-1.2,7.3-1.9,15-2.2,23c-0.3,6-0.1,10,0.7,12.2c0.8,2.1,1.9,2.9,3.4,2.2c1.5-0.7,3.1-2.4,5-5.1
						c1.9-2.7,3.7-5.8,5.6-9.4c1.9-3.6,3.7-7.3,5.4-11c1.7-3.7,3.2-7,4.4-9.8c2.6-6.3,5.1-12.5,7.4-18.6c2.3-6.1,4.2-11.6,5.7-16.4
						c1.6-4.8,3.3-10.3,5.1-16.4c0.3-1.2,1-2.1,2.1-2.8C-901.4-117.4-900.3-117.5-899-117.2z"/>
					<path class="st2" d="M-818.1-118.4c1.2,0.6,2.1,1.5,2.4,2.6c0.4,1.1,0.3,2.3-0.4,3.6c-5.3,11-10.5,20.9-15.5,29.6
						c-5.1,8.7-10.1,16.3-15,22.7c-3.1,4-6.2,7.6-9.2,10.8c-3,3.2-6.1,5.9-9.2,8c-7.2,5.4-14.1,8-20.8,8c-1.7,0-3.6-0.3-5.7-0.8
						c-2.1-0.5-4.2-1.7-6.4-3.4c-2.2-1.8-4.2-4.2-6.2-7.5c-1.9-3.2-3.6-7.5-5-12.9c-1.9-7.5-2.9-15.9-2.7-25.3
						c1.4-57.1,26.7-72,41.1-72.9c4.1-0.3,7.7,0.8,10.8,2.8c8.8,5.7,14.2,23.8,4.1,45.2c-11.7,24.6-30.5,25.8-30.5,25.8
						s-2.1,20.8,8,32.3c1.8,2.1,4.7,3.3,7.7,1.3c2.7-1.8,5.3-4.4,8-7.2c2.7-2.8,5.6-6.1,8.5-9.8c9.3-12.4,19.2-29.3,29.6-50.7
						c0.6-1.2,1.5-2.1,2.7-2.5C-820.5-119.1-819.3-119-818.1-118.4z M-861-140.2c-0.9-1.3-4.5,1.7-6.5,4
						c-17.9,20.4-17.7,38.6-18.7,45.2C-867.4-92.4-855.1-131.5-861-140.2z"/>
					<path class="st2" d="M-1034.5,72.8c3,0.8,4.2,2.6,3.7,5.5c-1.7,7.7-3.3,14.5-4.9,20.5c-1.6,6-3.4,13-5.6,20.8
						c-2.2,7.8-4.7,15.7-7.5,23.6c-6.2,19-12.7,34.1-19.4,45.2c-1.4,2.4-3,5-4.7,7.6c-1.7,2.6-3.7,5-5.9,7.2
						c-2.3,2.2-4.7,4.1-7.5,5.5c-2.7,1.5-5.7,2.2-9,2.2c-5.4,0-9.9-1.9-13.3-5.7c-5-5.4-7.4-15.5-7.2-30.3c0-6.1,0.4-12.7,1.2-19.6
						c0.8-7,1.6-14,2.3-21c0.8-6.4,1.5-12.6,2.1-18.5c0.6-5.9,1-11.4,1.2-16.4c0.2-6.4-0.2-11.1-1-13.9c-0.9-2.8-1.7-4.7-2.5-5.6
						c-0.6-0.8-1.6-1.1-3-1.1c-0.6,0-1.6,0.3-2.8,0.8c-1.2,0.5-2.8,1.9-4.8,4.1c-1.9,2.2-4.2,5.5-6.8,9.8
						c-2.6,4.3-5.3,10.2-8.3,17.7c-1.7,4.4-3.3,8.7-4.8,12.9c-1.5,4.1-2.7,7.8-3.7,11.1c-1,3.3-2.1,7-3.1,11.1
						c-0.6,2.5-2.6,4.1-5.8,5.1c-3.3,0.9-6.6,1.2-10.1,0.8c-3.5-0.4-6.5-1.3-9.1-2.6s-3.2-3.1-2.7-5.5c9.2-41.4,10-66.4,7.3-83.1
						c-0.5-3-1.6-4.2-2.7-3.8c-1.1,0.4-2.4,2.2-4,5.5c-1.6,3.3-3.3,7.5-5.4,12.7c-10.6,25.9-24.2,73.2-24.4,73.9
						c-0.6,2.6-3.7,5-5.4,5.7c-3,1.2-7,1.7-10.4,1.7s-6.6-0.4-9.1-2c-4.7-2.9-3.5-8.4-1.6-12.7c3.1-7,3.3-65.5,3.3-65.5
						c0-2,1.5-3.6,4.4-4.9c3-1.3,6.2-2.1,9.7-2.3c3.5-0.2,6.7,0.2,9.6,1.4c2.9,1.1,4.3,3.2,4.3,6.1l-0.7,29.8
						c1.7-6.1,3.5-12.1,5.4-17.9c1.9-5.8,3.9-11.4,6.1-16.8c4.5-11.2,9.1-19.4,13.6-24.7c4.6-5.3,9.4-7.9,14.6-7.9
						c5.6,0,10.2,2.1,13.8,6.4c4.4,5.7,6.8,14.4,7.5,26.2c0.3,3.5,0.4,7.4,0.4,11.6c-0.1,4.2-0.4,8.7-0.8,13.4
						c1.4-2.9,2.8-5.5,4.1-7.8c1.3-2.3,2.7-4.4,4.1-6.4c1.7-2.4,3.8-4.9,6.3-7.2c2.5-2.4,5.2-4.4,8-6c2.9-1.6,6-2.8,9.3-3.4
						c3.3-0.7,6.6-0.6,9.9,0.3c1.4,0.3,3,0.9,4.7,1.7c1.7,0.8,3.4,2,5.1,3.6c1.7,1.5,3.3,3.6,4.9,6.1c1.6,2.5,2.8,5.7,3.7,9.5
						c1.2,4.9,1.5,11.5,0.8,19.7c-0.7,8.3-1.7,17.4-2.9,27.6c-0.8,7.3-1.6,14.7-2.3,21.9c-0.8,7.3-1.1,14-0.9,20.1
						c0,10.1,0.8,15.6,2.3,16.6c1.6,1,4.5-2.1,8.9-9.3c6.1-10.3,12.3-24.7,18.7-43.4c2.6-8,5-15.8,7.1-23.4
						c2.1-7.7,3.9-14.5,5.5-20.4c1.6-6,3.1-12.7,4.7-20.2C-1039.3,73.6-1037.4,72.4-1034.5,72.8z"/>
					<path class="st2" d="M-909.9,72.6c1.2,0.3,2.2,1,2.8,2.2c0.6,1.1,0.8,2.3,0.5,3.6c-2.2,6.3-4.2,11.9-6,17
						c-1.8,5.1-3.9,10.8-6.4,17.1c-2.5,6.4-5.2,12.7-8.2,19.2c-16,35-31,52.6-44.8,52.6h-2.3c-4.5-0.8-8-3.1-10.5-7.1
						c-3.9-5.8-5.4-16-4.4-30.5c0.3-4.1,0.7-8.6,1.3-13.4c0.5-4.8,1.4-10,2.4-15.5c-0.8,1.4-1.6,2.7-2.6,4c-0.9,1.3-1.9,2.6-2.8,3.8
						c-2.6,3.4-5.3,6.7-8,9.9c-2.7,3.2-5.6,6-8.7,8.5c-3.1,2.5-6.4,4.4-9.9,5.9c-3.5,1.5-7.2,2.2-11.1,2.2h-1.9
						c-2.2-0.3-4.6-1.1-7.2-2.5c-2.6-1.4-5-4-7-7.8c-3.1-6.1-4.7-14.3-4.7-24.6c0-8.1,0.9-16,2.7-23.5c1.8-7.6,4.5-14.6,8-21
						c3.6-6.4,7.6-11.5,12-15.3c4.4-3.7,9-6,13.6-6.8c4.4-0.6,8.2,0.1,11.7,2.1c3.4,2,6.4,4.6,9,7.9c2.6,3.3,4.7,7,6.3,11
						c1.6,4.1,2.9,7.9,3.8,11.6c0.3,1.2,0.1,2.3-0.7,3.1c-0.8,0.8-1.7,1.4-2.7,1.7c-1,0.3-2.1,0.3-3.1-0.1c-1.1-0.4-1.9-1.2-2.3-2.4
						c-2-6-3.9-10.6-5.5-14c-1.6-3.4-3.3-5.2-5-5.6c-1.7-0.4-3.5,0.7-5.5,3.3c-1.9,2.6-4.3,6.9-7.1,12.9
						c-4.8,10.7-7.2,22.4-7.2,35.1c0,8,0.5,13.5,1.5,16.6c1,3.1,2.5,4.5,4.4,4.1c1.9-0.4,4.4-2.2,7.2-5.5c2.9-3.3,6.2-7.4,9.9-12.3
						c4.8-6.4,9.7-15.2,14.6-26.2c4.9-11,9.6-23.5,14.1-37.4c0.6-2.1,2.5-3.5,5.7-4.1c3.2-0.6,6.5-0.6,9.8-0.1
						c3.3,0.5,6.3,1.5,8.9,2.8c2.6,1.3,3.5,2.7,2.9,4.2c-0.3,0.6-0.9,2.4-1.8,5.3c-0.9,2.9-1.9,6.6-3.1,11
						c-1.2,4.4-2.6,9.6-4.1,15.4c-1.5,5.8-2.9,11.9-4.3,18.4c-2.5,11-4.2,20.2-5.3,27.4c-1,7.3-1.6,13.2-1.9,17.8
						c-0.2,4.6-0.2,8,0.2,10.3c0.4,2.3,0.8,3.9,1.3,4.8c3.1-3.1,6.8-7.8,11.1-14.2c4.3-6.4,9.1-15.5,14.3-27.3
						c3-6.4,5.7-12.7,8.2-18.9c2.5-6.2,4.6-11.7,6.3-16.6c1.7-4.9,3.6-10.5,5.6-16.8c0.5-1.2,1.2-2.1,2.3-2.6
						C-912.3,72.4-911.1,72.3-909.9,72.6z"/>
					<path class="st2" d="M-772.5,72.6c1.2,0.3,2.2,1,2.8,2.2c0.6,1.1,0.8,2.3,0.5,3.6c-2.2,6.1-4.2,11.7-6.1,16.6
						c-1.9,5-4.1,10.6-6.6,16.9c-2.6,6.3-5.4,12.7-8.5,19.3c-7.8,15.8-15.2,28.1-22.4,37c-9.8,12.2-19.5,18.4-29.2,18.4h-0.2
						c-5.4,0-10-2-13.5-6c-3.6-4.1-5.9-10.4-7.1-18.7c-1.2-8.3-1.3-19.2-0.3-32.7c-3.9,5.2-8.3,9.9-13.3,14c-1.9,1.4-4,2.8-6.4,4.4
						c-2.4,1.5-4.9,2.9-7.6,4c-2.6,1.1-5.4,1.9-8.2,2.3c-2.8,0.4-5.4,0.2-7.9-0.6c-3.1-0.6-5.9-1.9-8.3-3.8
						c-2.4-1.9-4.5-4.4-6.2-7.5c-3.4-6.1-5.1-14.5-5.1-25c0-7.8,1-15.7,2.9-23.6c1.9-8,4.7-15.2,8.3-21.8c1.7-3.2,3.6-6.1,5.7-8.7
						c2.1-2.6,4.2-5,6.4-7.1c5.1-4.6,10.3-7.1,15.4-7.6c2.8-0.3,6.1,0.1,9.9,1.1c3.8,1.1,7.7,4.1,11.8,9c3.7,4.4,7,10.2,9.8,17.2
						c1.2-7.5,2.6-15.5,4.2-23.9c1.6-8.4,3.1-16.8,4.8-25.3c1.6-8.4,3.2-16.6,4.7-24.7c1.5-8,2.8-15.5,4.1-22.4
						c0.2-0.9,1-1.8,2.6-2.6c1.6-0.8,3.4-1.6,5.6-2.2c2.2-0.6,4.5-1,6.9-1.1c2.4-0.2,4.6,0,6.6,0.3c2,0.4,3.7,1.1,4.9,2.2
						c1.2,1.1,1.7,2.6,1.4,4.6C-812-9.1-814,2-816.3,13.6c-2.3,11.6-4.7,23.4-7,35.4s-4.5,23.8-6.6,35.5
						c-2.1,11.7-3.7,22.9-4.8,33.6c-1.7,17.4-2.1,30.4-1.2,38.8s3,12.8,6.2,13.1c3.2,0.3,7.3-3.2,12.5-10.6
						c5.1-7.3,11.2-18.1,18.2-32.1c3.1-6.4,5.9-12.7,8.5-18.8c2.6-6.1,4.7-11.6,6.5-16.4c1.8-4.8,3.7-10.3,5.7-16.4
						c0.5-1.2,1.2-2.1,2.3-2.6C-774.9,72.4-773.7,72.3-772.5,72.6z M-898.2,116.9c0,7.5,0.7,12.9,2,16.3c1.3,3.4,3.1,5.3,5.3,5.7
						c2.2,0.5,4.6-0.3,7.3-2.3c2.7-2,5.5-4.6,8.3-7.8c2.8-3.2,5.4-6.7,7.9-10.6c2.5-3.8,4.7-7.4,6.5-10.8l1.6-11.7v-0.2
						c-0.6-2.1-1.4-5.1-2.4-8.8c-1-3.7-2.4-7.5-4.1-11.1c-2.2-4.7-4.4-7.9-6.5-9.4c-2.2-1.5-4.3-1.8-6.4-0.9
						c-2.1,0.9-4.2,2.8-6.3,5.7c-2.1,2.9-4.1,6.5-5.9,10.8C-895.8,92.5-898.2,104.2-898.2,116.9z"/>
					<path class="st2" d="M-649.3,72.6c1.2,0.3,2.2,1,2.8,2.2c0.6,1.1,0.8,2.3,0.5,3.6c-2.2,6.3-4.2,11.9-5.9,17
						c-1.8,5.1-3.9,10.8-6.4,17.1c-2.5,6.4-5.2,12.7-8.2,19.2c-16,35-31,52.6-44.8,52.6h-2.3c-4.5-0.8-8-3.1-10.5-7.1
						c-3.9-5.8-5.4-16-4.4-30.5c0.3-4.1,0.7-8.6,1.3-13.4c0.5-4.8,1.4-10,2.5-15.5c-0.8,1.4-1.6,2.7-2.6,4c-0.9,1.3-1.9,2.6-2.8,3.8
						c-2.6,3.4-5.3,6.7-8,9.9c-2.7,3.2-5.6,6-8.7,8.5c-3.1,2.5-6.4,4.4-9.9,5.9c-3.5,1.5-7.2,2.2-11.1,2.2h-1.9
						c-2.2-0.3-4.6-1.1-7.2-2.5c-2.6-1.4-5-4-7-7.8c-3.1-6.1-4.7-14.3-4.7-24.6c0-8.1,0.9-16,2.7-23.5c1.8-7.6,4.5-14.6,8-21
						c3.6-6.4,7.6-11.5,12-15.3c4.4-3.7,9-6,13.6-6.8c4.4-0.6,8.2,0.1,11.7,2.1c3.4,2,6.4,4.6,9,7.9c2.6,3.3,4.7,7,6.3,11
						c1.6,4.1,2.9,7.9,3.9,11.6c0.3,1.2,0.1,2.3-0.7,3.1c-0.8,0.8-1.7,1.4-2.7,1.7c-1,0.3-2.1,0.3-3.1-0.1c-1.1-0.4-1.9-1.2-2.3-2.4
						c-2-6-3.8-10.6-5.5-14c-1.6-3.4-3.3-5.2-5-5.6c-1.7-0.4-3.5,0.7-5.5,3.3c-1.9,2.6-4.3,6.9-7.1,12.9
						c-4.8,10.7-7.2,22.4-7.2,35.1c0,8,0.5,13.5,1.5,16.6c1,3.1,2.5,4.5,4.4,4.1c1.9-0.4,4.4-2.2,7.2-5.5c2.9-3.3,6.2-7.4,9.9-12.3
						c4.8-6.4,9.7-15.2,14.6-26.2c4.9-11,9.6-23.5,14.1-37.4c0.6-2.1,2.5-3.5,5.7-4.1c3.2-0.6,6.5-0.6,9.8-0.1
						c3.3,0.5,6.3,1.5,8.9,2.8c2.6,1.3,3.5,2.7,2.9,4.2c-0.3,0.6-0.9,2.4-1.8,5.3c-0.9,2.9-1.9,6.6-3.1,11
						c-1.2,4.4-2.6,9.6-4.1,15.4c-1.5,5.8-2.9,11.9-4.3,18.4c-2.5,11-4.2,20.2-5.2,27.4c-1,7.3-1.6,13.2-1.9,17.8
						c-0.2,4.6-0.2,8,0.2,10.3c0.4,2.3,0.8,3.9,1.3,4.8c3.1-3.1,6.8-7.8,11.1-14.2c4.3-6.4,9.1-15.5,14.3-27.3
						c3-6.4,5.7-12.7,8.2-18.9c2.5-6.2,4.6-11.7,6.3-16.6c1.7-4.9,3.6-10.5,5.6-16.8c0.5-1.2,1.2-2.1,2.3-2.6
						C-651.7,72.4-650.6,72.3-649.3,72.6z"/>
					<path class="st2" d="M-549.2,72.6c3,1.1,3.9,3.1,2.8,6c-1.9,4.9-4.3,9.5-7.2,13.8c-3,4.3-6.3,8.4-10.1,12.3
						c-3.8,3.9-7.9,7.7-12.2,11.4c-4.4,3.7-8.9,7.2-13.5,10.6c0.8,0.9,1.4,1.8,2,2.8c0.5,0.9,1.1,1.8,1.8,2.8
						c7.6,13,10.9,26.8,9.8,41.3c-0.9,11.8-4.9,22.1-11.9,31c-5.9,8.1-13.5,14.3-22.9,18.6c-7.6,3.5-14.9,5.3-21.9,5.3
						c-3.3,0-6.4-0.4-9.4-1.3c-3-0.8-5.7-2.1-8-3.8c-3.9-2.5-6.7-5.8-8.4-10.1c-1.9-4.4-2.6-9.4-2.1-14.9c0.6-6.7,2.3-13,4.9-18.8
						c2.6-5.8,5.9-11.3,9.9-16.4c4-5.1,8.5-10,13.5-14.5c5.1-4.5,10.4-8.9,16-13.2c-7.2-8-14.5-15.6-22.2-23
						c-7.6-7.3-14.5-15.3-20.5-23.8s-10.8-18.1-14.2-28.8c-3.4-10.7-4.5-23.5-3.3-38.3c0.8-7.5,3.3-14.8,7.5-22
						c4.2-7.2,10-12.5,17.5-15.8c9.2-3.8,17.6-2.9,25.2,2.8c9.6,6.4,12.6,19.2,8.9,38.3c-1.7,8.6-4.3,17.2-7.8,25.8
						c-3.5,8.6-6.9,16.2-10.1,22.6c2.8,4.1,5.8,8.1,9.1,11.9c3.3,3.8,6.6,7.6,10.1,11.2c3.5,3.7,7,7.4,10.6,11.1
						c3.6,3.8,7.1,7.7,10.5,11.8c9-6.7,17.1-13.5,24.4-20.4c7.2-6.9,12.5-14.7,15.7-23.4c0.3-1.2,1-2.1,2.2-2.6
						C-551.7,72.2-550.5,72.2-549.2,72.6z M-651.4,199.1c-0.3,4.4,0.3,8.4,1.9,11.8c1.6,3.4,4.4,5.5,8.6,6.1
						c4.4,0.5,8.6-0.4,12.8-2.6c4.2-2.2,8-5.4,11.4-9.5c3.4-4.1,6.3-9,8.5-14.6c2.3-5.6,3.6-11.4,4.1-17.6c0.5-6,0-11.4-1.3-16.2
						c-1.3-4.8-3.3-9.4-5.9-13.7c-5.1,4-10,8-14.7,12.2c-4.7,4.1-8.8,8.5-12.4,13.1c-3.6,4.6-6.5,9.4-8.9,14.5
						C-649.6,187.6-651,193.1-651.4,199.1z M-626.9,22.8c1.1-5.7,1.4-10.5,1-14.6c-0.4-4.1-1.3-7.2-2.8-9.4
						c-1.5-2.2-3.2-3.5-5.2-3.8c-2-0.3-4,0.5-6,2.3c-1.9,1.8-3.7,4.8-5.4,8.8c-1.6,4.1-2.8,9.4-3.4,16c-0.8,8.3-0.4,15.7,1.1,22.4
						c1.5,6.7,3.6,12.9,6.4,18.7c2.8-5.8,5.6-12.3,8.3-19.4C-630.2,36.7-628.2,29.7-626.9,22.8z"/>
				</g>
				<g>
					<path class="st2" d="M-1246.2-176.3h-45c-4.2,0-7.6-3.4-7.6-7.5s3.4-7.5,7.6-7.5h45c4.2,0,7.6,3.4,7.6,7.5
						S-1242-176.3-1246.2-176.3z"/>
				</g>
			</g>
		</g>
	</g>
	<g>
		<path d="M55.6,49.6c0.7,0.3,1.1,0.8,1.3,1.4c0.2,0.6,0.1,1.3-0.2,1.9c-2.8,5.9-5.6,11.3-8.4,15.9c-2.7,4.7-5.4,8.8-8.1,12.2
			c-1.7,2.1-3.3,4.1-5,5.8c-1.6,1.7-3.3,3.2-5,4.3c-3.9,2.9-7.6,4.3-11.2,4.3c-0.9,0-1.9-0.1-3.1-0.4c-1.1-0.3-2.3-0.9-3.5-1.9
			c-1.2-0.9-2.3-2.3-3.3-4c-1-1.7-1.9-4-2.7-6.9c-1-4-1.6-8.6-1.4-13.6C5.9,38,19.5,30,27.3,29.5c2.2-0.1,4.2,0.4,5.8,1.5
			c4.8,3.1,7.6,12.8,2.2,24.3C29,68.5,18.9,69.2,18.9,69.2s-1.1,11.2,4.3,17.4c1,1.1,2.5,1.8,4.2,0.7c1.5-1,2.9-2.4,4.3-3.9
			c1.5-1.5,3-3.3,4.6-5.3c5-6.7,10.3-15.8,16-27.3c0.3-0.7,0.8-1.1,1.4-1.4C54.3,49.2,54.9,49.2,55.6,49.6z M32.5,37.8
			C32,37.1,30.1,38.7,29,40c-9.6,11-9.5,20.8-10,24.3C29,63.5,35.6,42.5,32.5,37.8z"/>
		<g>
			<g>
				<path d="M76.4,252.9c-1.5,0-2.6-0.4-3.1-1.2c-0.2-0.2-0.3-0.5-0.5-0.7c-0.2-0.2,0.1-0.4,0.5-0.4c0.2,0,0.3,0,0.4,0
					c3.1,0.2,6.1,0.1,9.2-0.1c1.1-0.1,2.2-0.2,3.3-0.2c1.2,0,2.3,0.1,2.8,0.8c0.1,0.1,0.1,0.2,0.2,0.2c0.8,0.6,0.7,0.6-0.7,0.8
					c-1.5,0.2-3,0.3-4.6,0.5c-0.4,0.1-0.8,0.1-1.3,0.2c-0.3,0-0.5,0.1-0.3,0.3c0.9,0.7,0.8,1.5,0.7,2.3c-0.3,1.8-0.7,3.5-1,5.3
					c-0.1,0.4-0.1,0.8-0.1,1.2c0.1,2-0.3,4-0.4,6c0,0.3,0,0.6,0,1c0.1,0.6,0,2.6,0.1,3.1c0.1,0.4-0.2,0.9-0.8,1
					c-0.3,0-0.7,0.1-1,0.1c-0.7,0-1.5-0.2-1.7-0.6c-0.1-0.2-0.2-0.4-0.2-0.6c0-0.9-0.3-1.8-0.2-2.7c0.1-0.4,0.1-0.8,0.1-1.1
					c0.1-1.7,0.3-3.5,0.4-5.2c0.1-0.7,0.1-1.3,0.2-2c0.3-2.4,0.2-4.8,0.7-7.2c0-0.2,0.1-0.3,0.1-0.5c0-0.2-0.2-0.4-0.6-0.3
					c-0.5,0-1,0-1.5,0C76.9,252.9,76.7,252.9,76.4,252.9z"/>
				<path d="M92.8,257.5c0.1-0.9,0.2-1.9,0.2-2.8c0-0.8-0.1-1.6-0.2-2.4c0-0.2-0.1-0.4,0.1-0.6c0.3-0.4,0.5-0.5,1.2-0.3
					c0.3,0.1,0.7,0.1,1,0.1c0.8,0.2,1.5,0.5,1.8,1c0.3,0.6,0.6,1.2,0.5,1.8c-0.1,0.8,0.3,1.6,0.2,2.4c-0.1,0.9-0.2,1.7-0.4,2.5
					c-0.4,1-0.4,2.1-0.5,3.1c-0.2,1-0.2,2-0.3,3c-0.1,0.9-0.1,1.8,0.1,2.8c0.1,0.9,0.1,1.8,0.3,2.7c0.1,0.5,0.9,2.1,2.4,2
					c1.8-0.1,3-4,3.3-5.1c0.2-1,0.5-2,0.3-3c-0.1-0.8,0.1-2.9,0.2-3.9c0.1-0.7,0.2-1.5,0.2-2.3c0-0.7,0.1-1.5,0.3-2.2
					c0.1-0.5,0.2-1,0.2-1.5c0.1-0.9,0.1-1.8,0.2-2.7c0-0.2,0.2-0.4,0.4-0.6c0.4-0.3,1.2-0.4,1.7-0.1c0.3,0.1,0.4,0.3,0.7,0.4
					c0.3,0.2,0.5,0.4,0.4,0.7c-0.1,0.4-0.9,7.4-1,8c-0.2,0.8-0.3,4-0.3,4.8c0,0.8-0.2,1.6-0.4,2.4c-0.1,0.3-1.1,5.5-4.4,5.9
					c-1.3,0.2-2.5,0.3-3.7-0.1c-0.5-0.2-1-0.3-1.5-0.4c-0.6-0.1-1-0.4-1.4-0.7c-0.7-0.7-1.2-1.5-1.3-2.3c-0.3-1.6-0.3-3.2-0.3-4.8
					c0-0.8,0-1.5,0-2C92.7,261.1,92.7,259.3,92.8,257.5z"/>
				<path d="M125.6,256.2c0.1-0.7,0.2-1.4,0.4-2.1c0.1-0.6,0.1-1.2,0.1-1.8c0-0.2-0.2-0.5,0.3-0.6c0.4-0.2,0.9-0.3,1.4-0.3
					c1.8,0.2,3.8,0.3,5.5,0.7c0.3,0.1,0.7,0.2,1,0.3c0.9,0.3,1.6,0.8,2.4,1.2c1,0.6,1.6,1.2,1.9,2c0.1,0.1,0.1,0.2,0.2,0.3
					c1.3,1.8,0.8,3.7,0.3,5.6c-0.2,0.8-0.6,1.6-0.8,2.4c-0.1,0.3-0.2,0.7-0.2,1c-0.1,0.7-0.6,1.3-0.9,2c-0.5,1-1,1.9-1.5,2.9
					c-0.4,0.9-1.3,1.7-2,2.6c-0.2,0.3-0.6,0.5-1.1,0.6c-0.4,0.1-0.8,0.2-1.2,0.3c-0.7,0.2-1.3,0.2-1.9,0.1c-0.5-0.1-0.9-0.1-1.3,0.1
					c-0.3,0.2-0.7,0.1-1,0c-0.3-0.1-0.5-0.1-0.8-0.2c-1.2-0.2-1.2-0.2-1.4-0.8c-0.1-0.2-0.1-0.5-0.1-0.7c0-2.1,0-4.3,0-6.7
					C125.2,262.2,125.4,259.2,125.6,256.2z M128.4,271.6c0,0.6,0.5,0.5,1.1,0.4c0.3-0.1,0.5-0.2,0.7-0.4c0.4-0.3,0.7-0.7,0.9-1
					c0.6-0.9,0.9-1.9,1.3-2.9c0.6-1.3,1.2-2.5,1.6-3.8c0.3-0.9,0.3-1.9,0.5-2.8c0.2-1,0.2-2,0.2-3c0.1-1.4-0.5-2.8-1.5-4.1
					c-0.2-0.3-0.5-0.6-0.8-0.8c-0.4-0.4-1.1-0.5-1.8-0.4c-0.3,0-0.5,0.1-0.6,0.3c0,0.2,0,0.4,0,0.6c-0.1,0.8-0.1,1.6-0.2,2.4
					c-0.2,1.6-0.7,3.1-0.7,4.6c0,0.4-0.1,0.8-0.2,1.2c-0.1,0.5-0.2,0.9-0.1,1.3c0.2,1.2-0.2,2.4-0.2,3.7c0,0.8-0.2,1.7-0.3,2.8
					C128.4,270.1,128.4,270.9,128.4,271.6z"/>
				<path d="M151.1,272.1c1-0.1,2.1,0,2.8,0.5c0.2,0.1,0.2,0.4-0.1,0.5c-0.4,0.2-0.8,0.2-1.2,0.2c-1.5,0.1-2.9,0.3-4.3,0.4
					c-1.8,0.2-3.5-0.1-5.1-0.4c-0.6-0.1-0.7-0.4-0.9-0.7c-0.2-0.6-0.3-1.2-0.3-1.8c0.1-0.7,0-1.5,0.1-2.2c0.1-1,0.1-2.1,0.2-3.1
					c0.2-1.8,0-3.6,0.1-5.5c0-1.3,0.1-2.7,0.2-4c0.1-1.1,0.2-2.2-0.1-3.4c-0.1-0.4,0.3-0.6,0.9-0.5c1.4,0.3,2.7,0,4.1,0
					c1.2,0,2.4-0.1,3.5-0.1c1,0,1.9,0,2.9,0.2c0.2,0,0.4,0.1,0.6,0.2c0.2,0.1,0.5,0.3,0.4,0.4c0,0.2-0.4,0.3-0.8,0.3
					c-0.7,0.1-1.5,0.2-2.2,0.2c-0.8,0-1.5,0.1-2.2,0.3c-0.8,0.2-1.5,0.3-2.4,0.2c-0.6,0-0.7,0.1-0.7,0.4c0,0.2,0.1,0.5,0.1,0.8
					c0.1,0.7,0.2,1.4,0,2.1c-0.2,0.7-0.2,1.4-0.2,2.1c-0.1,1.2-0.2,2.4-0.2,3.6c0,0.2,0,0.3,0,0.4c0,0.2,0.2,0.3,0.6,0.2
					c0.3,0,0.7-0.1,1.1-0.1c1.3-0.1,2.6-0.2,3.8,0c0.3,0,0.7,0.1,0.9,0.3c0.2,0.2,0.1,0.4-0.4,0.5c-0.8,0.1-1.5,0.3-2.3,0.3
					c-1.1,0.1-2.1,0.4-3.2,0.4c-0.3,0-0.5,0.1-0.5,0.3c0,0.1-0.1,0.2-0.1,0.4c-0.1,1.2-0.2,2.3-0.4,3.5c-0.1,0.9,0.1,1.7-0.1,2.6
					c0,0.1,0.1,0.2,0.1,0.4c0.2,0.4,0.3,0.5,1.2,0.4c0.2,0,0.4,0,0.7,0c0.3,0,0.5-0.1,0.8-0.1C149.4,272.3,150.3,272.3,151.1,272.1z
					"/>
				<path d="M172.1,263.4c-0.5,0.8-1.3,1.5-2.4,2c-0.9,0.4-1.6,0.9-2.7,1.2c-0.2,0-0.2,0.2-0.1,0.3c0.1,0.1,0.2,0.2,0.3,0.2
					c1.1,0.9,2.1,1.9,2.9,3c0.7,0.9,1.4,1.9,2.2,2.8c0.3,0.4,0.3,0.7-0.3,1c-0.5,0.3-1.4,0.4-2,0.1c-0.7-0.3-1-0.8-1.2-1.3
					c-0.9-1.7-2.3-3.2-3.6-4.8c-0.1-0.1-0.3-0.2-0.4-0.3c-0.1-0.1-0.2-0.2-0.4-0.2c-0.1,0-0.2,0.1-0.2,0.2c-0.2,0.3-0.2,0.7-0.2,1
					c0.1,1.4-0.1,2.8-0.3,4.1c0,0.2-0.1,0.5-0.1,0.7c-0.2,0.3-0.4,0.4-0.9,0.4c-0.8,0-1.5-0.3-2.2-0.6c-0.4-0.1-0.4-0.4-0.3-0.6
					c0.3-0.9,0.2-1.8,0.2-2.7c0.1-1.8-0.1-3.5-0.1-5.4c0-2-0.1-3.9,0.2-5.9c0.2-1.2,0.2-2.4,0.4-3.6c0.2-1,0.3-2,0.3-3
					c0-0.3-0.1-0.6-0.1-0.9c-0.1-0.3,0.1-0.4,0.5-0.4c2.7,0,5.3,0.3,7.6,1.1c1,0.4,2,0.9,2.6,1.5c1.2,1.2,1.6,2.4,1.6,3.7
					c-0.1,0.2-0.1,0.4-0.1,0.6C173.4,259.7,173.1,261.6,172.1,263.4z M164,264.7c0,0.2-0.2,0.6,0.2,0.7c0.5,0.2,0.9-0.2,1.3-0.4
					c0.1-0.1,0.3-0.2,0.4-0.2c1.8-1.1,2.7-2.4,3.1-3.8c0.3-1.5,0.3-3.1,0.3-4.6c-0.1-0.3-0.1-0.6-0.2-0.8c-0.2-0.5-0.4-0.9-0.6-1.3
					c-0.3-0.6-0.8-1.1-1.5-1.6c-0.4-0.2-1.5-0.5-2-0.3c-0.5,0.2-0.4,0.6-0.3,0.8c0.4,1.4-0.1,2.8-0.2,4.2c-0.2,1.8-0.4,3.5-0.5,5.3
					C164,263.3,164,264,164,264.7z"/>
				<path d="M178.2,266.6c0-1.3,0.2-2.6,0.4-3.9c0.1-1.3,0.2-2.5,0.3-3.8c0-0.6,0-1.2,0.3-1.7c0.1-0.1,0.1-0.3,0.1-0.5
					c0-1,0-2,0.1-3c0-0.5-0.2-1-0.4-1.5c0-0.2-0.1-0.3-0.1-0.4c0-0.2,0.1-0.4,0.6-0.4c0.7,0.1,1.4,0,1.9,0.5
					c1.7,0.6,2.2,1.8,2.6,2.9c0.7,1.8,1.2,3.6,1.8,5.4c0.2,0.7,0.4,1.3,0.9,2c0,0,0.1,0.1,0.1,0.1c0,0,0.1-0.1,0.2-0.1
					c0.3-0.6,0.5-1.2,0.7-1.8c0.1-0.4,0.2-0.8,0.5-1.2c0.2-0.4,0.6-0.7,0.4-1.1c0.6-0.5,0.3-1,0.5-1.6c0.3-0.8,0.6-1.6,0.9-2.4
					c0.2-0.7,0.7-1.3,1.2-1.9c0.3-0.5,1.1-0.5,1.8-0.7c0.1,0,0.2,0,0.3,0.1c1.4,0.6,2.4,1.3,2.3,2.4c-0.2,1.3-0.3,2.7-0.7,4
					c-0.2,0.8-0.5,1.6-0.3,2.4c0,0.2,0,0.3,0,0.5c0,0.1-0.1,0.2-0.1,0.3c0,0.9-0.5,1.7-0.4,2.5c0,0.2,0,0.3-0.1,0.5
					c0,0.2-0.1,0.3-0.1,0.5c0.2,1.5,0.1,3,0.2,4.5c0,0.7,0,1.5-0.1,2.2c0,0.6-0.1,1.2,0,1.8c0,0.3-0.1,0.5-0.5,0.7
					c-0.2,0.1-0.4,0.2-0.6,0.2c-1.2,0.4-1.9,0.2-2.2-0.7c-0.2-0.4-0.2-0.9-0.2-1.3c0-1.3-0.1-2.5,0-3.8c0-1.4,0.2-2.8,0.3-4.2
					c0.2-1.4,0.4-2.8,0.6-4.2c0.1-1,0.3-2.1,0.6-3.1c0.2-0.9,0.4-1.8,0.5-2.7c0-0.1,0-0.2-0.1-0.2c0,0-0.1,0-0.2,0.1
					c-0.2,0.5-0.6,0.9-0.7,1.3c-0.5,1.2-0.9,2.4-1.5,3.6c-0.2,0.6-0.3,1.2-0.6,1.7c-0.4,1-0.7,2-1.3,3c-0.1,0.2-0.1,0.4-0.2,0.6
					c-0.2,0.6-0.2,0.5-1.1,0.6c-1.1,0.1-1.7-0.3-2.2-0.9c-0.4-0.5-0.7-1-0.8-1.6c0-0.8-0.6-1.4-0.8-2.2c0,0-0.1-0.1-0.2-0.1
					c-0.1,0-0.1,0.1-0.1,0.2c0,0.6,0,1.3,0,1.9c0,0.9-0.2,1.7-0.3,2.6c0,0.2-0.1,0.4-0.1,0.6c-0.1,1.1-0.2,2.2-0.3,3.4
					c-0.1,1-0.1,2-0.2,3.1c0,0.1,0,0.2,0,0.4c-0.1,1-0.2,1-1,1c-1.5,0-2.3-0.3-2.4-1.1c0-0.6,0-1.1,0-1.7c0-0.6,0-1.3,0-1.9h0
					C178.2,268,178.2,267.3,178.2,266.6z"/>
				<path d="M211.1,260c-0.1,0.8,0.1,1.5,0.3,2.3c0.3,1,0.3,2.1,0.4,3.2c0.3,1.7,0.5,3.5,0.9,5.3c0.2,0.9,0.4,1.9,0.9,2.8
					c0.1,0.2-0.1,0.3-0.4,0.4c-1.2,0.2-2.3-0.1-3.3-0.4c-0.3-0.1-0.5-0.2-0.6-0.4c-0.1-0.2-0.2-0.4-0.3-0.7
					c-0.4-1.3-0.7-2.5-0.9-3.8c-0.1-0.6-0.2-1.3-0.3-1.9c-0.1-0.4-0.3-0.5-0.9-0.4c-1.7,0-3.4,0.1-5.2,0.1c-0.5,0-0.8,0.2-0.9,0.4
					c-0.4,0.9-0.8,1.8-0.9,2.7c-0.2,0.6-0.4,1.1-0.6,1.6c-0.2,0.4-0.3,0.9-0.4,1.3c-0.1,0.2-0.2,0.4-0.4,0.6
					c-0.5,0.5-1.3,0.5-2.1,0.5c-0.4,0-0.5,0-0.5-0.2c-0.1-0.4,0.2-0.8,0.2-1.2c0.2-1.3,0.9-2.5,1.3-3.8c0.2-0.6,0.4-1.2,0.7-1.8
					c0.1-0.2,0.1-0.5-0.3-0.6c-0.2-0.1-0.3-0.2-0.3-0.4c-0.1-0.3-0.1-0.5,0.5-0.6c0.7-0.1,0.9-0.4,1-0.7c0.3-0.8,0.7-1.7,1-2.5
					c0.6-1.6,1.2-3.1,2.1-4.6c0.8-1.3,1.5-2.7,2.4-4.1c0.3-0.4,0.6-0.8,1-1.2c0.4-0.3,0.8-0.6,1.6-0.4c0.3,0,0.5,0.1,0.7,0
					c0.7-0.2,1.1,0,1.4,0.3c0.8,0.8,1.5,1.6,1.7,2.5c0.2,0.9-0.1,1.7,0.2,2.7C210.7,257.8,211.1,258.9,211.1,260z M206.4,255.4
					c0-0.1-0.1-0.2-0.1-0.4c-0.3,0-0.3,0.2-0.4,0.3c-0.9,1.2-1.2,2.4-1.9,3.7c-0.8,1.6-1.3,3.2-2,4.8c-0.4,1-0.4,0.9,1.3,1
					c0.3,0,0.7,0,1,0c0.7-0.1,1.4-0.1,2.1-0.1c0.7,0,0.8-0.1,0.8-0.5c-0.1-0.6-0.2-1.2-0.2-1.8c-0.2-1-0.3-2.1-0.4-3.1
					C206.6,258.2,206.4,255.7,206.4,255.4z"/>
				<path d="M234.7,258.2c0.4-1.3,1-2.5,1.9-3.8c0.5-0.8,1.4-1.5,2.4-2.2c0.4-0.3,1-0.5,1.6-0.7c1.4-0.3,2.9-0.4,4.4-0.1
					c1,0.2,1.8,0.6,2.6,1c0.1,0,0.1,0,0.1,0.1c0.5,1,1.1,2,0.4,3c-0.4,0.6-0.8,0.7-1.8,0.3c-0.3-0.1-0.6-0.2-0.9-0.4
					c-1-0.4-1.3-0.9-1.3-1.6c0-0.2,0.1-0.3,0.2-0.5c0.1-0.2,0.2-0.3-0.2-0.4c-0.3-0.1-0.5,0.1-0.8,0.1c-0.3,0.1-2.3,1-4.4,5.8
					c-1,2-3.8,13.2,0.6,12.2c1.2-0.3,2-1,2.8-1.6c0.9-0.8,1.8-1.5,2.7-2.3c0.4-0.3,0.8-0.4,1.3-0.2c0.5,0.1,0.7,0.4,0.5,0.7
					c-0.1,0.2-1.4,2.5-4.5,4.8c-0.8,0.6-3.1,0.6-3.8,0.5c-2.2-0.3-3.3-1-4.2-2.3c-0.3-0.4-0.4-0.8-0.6-1.3c-0.5-1.3-0.5-2.7-0.5-4.2
					C233.3,263,233.9,260.6,234.7,258.2z"/>
				<path d="M262.1,257c-0.3-0.8-0.5-1.5-1.6-2.1c-0.4-0.2-0.8-0.5-1.4-0.6c-0.4-0.1-0.4-0.2-0.4-0.5c0.1-0.2,0.3-0.4,0.7-0.4
					c0.5,0,1.8,0.2,2.3,0.3c1.7,0.6,2.7,1.5,3.1,2.6c0.4,1,1,2,0.9,3.1c0.7,2.1,0,4.2-0.4,6.3c-0.3,1.3-0.7,2.6-1.3,3.9
					c-0.2,0.5-0.4,1-0.7,1.6c-0.5,0.8-1.4,1.5-2.4,2.2c-0.7,0.4-1.6,0.4-2.5,0.4c-1.4-0.1-2.7-0.3-4-0.7c-0.8-0.2-1.5-0.6-1.8-1.1
					c-0.1-0.1-0.2-0.2-0.4-0.4c-2.1-1.8-2.7-3.8-2.8-5.9c0-1,0-2,0.2-3.1c0.2-1.7,0.4-3.4,1-5c0.4-1.3,1-2.6,2-3.8
					c0.8-1,2.3-1.7,3.7-2.4c1-0.5,3-0.4,4.1,0.1c0.6,0.2,0.7,0.5,0.2,0.8c-0.6,0.4-1.2,0.7-1.9,1c-0.3,0.1-0.6,0.3-0.8,0.5
					c-1.3,1.3-2.5,2.6-3.1,4.1c-0.4,1-0.7,2-0.9,2.9c-0.1,0.6-0.2,1.2-0.4,1.9c-0.3,1.6-0.3,3.2,0,4.7c0.1,0.8,0.3,1.7,0.7,2.5
					c0.4,0.8,1,1.4,1.6,2.1c0.1,0.1,0.3,0.2,0.4,0.3c0.5,0.3,1.3,0.3,1.8,0c0.3-0.2,0.6-0.4,0.9-0.6c1-0.9,1.8-1.9,2.2-2.9
					c0.9-2.1,1.3-4.3,1.4-6.5c0.1-0.4,0-0.7,0-1.1C262.6,259.7,262.7,258.3,262.1,257z"/>
				<path d="M282.7,260c-0.1,0.8,0.1,1.5,0.3,2.3c0.3,1,0.3,2.1,0.4,3.2c0.3,1.7,0.5,3.5,0.9,5.3c0.2,0.9,0.4,1.9,0.9,2.8
					c0.1,0.2-0.1,0.3-0.4,0.4c-1.2,0.2-2.3-0.1-3.3-0.4c-0.3-0.1-0.5-0.2-0.6-0.4c-0.1-0.2-0.2-0.4-0.3-0.7
					c-0.4-1.3-0.7-2.5-0.9-3.8c-0.1-0.6-0.2-1.3-0.3-1.9c-0.1-0.4-0.3-0.5-0.9-0.4c-1.7,0-3.4,0.1-5.2,0.1c-0.5,0-0.8,0.2-0.9,0.4
					c-0.4,0.9-0.8,1.8-0.9,2.7c-0.2,0.6-0.4,1.1-0.6,1.6c-0.2,0.4-0.3,0.9-0.4,1.3c-0.1,0.2-0.2,0.4-0.4,0.6
					c-0.5,0.5-1.3,0.5-2.1,0.5c-0.4,0-0.5,0-0.5-0.2c-0.1-0.4,0.2-0.8,0.2-1.2c0.2-1.3,0.9-2.5,1.3-3.8c0.2-0.6,0.4-1.2,0.7-1.8
					c0.1-0.2,0.1-0.5-0.3-0.6c-0.2-0.1-0.3-0.2-0.3-0.4c-0.1-0.3-0.1-0.5,0.5-0.6c0.7-0.1,0.9-0.4,1-0.7c0.3-0.8,0.7-1.7,1-2.5
					c0.6-1.6,1.2-3.1,2.1-4.6c0.8-1.3,1.5-2.7,2.4-4.1c0.3-0.4,0.6-0.8,1-1.2c0.4-0.3,0.8-0.6,1.6-0.4c0.3,0,0.5,0.1,0.7,0
					c0.7-0.2,1.1,0,1.4,0.3c0.8,0.8,1.5,1.6,1.7,2.5c0.2,0.9-0.1,1.7,0.2,2.7C282.3,257.8,282.7,258.9,282.7,260z M278,255.4
					c0-0.1-0.1-0.2-0.1-0.4c-0.3,0-0.3,0.2-0.4,0.3c-0.9,1.2-1.2,2.4-1.9,3.7c-0.8,1.6-1.3,3.2-2,4.8c-0.4,1-0.4,0.9,1.3,1
					c0.3,0,0.7,0,1,0c0.7-0.1,1.4-0.1,2.1-0.1c0.7,0,0.8-0.1,0.8-0.5c-0.1-0.6-0.2-1.2-0.2-1.8c-0.2-1-0.3-2.1-0.4-3.1
					C278.2,258.2,278,255.7,278,255.4z"/>
				<path d="M288,258.2c0.4-1.3,1-2.5,1.9-3.8c0.5-0.8,1.4-1.5,2.4-2.2c0.4-0.3,1-0.5,1.6-0.7c1.4-0.3,2.9-0.4,4.4-0.1
					c1,0.2,1.8,0.6,2.6,1c0.1,0,0.1,0,0.1,0.1c0.5,1,1.1,2,0.4,3c-0.4,0.6-0.8,0.7-1.8,0.3c-0.3-0.1-0.6-0.2-0.9-0.4
					c-1-0.4-1.3-0.9-1.3-1.6c0-0.2,0.1-0.3,0.2-0.5c0.1-0.2,0.2-0.3-0.2-0.4c-0.3-0.1-0.5,0.1-0.8,0.1c-0.3,0.1-0.7,0.3-0.8,0.5
					c-0.1,0.3-0.4,0.6-0.7,0.7c-1,0.7-1.5,1.5-1.9,2.3c-0.4,0.7-0.8,1.5-1,2.3c-0.5,1.4-1.1,2.8-1.2,4.3c0,0.7-0.4,1.4-0.4,2.1
					c0,0.3,0,0.6,0.1,0.9c0.1,0.6,0.2,1.1-0.1,1.7c-0.1,0.1-0.1,0.2-0.1,0.2c0.2,0.9,0.2,1.7,0.5,2.6c0.3,0.7,0.6,0.8,1.8,0.4
					c1.2-0.4,2-1,2.8-1.6c0.9-0.8,1.8-1.5,2.7-2.3c0.4-0.3,0.8-0.4,1.3-0.2c0.5,0.1,0.7,0.4,0.5,0.7c-0.1,0.2-0.2,0.3-0.4,0.5
					c-0.1,0.2-0.4,0.4-0.4,0.6c-0.1,0.9-1,1.5-1.9,2.2c-0.6,0.5-1.3,0.9-1.8,1.4c-0.2,0.2-0.5,0.3-1,0.4c-0.7,0.1-1.5,0.2-2.2,0.1
					c-2.2-0.3-4-1-4.8-2.3c-0.3-0.4-0.4-0.8-0.6-1.3c-0.5-1.3-0.5-2.7-0.5-4.2C286.6,263,287.2,260.6,288,258.2z"/>
				<path d="M315.9,266.9c0.1-0.3,0.1-0.6,0.1-0.9c-0.1-0.4-0.2-0.5-0.9-0.4c-0.2,0-0.5,0-0.7,0c-1,0.2-2.1,0.3-3.2,0.2
					c-0.3,0-0.7,0.1-1,0.1c-2.5,0.3-2.1,0.1-2.1,1.4c-0.1,1-0.3,2-0.3,3c0,0.7-0.1,1.5-0.4,2.2c-0.1,0.2,0,0.5,0,0.7
					c0,0.4-0.2,0.5-0.8,0.6c-0.6,0.1-1.2-0.2-1.8-0.1c-0.1,0-0.2-0.1-0.3-0.2c-0.1-0.1-0.1-0.2-0.2-0.3c-0.1-1.1-0.2-2.2-0.1-3.3
					c0-0.7,0.2-1.5-0.1-2.2c-0.1-0.4,0-0.8,0.1-1.2c0.1-0.4-0.1-0.7-0.7-1c-0.2-0.1-0.4-0.2-0.6-0.3c-0.4-0.3-0.2-0.6,0.5-0.7
					c0.3,0,0.5,0,0.8-0.1c0.2-0.2,0.2-0.3,0.2-0.5c0.1-0.1,0.1-0.1,0.1-0.2c0-1.9,0.4-3.9,0.3-5.8c0-1.2,0.1-2.4,0.1-3.5
					c0.1-0.8,0-1.6-0.1-2.4c-0.1-0.5,0.3-0.7,1.1-0.7c0.5,0,1,0,1.5,0.1c0.9,0.2,1.5,0.5,1.5,1c0,0.3,0.1,0.6,0.2,0.9
					c0.1,0.4,0.1,0.9,0.1,1.3c-0.2,1.5-0.4,3-0.4,4.6c0,1.2-0.3,2.4-0.4,3.7c0,0.1-0.1,0.2-0.1,0.4c-0.1,0.7-0.1,0.6,1.2,0.7
					c2,0.2,3.9,0,5.9-0.2c0.6-0.1,0.7-0.1,0.7-0.5c0.1-1,0.1-2,0.3-3c0.3-1.8,0.5-3.6,0.8-5.4c0.1-0.8,0.2-1.6,0.1-2.4
					c-0.1-0.3,0-0.6,0.1-0.9c0.1-0.2,0.3-0.3,0.6-0.3c0.3,0,0.7,0.1,1,0.1c0.7,0.1,1,0.3,1.2,0.7c0.5,1.4,0.9,2.8,0.6,4.1
					c-0.4,1.5-0.4,3-0.3,4.5c0,0.5-0.2,1-0.2,1.5c-0.1,1.5,0,2.9-0.2,4.4c-0.2,1.8-0.1,3.5-0.4,5.3c-0.1,0.4,0,0.8-0.1,1.3
					c-0.1,0.6-1.3,1-2.4,0.7c-0.1,0-0.1-0.1-0.2-0.1c-0.8-0.1-1-0.5-1.2-0.9c-0.2-0.6-0.1-1.3-0.2-1.9
					C315.8,269.8,315.9,268.3,315.9,266.9z"/>
				<polygon points="219.8,261.7 227.3,261.7 225.4,265.1 218.8,265.1 				"/>
			</g>
			<g>
				<g>
					<path d="M127.4,49.3c1.6,0.4,2.3,1.4,2,3c0,0.1-0.2,1.1-0.7,3.2c-0.5,2-1.1,4.7-1.9,8c-0.8,3.3-1.8,7-3,11.2
						c-1.2,4.2-2.5,8.4-3.9,12.7c-3.5,10.4-7,18.5-10.6,24.4c-0.8,1.3-1.6,2.7-2.5,4.1c-0.9,1.4-2,2.7-3.2,3.9c-1.2,1.2-2.6,2.2-4,3
						c-1.5,0.8-3.1,1.2-4.8,1.2c-2.8,0-5-1-6.8-3c-1.6-1.7-2.7-4.1-3.3-7c-0.6-2.9-1-6.3-1-10.1c0-3.8,0.1-7.9,0.6-12.3
						c0.4-4.4,0.9-8.9,1.4-13.5c0.4-4,0.8-7.8,1.1-11.4c0.3-3.7,0.5-7,0.6-10.1c0.1-4-0.1-6.8-0.6-8.5c-0.5-1.7-1-2.8-1.4-3.4
						c-0.4-0.4-0.9-0.6-1.5-0.6c-0.3,0-0.9,0.3-1.8,0.9c-1,0.6-2.2,2.3-3.8,5.1c-1.1,1.9-2.2,4.1-3.3,6.7c-1.1,2.6-2.2,5.6-3.3,9
						c-2.4,7.3-4.1,12.9-4.9,16.7c-0.8,3.8-1.4,6.1-1.6,7c-0.3,1.2-1.3,2-2.9,2.5c-1.6,0.5-3.3,0.8-5.2,0.7c-1.8,0-3.5-0.4-4.9-1.1
						c-1.4-0.7-2.1-1.7-2-2.9L51,51.5c0-1.2,0.8-2.1,2.4-3c1.6-0.8,3.3-1.3,5.2-1.4c1.9-0.1,3.6,0.1,5.2,0.8
						c1.5,0.7,2.3,1.9,2.3,3.7l-0.4,15.9l1.1-3.6c1.2-3.5,2.3-6.6,3.5-9.3c1.1-2.8,2.3-5.2,3.5-7.2c0.8-1.5,1.9-3,3.1-4.5
						c1.3-1.5,2.7-2.7,4.2-3.8c1.5-1,3.2-1.7,5.1-2.2c1.8-0.4,3.8-0.4,5.8,0.1c0.8,0.2,1.6,0.5,2.5,0.9c0.9,0.5,1.8,1.1,2.8,1.9
						c0.9,0.8,1.8,1.9,2.6,3.3c0.8,1.4,1.5,3.1,2,5.1c0.7,2.6,0.8,6.4,0.5,11.3c-0.3,4.9-0.8,10.4-1.5,16.6c-0.5,4.7-1,9.3-1.4,13.9
						c-0.4,4.6-0.6,8.8-0.5,12.8c0,2.9,0.1,5.2,0.2,7c0.1,1.8,0.4,3,0.8,3.6c0.4,0.6,1,0.5,1.8-0.2c0.8-0.7,1.9-2.2,3.2-4.4
						c3.3-5.5,6.6-13.3,10-23.4c1.4-4.3,2.7-8.5,3.8-12.6c1.1-4.1,2.1-7.8,3-11c0.8-3.2,1.7-6.8,2.6-10.9c0.2-0.7,0.5-1.2,1.1-1.6
						C126.1,49.3,126.7,49.2,127.4,49.3z"/>
					<path d="M171.4,48c-0.1,25.1-3.9,41.5-10.9,50.6c-14.2,18.4-37.4,8.7-41.5-6.8c-1-3.7-1.6-8-1.6-12.7c0-4.8,0.5-9.6,1.5-14.3
						c1-4.9,2.5-9.1,4.4-12.7c2.2-4.1,8.3-11.5,16.3-12.7c9.1-1.4,13.8,4.2,14.9,7.9c0.9,3.3,0.9,7.7-0.3,11.7
						c-1.1,2.8-7.2,2.4-6.6-1.3c0.7-2.6,1.5-5.4,1.1-8c-0.5-3.3-2.3-3.2-4.2-2c-16.2,11.3-14.4,39-12.2,44.2
						c2.7,6.3,10.7,13.6,20,5.1c7.5-6.8,14.6-28.1,12.3-45.8C163.1,39,171.5,41.5,171.4,48z"/>
					<path d="M222.7,49.9c0.7,0.2,1.2,0.5,1.5,1.1c0.3,0.6,0.4,1.2,0.3,1.9c-0.9,3.4-1.8,6.4-2.7,9.1c-0.9,2.7-1.9,5.7-3.1,9.1
						c-1.2,3.4-2.6,6.8-4.1,10.3c-8,18.6-15.7,27.9-23.2,27.9c-3.1,0-5.4-1.3-7-3.8c-2.1-3.3-3-8.7-2.6-16.1c0.2-2.9,0.5-6,0.9-9.5
						c0.5-3.4,1.1-7.1,1.9-11.2c0.9-4.2,1.9-8.2,2.8-11.9c1-3.7,1.8-6.8,2.4-9.2c-3.6,1.2-7.3,2.2-11.1,3c-3.8,0.8-7.6,1.2-11.6,1.2
						c-5.4,0,4.4-6.4,3.9-5.1c2.8-0.2,5.4-0.7,8-1.3c2.6-0.6,4.9-1.3,6.8-1.9c2-0.7,3.6-1.2,4.8-1.7c1.3-0.5,2-0.8,2.1-0.9
						c1-0.4,2.3-0.8,4-1.1c1.7-0.3,3.3-0.4,4.8-0.3c1.5,0.1,2.7,0.5,3.6,1.2c0.9,0.7,1.1,1.9,0.6,3.5c-1,3.8-2,7.5-3.1,11.2
						c-1,3.7-2,7.4-2.8,11.2c-0.8,3.8-1.6,7.6-2.2,11.6c-0.6,4-1,8.1-1.2,12.4c-0.2,3.2,0,5.4,0.4,6.6c0.4,1.2,1,1.5,1.8,1.2
						c0.8-0.4,1.7-1.3,2.7-2.7c1-1.4,2-3.1,3-5.1c1-1.9,2-3.9,2.9-5.9c0.9-2,1.7-3.8,2.4-5.3c1.4-3.4,2.7-6.7,4-10
						c1.2-3.3,2.2-6.2,3.1-8.8c0.8-2.6,1.8-5.5,2.8-8.8c0.2-0.7,0.5-1.2,1.1-1.5C221.4,49.9,222,49.8,222.7,49.9z"/>
					<path d="M266.3,49.3c0.7,0.3,1.1,0.8,1.3,1.4c0.2,0.6,0.1,1.3-0.2,1.9c-2.8,5.9-5.6,11.3-8.4,15.9c-2.7,4.7-5.4,8.8-8.1,12.2
						c-1.7,2.1-3.3,4.1-5,5.8c-1.6,1.7-3.3,3.2-5,4.3c-3.9,2.9-7.6,4.3-11.2,4.3c-0.9,0-1.9-0.1-3.1-0.4c-1.1-0.3-2.3-0.9-3.5-1.9
						c-1.2-0.9-2.3-2.3-3.3-4c-1-1.7-1.9-4-2.7-6.9c-1-4-1.6-8.6-1.4-13.6c0.8-30.8,14.4-38.8,22.1-39.2c2.2-0.1,4.2,0.4,5.8,1.5
						c4.8,3.1,7.6,12.8,2.2,24.3C239.7,68.3,229.5,69,229.5,69s-1.1,11.2,4.3,17.4c1,1.1,2.5,1.8,4.2,0.7c1.5-1,2.9-2.4,4.3-3.9
						c1.5-1.5,3-3.3,4.6-5.3c5-6.7,10.3-15.8,16-27.3c0.3-0.7,0.8-1.1,1.4-1.4C264.9,48.9,265.6,49,266.3,49.3z M243.2,37.6
						c-0.5-0.7-2.4,0.9-3.5,2.2c-9.6,11-9.5,20.8-10,24.3C239.7,63.3,246.3,42.2,243.2,37.6z"/>
					<path d="M149.7,152.3c1.6,0.4,2.3,1.4,2,3c-0.9,4.1-1.8,7.8-2.6,11.1c-0.8,3.3-1.8,7-3,11.2c-1.2,4.2-2.5,8.4-4,12.7
						c-3.4,10.2-6.8,18.3-10.4,24.4c-0.8,1.3-1.6,2.7-2.5,4.1c-0.9,1.4-2,2.7-3.2,3.9c-1.2,1.2-2.6,2.2-4,3
						c-1.5,0.8-3.1,1.2-4.8,1.2c-2.9,0-5.3-1-7.2-3.1c-2.7-2.9-4-8.3-3.9-16.3c0-3.3,0.2-6.8,0.6-10.6c0.4-3.7,0.8-7.5,1.3-11.3
						c0.4-3.5,0.8-6.8,1.1-10c0.3-3.2,0.5-6.1,0.6-8.8c0.1-3.5-0.1-6-0.6-7.5c-0.5-1.5-0.9-2.5-1.3-3c-0.3-0.4-0.9-0.6-1.6-0.6
						c-0.3,0-0.8,0.1-1.5,0.4c-0.7,0.3-1.5,1-2.6,2.2c-1,1.2-2.3,2.9-3.6,5.3c-1.4,2.3-2.9,5.5-4.5,9.5c-0.9,2.4-1.8,4.7-2.6,6.9
						c-0.8,2.2-1.5,4.2-2,6c-0.5,1.8-1.1,3.8-1.7,6c-0.3,1.3-1.4,2.2-3.1,2.7c-1.8,0.5-3.6,0.6-5.5,0.4c-1.9-0.2-3.5-0.7-4.9-1.4
						c-1.4-0.7-1.7-1.7-1.4-3c4.9-22.3,5.4-35.8,4-44.8c-0.3-1.6-0.9-2.2-1.4-2c-0.6,0.2-1.3,1.2-2.1,3c-0.8,1.8-1.8,4.1-2.9,6.9
						c-5.7,13.9-13.1,39.4-13.1,39.8c-0.3,1.4-2,2.7-2.9,3.1c-1.6,0.6-3.7,0.9-5.6,0.9c-1.8,0-3.5-0.2-4.9-1.1
						c-2.5-1.5-1.9-4.5-0.9-6.8c1.7-3.8,1.8-35.3,1.8-35.3c0-1.1,0.8-2,2.4-2.7c1.6-0.7,3.3-1.1,5.2-1.2c1.9-0.1,3.6,0.1,5.2,0.7
						c1.5,0.6,2.3,1.7,2.3,3.3l-0.4,16.1c0.9-3.3,1.9-6.5,2.9-9.6c1-3.1,2.1-6.1,3.3-9c2.4-6,4.9-10.4,7.3-13.3
						c2.5-2.8,5.1-4.3,7.9-4.3c3,0,5.5,1.2,7.4,3.5c2.3,3,3.7,7.7,4,14.1c0.2,1.9,0.2,4,0.2,6.2c0,2.3-0.2,4.7-0.4,7.2
						c0.8-1.6,1.5-3,2.2-4.2c0.7-1.2,1.4-2.4,2.2-3.5c0.9-1.3,2.1-2.6,3.4-3.9c1.3-1.3,2.8-2.3,4.3-3.2c1.5-0.9,3.2-1.5,5-1.9
						c1.8-0.4,3.6-0.3,5.3,0.2c0.8,0.2,1.6,0.5,2.5,0.9c0.9,0.5,1.8,1.1,2.8,1.9c0.9,0.8,1.8,1.9,2.6,3.3c0.8,1.4,1.5,3.1,2,5.1
						c0.7,2.6,0.8,6.2,0.4,10.6c-0.4,4.5-0.9,9.4-1.6,14.8c-0.4,4-0.8,7.9-1.3,11.8c-0.4,3.9-0.6,7.5-0.5,10.8c0,5.4,0.4,8.4,1.3,9
						c0.8,0.5,2.4-1.1,4.8-5c3.3-5.5,6.6-13.3,10-23.4c1.4-4.3,2.7-8.5,3.8-12.6c1.1-4.1,2.1-7.8,3-11c0.8-3.2,1.7-6.8,2.5-10.9
						C147.1,152.7,148.1,152,149.7,152.3z"/>
					<path d="M216.8,152.2c0.7,0.2,1.2,0.6,1.5,1.2c0.3,0.6,0.4,1.3,0.3,1.9c-1.2,3.4-2.2,6.4-3.2,9.1c-1,2.7-2.1,5.8-3.5,9.2
						c-1.3,3.4-2.8,6.9-4.4,10.3c-8.6,18.9-16.7,28.3-24.1,28.3h-1.3c-2.4-0.4-4.3-1.7-5.7-3.8c-2.1-3.1-2.9-8.6-2.4-16.4
						c0.2-2.2,0.4-4.6,0.7-7.2c0.3-2.6,0.7-5.4,1.3-8.3c-0.4,0.7-0.9,1.5-1.4,2.2c-0.5,0.7-1,1.4-1.5,2c-1.4,1.8-2.9,3.6-4.3,5.3
						c-1.5,1.7-3,3.3-4.7,4.6c-1.7,1.3-3.5,2.4-5.3,3.2c-1.9,0.8-3.9,1.2-6,1.2h-1c-1.2-0.2-2.5-0.6-3.9-1.4
						c-1.4-0.7-2.7-2.1-3.8-4.2c-1.7-3.3-2.5-7.7-2.5-13.2c0-4.4,0.5-8.6,1.4-12.7c1-4.1,2.4-7.9,4.3-11.3c1.9-3.5,4.1-6.2,6.5-8.2
						c2.4-2,4.8-3.2,7.3-3.6c2.3-0.3,4.4,0,6.3,1.1c1.8,1.1,3.5,2.5,4.8,4.3c1.4,1.8,2.5,3.8,3.4,5.9c0.9,2.2,1.6,4.3,2.1,6.2
						c0.2,0.7,0,1.2-0.4,1.7c-0.4,0.5-0.9,0.8-1.4,0.9c-0.5,0.2-1.1,0.1-1.7-0.1c-0.6-0.2-1-0.6-1.3-1.3c-1.1-3.2-2.1-5.7-3-7.5
						c-0.9-1.8-1.8-2.8-2.7-3c-0.9-0.2-1.9,0.4-3,1.8c-1,1.4-2.3,3.7-3.8,6.9c-2.6,5.8-3.9,12.1-3.9,18.9c0,4.3,0.3,7.3,0.8,9
						c0.5,1.7,1.3,2.4,2.4,2.2c1-0.2,2.3-1.2,3.9-3c1.5-1.8,3.3-4,5.3-6.6c2.6-3.5,5.2-8.2,7.9-14.1c2.6-5.9,5.2-12.7,7.6-20.2
						c0.3-1.2,1.4-1.9,3.1-2.2c1.7-0.3,3.5-0.3,5.3-0.1c1.8,0.3,3.4,0.8,4.8,1.5c1.4,0.7,1.9,1.5,1.6,2.3c-0.2,0.3-0.5,1.3-0.9,2.8
						c-0.5,1.6-1,3.5-1.7,5.9c-0.7,2.4-1.4,5.2-2.2,8.3c-0.8,3.1-1.6,6.4-2.3,9.9c-1.3,5.9-2.3,10.9-2.8,14.8
						c-0.5,3.9-0.9,7.1-1,9.6c-0.1,2.5-0.1,4.3,0.1,5.6c0.2,1.2,0.4,2.1,0.7,2.6c1.7-1.6,3.7-4.2,6-7.7c2.3-3.5,4.9-8.4,7.7-14.7
						c1.6-3.5,3.1-6.9,4.4-10.2c1.3-3.3,2.5-6.3,3.4-9c0.9-2.6,1.9-5.6,3-9c0.3-0.7,0.7-1.1,1.3-1.4
						C215.5,152.1,216.1,152,216.8,152.2z"/>
					<path d="M290.8,152.2c0.7,0.2,1.2,0.6,1.5,1.2c0.3,0.6,0.4,1.3,0.3,1.9c-1.2,3.3-2.3,6.3-3.3,9c-1,2.7-2.2,5.7-3.6,9.1
						c-1.4,3.4-2.9,6.8-4.6,10.4c-4.2,8.5-8.2,15.1-12.1,19.9c-5.3,6.6-10.5,9.9-15.7,9.9h-0.1c-2.9,0-5.4-1.1-7.3-3.2
						c-1.9-2.2-3.2-5.6-3.8-10.1c-0.6-4.5-0.7-10.4-0.2-17.6c-2.1,2.8-4.5,5.3-7.2,7.5c-1,0.7-2.2,1.5-3.5,2.3
						c-1.3,0.8-2.7,1.5-4.1,2.2c-1.4,0.6-2.9,1-4.4,1.2c-1.5,0.2-2.9,0.1-4.3-0.3c-1.7-0.3-3.2-1-4.5-2c-1.3-1-2.4-2.4-3.3-4
						c-1.8-3.3-2.8-7.8-2.8-13.5c0-4.2,0.5-8.4,1.6-12.7c1-4.3,2.5-8.2,4.5-11.7c0.9-1.7,1.9-3.3,3.1-4.7c1.1-1.4,2.3-2.7,3.5-3.8
						c2.8-2.5,5.5-3.8,8.3-4.1c1.5-0.2,3.3,0,5.3,0.6c2.1,0.6,4.2,2.2,6.3,4.8c2,2.4,3.8,5.5,5.3,9.3c0.7-4,1.4-8.3,2.3-12.9
						c0.8-4.5,1.7-9.1,2.6-13.6c0.9-4.5,1.7-9,2.5-13.3c0.8-4.3,1.5-8.3,2.2-12.1c0.1-0.5,0.5-1,1.4-1.4c0.8-0.5,1.8-0.8,3-1.2
						c1.2-0.3,2.4-0.5,3.7-0.6c1.3-0.1,2.5,0,3.6,0.2c1.1,0.2,2,0.6,2.6,1.2c0.7,0.6,0.9,1.4,0.8,2.5c-0.9,5.7-2,11.7-3.3,17.9
						c-1.3,6.3-2.5,12.6-3.8,19s-2.4,12.8-3.6,19.1c-1.1,6.3-2,12.3-2.6,18.1c-0.9,9.4-1.1,16.4-0.6,20.9c0.5,4.5,1.6,6.9,3.3,7
						c1.7,0.2,4-1.7,6.7-5.7c2.8-4,6-9.7,9.8-17.3c1.7-3.5,3.2-6.8,4.6-10.1c1.4-3.3,2.6-6.2,3.5-8.8c1-2.6,2-5.5,3.1-8.8
						c0.3-0.7,0.7-1.1,1.3-1.4C289.5,152.1,290.1,152,290.8,152.2z M223.1,176c0,4,0.4,7,1.1,8.8c0.7,1.8,1.7,2.8,2.8,3.1
						c1.2,0.2,2.5-0.2,4-1.2c1.5-1.1,3-2.5,4.5-4.2c1.5-1.7,2.9-3.6,4.3-5.7c1.3-2.1,2.5-4,3.5-5.8l0.9-6.3v-0.1
						c-0.3-1.2-0.8-2.7-1.3-4.8c-0.5-2-1.3-4-2.2-6c-1.2-2.6-2.3-4.2-3.5-5.1c-1.2-0.8-2.3-1-3.5-0.5c-1.1,0.5-2.3,1.5-3.4,3.1
						c-1.1,1.6-2.2,3.5-3.2,5.8C224.4,162.9,223.1,169.2,223.1,176z"/>
					<path d="M357.1,152.2c0.7,0.2,1.2,0.6,1.5,1.2c0.3,0.6,0.4,1.3,0.3,1.9c-1.2,3.4-2.2,6.4-3.2,9.1c-1,2.7-2.1,5.8-3.5,9.2
						c-1.3,3.4-2.8,6.9-4.4,10.3c-8.6,18.9-16.7,28.3-24.1,28.3h-1.3c-2.4-0.4-4.3-1.7-5.7-3.8c-2.1-3.1-2.9-8.6-2.4-16.4
						c0.2-2.2,0.4-4.6,0.7-7.2c0.3-2.6,0.7-5.4,1.3-8.3c-0.4,0.7-0.9,1.5-1.4,2.2c-0.5,0.7-1,1.4-1.5,2c-1.4,1.8-2.9,3.6-4.3,5.3
						c-1.5,1.7-3,3.3-4.7,4.6c-1.7,1.3-3.5,2.4-5.3,3.2c-1.9,0.8-3.9,1.2-6,1.2h-1c-1.2-0.2-2.5-0.6-3.9-1.4
						c-1.4-0.7-2.7-2.1-3.8-4.2c-1.7-3.3-2.5-7.7-2.5-13.2c0-4.4,0.5-8.6,1.4-12.7c1-4.1,2.4-7.9,4.3-11.3c1.9-3.5,4.1-6.2,6.5-8.2
						c2.4-2,4.8-3.2,7.3-3.6c2.3-0.3,4.4,0,6.3,1.1c1.8,1.1,3.5,2.5,4.8,4.3c1.4,1.8,2.5,3.8,3.4,5.9c0.9,2.2,1.6,4.3,2.1,6.2
						c0.2,0.7,0,1.2-0.4,1.7c-0.4,0.5-0.9,0.8-1.4,0.9c-0.5,0.2-1.1,0.1-1.7-0.1c-0.6-0.2-1-0.6-1.3-1.3c-1.1-3.2-2.1-5.7-3-7.5
						c-0.9-1.8-1.8-2.8-2.7-3c-0.9-0.2-1.9,0.4-3,1.8c-1,1.4-2.3,3.7-3.8,6.9c-2.6,5.8-3.9,12.1-3.9,18.9c0,4.3,0.3,7.3,0.8,9
						c0.5,1.7,1.3,2.4,2.4,2.2c1-0.2,2.3-1.2,3.9-3c1.5-1.8,3.3-4,5.3-6.6c2.6-3.5,5.2-8.2,7.9-14.1c2.6-5.9,5.2-12.7,7.6-20.2
						c0.3-1.2,1.4-1.9,3.1-2.2c1.7-0.3,3.5-0.3,5.3-0.1c1.8,0.3,3.4,0.8,4.8,1.5c1.4,0.7,1.9,1.5,1.6,2.3c-0.2,0.3-0.5,1.3-0.9,2.8
						c-0.5,1.6-1,3.5-1.7,5.9c-0.7,2.4-1.4,5.2-2.2,8.3c-0.8,3.1-1.6,6.4-2.3,9.9c-1.3,5.9-2.3,10.9-2.8,14.8
						c-0.5,3.9-0.9,7.1-1,9.6c-0.1,2.5-0.1,4.3,0.1,5.6c0.2,1.2,0.4,2.1,0.7,2.6c1.7-1.6,3.7-4.2,6-7.7c2.3-3.5,4.9-8.4,7.7-14.7
						c1.6-3.5,3.1-6.9,4.4-10.2c1.3-3.3,2.5-6.3,3.4-9c0.9-2.6,1.9-5.6,3-9c0.3-0.7,0.7-1.1,1.3-1.4
						C355.8,152.1,356.5,152,357.1,152.2z"/>
					<path d="M411,152.2c1.6,0.6,2.1,1.6,1.5,3.2c-1,2.6-2.3,5.1-3.9,7.4c-1.6,2.3-3.4,4.5-5.5,6.6c-2.1,2.1-4.3,4.1-6.6,6.1
						c-2.3,2-4.8,3.9-7.3,5.7c0.4,0.5,0.8,1,1.1,1.5c0.3,0.5,0.6,1,0.9,1.5c4.1,7,5.9,14.4,5.3,22.3c-0.5,6.3-2.6,11.9-6.4,16.7
						c-3.2,4.4-7.3,7.7-12.3,10c-4.1,1.9-8,2.8-11.8,2.8c-1.8,0-3.5-0.2-5.1-0.7c-1.6-0.5-3.1-1.1-4.3-2c-2.1-1.3-3.6-3.1-4.5-5.4
						c-1-2.4-1.4-5.1-1.1-8c0.3-3.6,1.2-7,2.6-10.1c1.4-3.1,3.2-6.1,5.3-8.8c2.1-2.8,4.6-5.4,7.3-7.8c2.7-2.4,5.6-4.8,8.6-7.1
						c-3.9-4.3-7.8-8.4-11.9-12.4c-4.1-4-7.8-8.2-11.1-12.8c-3.3-4.6-5.8-9.7-7.7-15.5c-1.8-5.8-2.4-12.7-1.8-20.6
						c0.4-4,1.8-8,4-11.9c2.3-3.9,5.4-6.7,9.4-8.5c4.9-2.1,9.5-1.6,13.6,1.5c5.2,3.5,6.8,10.3,4.8,20.6c-0.9,4.6-2.3,9.3-4.2,13.9
						c-1.9,4.7-3.7,8.7-5.5,12.2c1.5,2.2,3.1,4.4,4.9,6.4c1.8,2.1,3.6,4.1,5.5,6.1c1.9,2,3.8,4,5.7,6c1.9,2,3.8,4.1,5.7,6.4
						c4.9-3.6,9.2-7.3,13.1-11c3.9-3.7,6.7-7.9,8.5-12.6c0.2-0.7,0.6-1.1,1.2-1.4C409.7,151.9,410.3,151.9,411,152.2z M356,220.3
						c-0.2,2.4,0.2,4.5,1,6.4c0.8,1.9,2.4,2.9,4.6,3.3c2.3,0.2,4.6-0.2,6.9-1.4c2.3-1.2,4.3-2.9,6.2-5.1c1.8-2.2,3.4-4.8,4.6-7.9
						c1.2-3,1.9-6.2,2.2-9.5c0.3-3.2,0-6.1-0.7-8.7c-0.7-2.6-1.8-5-3.2-7.4c-2.8,2.1-5.4,4.3-7.9,6.6c-2.5,2.2-4.7,4.6-6.7,7
						c-1.9,2.5-3.5,5.1-4.8,7.8C357,214.1,356.2,217.1,356,220.3z M369.2,125.3c0.6-3,0.8-5.7,0.6-7.9c-0.2-2.2-0.7-3.9-1.5-5.1
						c-0.8-1.2-1.7-1.9-2.8-2c-1.1-0.2-2.2,0.2-3.2,1.2c-1,1-2,2.6-2.9,4.8c-0.9,2.2-1.5,5-1.8,8.6c-0.4,4.5-0.2,8.5,0.6,12.1
						c0.8,3.6,1.9,6.9,3.5,10.1c1.5-3.1,3-6.6,4.5-10.4C367.4,132.8,368.5,129,369.2,125.3z"/>
				</g>
				<g>
					<path d="M35.7,18.1H11.5c-2.3,0-4.1-1.8-4.1-4s1.8-4,4.1-4h24.2c2.3,0,4.1,1.8,4.1,4S38,18.1,35.7,18.1z"/>
				</g>
			</g>
		</g>
	</g>
</g>
</svg>
