<?xml version="1.0" encoding="utf-8"?>
<!-- Generator: Adobe Illustrator 22.0.0, SVG Export Plug-In . SVG Version: 6.00 Build 0)  -->
<svg version="1.1" id="Capa_1" xmlns="http://www.w3.org/2000/svg" xmlns:xlink="http://www.w3.org/1999/xlink" x="0px" y="0px"
	 viewBox="0 0 250 96" style="enable-background:new 0 0 250 96;" xml:space="preserve">
<style type="text/css">
	.st0{fill:#5A9E97;}
	.st1{fill:url(#SVGID_1_);}
	.st2{fill:#FFFFFF;}
</style>
<g>
	<g>
		<path class="st0" d="M94.2,49.1l13.2,0.3c-0.9,6.8-3.2,12.1-7.1,15.8c-3.9,3.7-8.9,5.6-15.1,5.6c-6.3,0-11.6-2.1-15.8-6.3
			c-4.3-4.2-6.4-9.5-6.4-15.8c0-6.3,2.2-11.6,6.5-15.9c4.3-4.3,9.7-6.5,16-6.5c6.2,0,11.5,2.1,15.6,6.3c2.9,2.9,4.9,7,6.1,12.2
			l-13.5,0.9c-1.5-4.6-4.4-7-8.6-7c-2.7,0-4.9,0.9-6.7,2.8c-1.7,1.9-2.6,4.2-2.6,7.1c0,2.8,0.9,5.1,2.6,6.9c1.7,1.8,3.9,2.7,6.5,2.7
			c2.7,0,4.8-0.8,6.4-2.4C92.9,54.4,93.9,52.1,94.2,49.1z"/>
		<path class="st0" d="M133.4,26.4c6,0,11.1,2.2,15.4,6.5c4.3,4.4,6.4,9.6,6.4,15.7c0,6.2-2.2,11.4-6.5,15.8
			c-4.3,4.3-9.6,6.5-15.8,6.5c-6.1,0-11.4-2.2-15.7-6.5c-4.3-4.3-6.5-9.6-6.5-15.7c0-6.2,2.2-11.5,6.6-15.8S127.1,26.4,133.4,26.4z
			 M133,38.9c-2.6,0-4.8,1-6.6,2.9c-1.8,1.9-2.7,4.2-2.7,6.9c0,2.7,0.9,5,2.7,6.9c1.8,1.9,4,2.9,6.6,2.9c2.6,0,4.8-0.9,6.6-2.8
			c1.8-1.9,2.7-4.2,2.7-6.9c0-2.7-0.9-5-2.7-6.9C137.8,39.9,135.6,38.9,133,38.9z"/>
		<path class="st0" d="M161.2,27.5h15.4c9.1,0,13.7,3.6,13.7,10.8c0,3.6-1.6,6.5-4.7,8.9c4.5,2,6.8,5.5,6.8,10.5c0,3.9-1.3,7-4,9.2
			c-1.3,1.1-2.7,1.9-4.2,2.3c-1.5,0.4-3.5,0.7-6,0.7h-2.4V59h2.1c1.3,0,2.2-0.2,2.7-0.5c0.5-0.3,0.8-0.9,0.8-1.7c0-1.4-1.1-2-3.2-2
			h-2.4V43.4c2.3,0,3.5-0.8,3.5-2.4c0-1.5-1-2.2-3.1-2.2h-2.3v31h-12.6V27.5z"/>
		<path class="st0" d="M208.2,38.9v30.9h-11.6V38.9H208.2z M202.5,25.1c1.6,0,2.9,0.6,4.1,1.7c1.1,1.1,1.7,2.4,1.7,3.9
			c0,1.6-0.5,2.9-1.6,4c-1.1,1-2.5,1.6-4.2,1.6c-1.7,0-3.1-0.5-4.2-1.6c-1.1-1-1.6-2.4-1.6-4c0-1.5,0.6-2.8,1.7-3.9
			C199.5,25.6,200.9,25.1,202.5,25.1z"/>
		<path class="st0" d="M242.6,69.9H231V52.4c0-1.8-0.7-2.7-2.2-2.7c-1.4,0-2.2,0.9-2.2,2.7v17.5h-11.6V52.6c0-4,1.3-7.4,4-10.2
			c2.7-2.8,5.9-4.1,9.8-4.1c4.4,0,8,1.6,10.6,4.8c2.1,2.5,3.1,6,3.1,10.5V69.9z"/>
	</g>
	<linearGradient id="SVGID_1_" gradientUnits="userSpaceOnUse" x1="30.26" y1="26.1537" x2="30.26" y2="70.4265">
		<stop  offset="5.235498e-03" style="stop-color:#67A86A"/>
		<stop  offset="1" style="stop-color:#5A9E97"/>
	</linearGradient>
	<path class="st1" d="M53.2,67.8c0,1.7-1.4,3.1-3.1,3.1H10.5c-1.7,0-3.1-1.4-3.1-3.1V28.2c0-1.7,1.4-3.1,3.1-3.1h39.6
		c1.7,0,3.1,1.4,3.1,3.1V67.8z"/>
	<g>
		<path class="st2" d="M17,47.6v-7l6,3.5L17,47.6z M23,51.9l-6,3.5v-7L23,51.9z M23.2,36.7l0,7l-6-3.5L23.2,36.7z M23.2,44.5v7
			l-6-3.5L23.2,44.5z M23.2,52.3l0,7l-6-3.5L23.2,52.3z M29.8,55.8l-6,3.5l0-7L29.8,55.8z M29.8,40.2l-6,3.5v-7L29.8,40.2z M30,32.8
			v7l-6-3.5L30,32.8z M30,56.3l0,7l-6-3.5L30,56.3z M30.5,39.7l0-7l6.1,3.5L30.5,39.7z M30.5,56.3l6,3.5l-6,3.5V56.3z M30.8,40.2
			l6-3.5l0,7L30.8,40.2z M36.8,52.3v7l-6-3.5L36.8,52.3z M37.3,43.7l0-7l6.1,3.5L37.3,43.7z M43.3,55.8l-6,3.5l0-7L43.3,55.8z
			 M37.3,44.5l6.1,3.5l-6.1,3.5V44.5z M37.5,44.1l6.1-3.5v7L37.5,44.1z M43.6,48.4v7l-6-3.5L43.6,48.4z"/>
	</g>
</g>
</svg>
