<?xml version="1.0" encoding="utf-8"?>
<!-- Generator: Adobe Illustrator 19.0.0, SVG Export Plug-In . SVG Version: 6.00 Build 0)  -->
<svg version="1.0" id="Layer_1" xmlns="http://www.w3.org/2000/svg" xmlns:xlink="http://www.w3.org/1999/xlink" x="0px" y="0px"
	 viewBox="0 0 102 53" style="enable-background:new 0 0 102 53;" xml:space="preserve">
<style type="text/css">
	.st0{fill:#0099CC;}
</style>
<g>
	<polygon class="st0" points="2.4,13.6 2.4,3.2 2.4,3.1 2.5,3.1 99.4,3.1 99.5,3.1 99.5,3.2 99.5,13.6 99.5,13.7 99.4,13.7 
		2.5,13.7 2.4,13.7 	"/>
	<polygon class="st0" points="2.4,49.8 2.4,39.5 2.4,39.4 2.5,39.4 99.4,39.4 99.5,39.4 99.5,39.5 99.5,49.8 99.5,49.9 99.4,49.9 
		2.5,49.9 2.4,49.9 	"/>
	<path class="st0" d="M97.6,28c-0.4,1.6-1.3,3.5-2.6,3.5c-0.3,0-0.5-0.1-0.6-0.3c-0.4-0.5-0.3-1.8,0.2-3.8c0.6-2.2,1.4-3.3,2.3-3.3
		c0.2,0,0.4,0.1,0.6,0.3C98,25,98,26.5,97.6,28 M78.2,28.1c-0.5,2.1-1.3,3.3-2.3,3.3c-0.7,0-1.1-0.7-1.2-0.9
		c0.1-0.3,0.6-2.4,0.8-3.4c0.4-1.5,1.3-2.7,2-2.7c0.2,0,0.4,0.1,0.6,0.3C78.5,25.1,78.7,25.9,78.2,28.1 M68.4,28
		c-0.4,1.6-1.3,3.5-2.6,3.5c-0.3,0-0.5-0.1-0.6-0.3c-0.4-0.5-0.3-1.8,0.3-3.8c0.6-2.2,1.4-3.3,2.3-3.3c0.2,0,0.4,0.1,0.6,0.3
		C68.7,25,68.8,26.5,68.4,28 M99.3,24.1c-0.5-0.7-1.4-1.1-2.3-1.1c-1.8,0-3.3,1-5,3.5c-1.5,2.1-3.3,4.6-4.7,4.6
		c-0.3,0-0.6-0.1-0.7-0.3c-0.4-0.5-0.4-1.7,0-3.4c0.5-1.9,1.4-3.3,2.2-3.3c0.6,0,0.8,0.3,0.9,0.5c-0.2,0-0.5,0.1-0.7,0.2
		c-0.3,0.2-0.4,0.5-0.4,0.9c0,0.3,0.1,0.7,0.3,0.9c0.2,0.2,0.5,0.3,0.8,0.3c0.8,0,1.4-0.7,1.4-1.7c0-0.6-0.2-1.2-0.7-1.7
		c-0.5-0.5-1.1-0.7-1.9-0.7c-2,0-3.8,1.7-4.6,2.7c-1,1.1-2.1,2.3-2.7,2.8c0.5-1.8,0.4-3.4-0.3-4.5c-0.5-0.7-1.2-1.1-2-1.1
		c-1.2,0-2.1,0.6-2.5,0.9l0.2-0.8h-4.2l-0.3,1h1.2c-0.5,1.8-2,3.4-2.8,4.1c0.1-0.3,0.2-0.7,0.2-1.2c0.1-1.3-0.2-2.5-0.9-3.3
		c-0.5-0.6-1.2-0.8-1.9-0.8c-2.1,0-3.9,1.3-5.4,3.8L62,27.5c-1,1.7-2,3.5-3.6,3.5c-0.4,0-0.8-0.2-1.1-0.5c-0.7-0.9-0.7-2.9-0.1-5.1
		c0.8-2.8,2.5-5.6,4.1-5.6c0.3,0,0.5,0.1,0.7,0.3c0.6,0.7,0.7,2.5,0.6,3.2l0,0.1h1.2l1.3-4.7H64l0,0l-0.5,0.7
		c-0.3-0.3-1.1-1.1-3-1.1c-2.1,0-5.8,2.2-7,7.1c-0.6,2.3-0.3,4.4,0.7,5.8c0.8,1,1.9,1.6,3.1,1.6c2,0,3.9-1.6,4.7-2.8
		c0.1,0.8,0.7,2.8,3.1,2.8c2.2,0,4.7-1.6,7.3-4.7l-2,8h3l1-4.1c0.3,0.3,0.8,0.9,2,0.9c1.6,0,4.3-1.9,6.7-4.6
		c-0.3,1.4-0.1,2.6,0.5,3.4c0.5,0.7,1.3,1.1,2.2,1.1c2.8,0,4.8-2.4,5.5-3.3c0,0.9,0.3,1.7,0.8,2.3c0.6,0.7,1.4,1,2.3,1
		c2.5,0,4.6-1.7,5.4-4.3C100.2,26.6,100.1,25.1,99.3,24.1"/>
	<path class="st0" d="M38.1,27.5c-0.6,2.3-1.3,3.3-2.3,3.3c-0.2,0-0.4-0.1-0.5-0.3c-0.4-0.6-0.4-2,0-3.6c0.6-2.3,1.5-2.6,2.2-2.6
		c0.2,0,0.4,0.1,0.5,0.3C38.4,25.1,38.4,26.1,38.1,27.5 M13.4,25.3h-3c1.2-4,2.6-5.7,4.6-5.8L13.4,25.3z M48.8,26.1
		c0.2,0.2,0.5,0.3,0.8,0.3c0.6,0,1.2-0.4,1.2-1.4c0-0.5-0.2-1-0.5-1.3c-0.5-0.5-1.4-0.8-2.4-0.8c-2,0-3.4,0.8-4,2.3
		c-0.4,1.1,0.2,2.3,1.7,3.4l0.2,0.1c0.9,0.6,1.4,1,1.2,1.7c-0.1,0.6-0.8,1.1-1.6,1.1c-1.2,0-1.5-0.7-1.5-0.9
		c0.2-0.1,0.8-0.4,0.8-1.1c0-0.3-0.1-0.6-0.3-0.8c-0.3-0.3-0.7-0.3-0.9-0.3c-0.4,0-1.1,0.1-1.2,1.1c0,0.1,0,0.3,0,0.4
		c-0.1,0.1-0.5,0.7-1.1,0.9c-0.1,0-0.4,0-0.5-0.1c-0.2-0.2-0.2-0.6-0.1-1.1c0.1-0.5,1.6-6.5,1.6-6.5h-3L39,23.9
		c-0.2-0.4-0.8-1-2.1-1c-2,0-3.7,2-4.6,3.7c-0.7,1.4-2,4.1-3.1,4.1c-0.1,0-0.2,0-0.3-0.1c-0.1-0.1-0.2-0.6,0.1-1.8
		c0.3-1,2.4-9.8,2.4-9.8h-5.1l-0.3,1.2H28l-1.3,5.3c-1,3.8-2.7,5.2-3.9,5.2c-0.2,0-0.4-0.1-0.5-0.2c-0.3-0.4-0.1-1.3,0-2
		c0.2-0.9,0.9-3.7,1-4.2h2.1l0.3-1.2h-2.1l0.7-3l-1.2,0l0,0.1c-1.5,2.3-2.2,3-4.5,3h-0.1l-0.3,1.2h1.8c-0.1,0.4-0.3,1.4-0.3,1.4
		c-1,3.8-2.9,5.3-3.7,5.3c-0.4,0-0.6-0.1-0.7-0.2c-0.2-0.3-0.2-0.8,0.1-1.8c0.5-1.7,2.4-8.7,2.6-9.5h1.9l0.4-1.2l-4.1,0
		c-1.5,0-3.2,0.1-4.9,1.1c-2.1,1.2-3.7,3.3-4.6,6.5c0,0-0.6,2.2-1.1,3.9c-0.5,1.7-1.9,1.9-2.5,1.9c-0.4,0-0.7-0.2-1.1-0.5L2,31v1.6
		l0.1,0c0.5,0.1,1.2,0.2,1.9,0.2c2,0,3.7-1.4,4.7-2.7c0.7-1,1-1.9,1.3-3.2l0.1-0.3h3c-0.1,0.4-0.5,1.7-0.8,2.9
		c-0.3,1-0.2,1.8,0.2,2.4c0.4,0.5,1.2,0.8,2.2,0.8c1.1,0,3-0.3,4.3-1.9c0,0.4,0.2,0.9,0.6,1.4c0.4,0.4,0.9,0.6,1.6,0.6
		c1.6,0,3.5-1.1,4.4-2.2c0,0.4,0.1,1.1,0.6,1.6c0.3,0.4,0.8,0.6,1.4,0.6c1.8,0,3.5-1.5,4.2-2.6c0.1,0.8,0.7,2.6,2.9,2.6
		c1.4,0,2.4-0.9,3-1.5c0.1,0.5,0.5,1.5,1.8,1.5c1.3,0,2.7-0.9,3.3-1.6c0.6,1.1,1.2,1.6,3.4,1.6c2.1,0,3.8-1.4,4.1-2.7
		c0.3-1.4-0.5-2-1.8-3l-0.2-0.1L48,26.7c-0.6-0.5-1.2-0.9-1.2-1.6c0-0.7,0.6-1.1,1.2-1.1c0.5,0,0.8,0.2,0.9,0.3
		c-0.1,0.1-0.4,0.5-0.4,0.9C48.5,25.6,48.6,25.9,48.8,26.1"/>
</g>
</svg>
